ISO-10303-21;
HEADER;
/* Generated by software containing ST-Developer
 * from STEP Tools, Inc. (www.steptools.com) 
 */
/* OPTION: using custom renumber hook */

FILE_DESCRIPTION(
/* description */ ('STEP AP242 Edition 2',
'CAx-IF Rec.Pracs.---Representation and Presentation of Product Manufa
cturing Information (PMI)---4.0---2014-10-13',
'CAx-IF Rec.Pracs.---3D Tessellated Geometry---0.4---2014-09-14','2;1',
'CAx-IF Rec.Pracs.---User Defined Attributes---1.5---2016-08-15'),
/* implementation_level */ '2;1');

FILE_NAME(
/* name */ 'Camera Base Mount',
/* time_stamp */ '2026-07-07T18:12:47Z',
/* author */ (''),
/* organization */ (''),
/* preprocessor_version */ 'ST-DEVELOPER v20',
/* originating_system */ 'ONSHAPE BY PTC INC, 1.217',
/* authorisation */ '  ');

FILE_SCHEMA (('AP242_MANAGED_MODEL_BASED_3D_ENGINEERING_MIM_LF { 1 0 10303 442 3 1 4 }'));
ENDSEC;

DATA;
#10=SHAPE_REPRESENTATION_RELATIONSHIP('','',#793,#11);
#11=ADVANCED_BREP_SHAPE_REPRESENTATION('',(#791),#1307);
#12=PLANE('',#798);
#13=PLANE('',#800);
#14=PLANE('',#803);
#15=PLANE('',#808);
#16=PLANE('',#811);
#17=PLANE('',#812);
#18=PLANE('',#813);
#19=PLANE('',#814);
#20=PLANE('',#815);
#21=PLANE('',#817);
#22=PLANE('',#819);
#23=PLANE('',#820);
#24=PLANE('',#829);
#25=PLANE('',#830);
#26=PLANE('',#831);
#27=PLANE('',#832);
#28=PLANE('',#835);
#29=PLANE('',#837);
#30=PLANE('',#839);
#31=PLANE('',#842);
#32=PLANE('',#843);
#33=PLANE('',#844);
#34=PLANE('',#845);
#35=PLANE('',#846);
#36=PLANE('',#847);
#37=PLANE('',#848);
#38=PLANE('',#849);
#39=PLANE('',#864);
#40=LINE('',#1090,#118);
#41=LINE('',#1094,#119);
#42=LINE('',#1098,#120);
#43=LINE('',#1101,#121);
#44=LINE('',#1103,#122);
#45=LINE('',#1105,#123);
#46=LINE('',#1107,#124);
#47=LINE('',#1109,#125);
#48=LINE('',#1112,#126);
#49=LINE('',#1114,#127);
#50=LINE('',#1118,#128);
#51=LINE('',#1120,#129);
#52=LINE('',#1122,#130);
#53=LINE('',#1126,#131);
#54=LINE('',#1129,#132);
#55=LINE('',#1131,#133);
#56=LINE('',#1133,#134);
#57=LINE('',#1135,#135);
#58=LINE('',#1137,#136);
#59=LINE('',#1142,#137);
#60=LINE('',#1146,#138);
#61=LINE('',#1149,#139);
#62=LINE('',#1151,#140);
#63=LINE('',#1153,#141);
#64=LINE('',#1157,#142);
#65=LINE('',#1159,#143);
#66=LINE('',#1161,#144);
#67=LINE('',#1163,#145);
#68=LINE('',#1165,#146);
#69=LINE('',#1168,#147);
#70=LINE('',#1169,#148);
#71=LINE('',#1171,#149);
#72=LINE('',#1173,#150);
#73=LINE('',#1175,#151);
#74=LINE('',#1178,#152);
#75=LINE('',#1179,#153);
#76=LINE('',#1183,#154);
#77=LINE('',#1185,#155);
#78=LINE('',#1189,#156);
#79=LINE('',#1191,#157);
#80=LINE('',#1193,#158);
#81=LINE('',#1196,#159);
#82=LINE('',#1198,#160);
#83=LINE('',#1200,#161);
#84=LINE('',#1203,#162);
#85=LINE('',#1205,#163);
#86=LINE('',#1209,#164);
#87=LINE('',#1211,#165);
#88=LINE('',#1215,#166);
#89=LINE('',#1217,#167);
#90=LINE('',#1220,#168);
#91=LINE('',#1224,#169);
#92=LINE('',#1228,#170);
#93=LINE('',#1232,#171);
#94=LINE('',#1235,#172);
#95=LINE('',#1236,#173);
#96=LINE('',#1238,#174);
#97=LINE('',#1240,#175);
#98=LINE('',#1242,#176);
#99=LINE('',#1244,#177);
#100=LINE('',#1247,#178);
#101=LINE('',#1248,#179);
#102=LINE('',#1252,#180);
#103=LINE('',#1254,#181);
#104=LINE('',#1256,#182);
#105=LINE('',#1258,#183);
#106=LINE('',#1259,#184);
#107=LINE('',#1263,#185);
#108=LINE('',#1267,#186);
#109=LINE('',#1269,#187);
#110=LINE('',#1273,#188);
#111=LINE('',#1275,#189);
#112=LINE('',#1277,#190);
#113=LINE('',#1278,#191);
#114=LINE('',#1280,#192);
#115=LINE('',#1283,#193);
#116=LINE('',#1286,#194);
#117=LINE('',#1289,#195);
#118=VECTOR('',#871,1.);
#119=VECTOR('',#874,1.);
#120=VECTOR('',#879,1.);
#121=VECTOR('',#880,1.);
#122=VECTOR('',#881,1.);
#123=VECTOR('',#882,1.);
#124=VECTOR('',#883,1.);
#125=VECTOR('',#884,1.);
#126=VECTOR('',#889,1.);
#127=VECTOR('',#890,1.);
#128=VECTOR('',#893,1.);
#129=VECTOR('',#894,1.);
#130=VECTOR('',#895,1.);
#131=VECTOR('',#900,1.);
#132=VECTOR('',#901,1.);
#133=VECTOR('',#902,1.);
#134=VECTOR('',#903,1.);
#135=VECTOR('',#904,1.);
#136=VECTOR('',#905,1.);
#137=VECTOR('',#910,1.);
#138=VECTOR('',#913,1.);
#139=VECTOR('',#918,1.);
#140=VECTOR('',#919,1.);
#141=VECTOR('',#920,1.);
#142=VECTOR('',#923,1.);
#143=VECTOR('',#924,1.);
#144=VECTOR('',#927,1.);
#145=VECTOR('',#928,1.);
#146=VECTOR('',#931,1.);
#147=VECTOR('',#932,1.);
#148=VECTOR('',#933,1.);
#149=VECTOR('',#936,1.);
#150=VECTOR('',#937,1.);
#151=VECTOR('',#940,1.);
#152=VECTOR('',#941,1.);
#153=VECTOR('',#942,1.);
#154=VECTOR('',#947,1.);
#155=VECTOR('',#948,1.);
#156=VECTOR('',#953,1.);
#157=VECTOR('',#954,1.);
#158=VECTOR('',#957,1.);
#159=VECTOR('',#958,1.);
#160=VECTOR('',#959,1.);
#161=VECTOR('',#960,1.);
#162=VECTOR('',#965,1.);
#163=VECTOR('',#966,1.);
#164=VECTOR('',#969,1.);
#165=VECTOR('',#972,1.);
#166=VECTOR('',#975,1.);
#167=VECTOR('',#976,1.);
#168=VECTOR('',#979,1.);
#169=VECTOR('',#982,1.);
#170=VECTOR('',#985,1.);
#171=VECTOR('',#990,1.);
#172=VECTOR('',#991,1.);
#173=VECTOR('',#992,1.);
#174=VECTOR('',#995,1.);
#175=VECTOR('',#996,1.);
#176=VECTOR('',#997,1.);
#177=VECTOR('',#1000,1.);
#178=VECTOR('',#1001,1.);
#179=VECTOR('',#1002,1.);
#180=VECTOR('',#1007,1.);
#181=VECTOR('',#1008,1.);
#182=VECTOR('',#1011,1.);
#183=VECTOR('',#1012,1.);
#184=VECTOR('',#1013,1.);
#185=VECTOR('',#1018,1.);
#186=VECTOR('',#1023,1.);
#187=VECTOR('',#1024,1.);
#188=VECTOR('',#1029,1.);
#189=VECTOR('',#1030,1.);
#190=VECTOR('',#1033,1.);
#191=VECTOR('',#1034,1.);
#192=VECTOR('',#1037,1.);
#193=VECTOR('',#1042,1.);
#194=VECTOR('',#1047,1.);
#195=VECTOR('',#1052,1.);
#196=ORIENTED_EDGE('',*,*,#408,.F.);
#197=ORIENTED_EDGE('',*,*,#409,.T.);
#198=ORIENTED_EDGE('',*,*,#410,.T.);
#199=ORIENTED_EDGE('',*,*,#411,.T.);
#200=ORIENTED_EDGE('',*,*,#412,.T.);
#201=ORIENTED_EDGE('',*,*,#413,.F.);
#202=ORIENTED_EDGE('',*,*,#414,.T.);
#203=ORIENTED_EDGE('',*,*,#415,.F.);
#204=ORIENTED_EDGE('',*,*,#416,.T.);
#205=ORIENTED_EDGE('',*,*,#417,.F.);
#206=ORIENTED_EDGE('',*,*,#418,.F.);
#207=ORIENTED_EDGE('',*,*,#419,.F.);
#208=ORIENTED_EDGE('',*,*,#418,.T.);
#209=ORIENTED_EDGE('',*,*,#420,.F.);
#210=ORIENTED_EDGE('',*,*,#421,.F.);
#211=ORIENTED_EDGE('',*,*,#422,.T.);
#212=ORIENTED_EDGE('',*,*,#423,.F.);
#213=ORIENTED_EDGE('',*,*,#424,.T.);
#214=ORIENTED_EDGE('',*,*,#425,.T.);
#215=ORIENTED_EDGE('',*,*,#410,.F.);
#216=ORIENTED_EDGE('',*,*,#426,.F.);
#217=ORIENTED_EDGE('',*,*,#427,.F.);
#218=ORIENTED_EDGE('',*,*,#428,.T.);
#219=ORIENTED_EDGE('',*,*,#429,.T.);
#220=ORIENTED_EDGE('',*,*,#430,.T.);
#221=ORIENTED_EDGE('',*,*,#431,.F.);
#222=ORIENTED_EDGE('',*,*,#432,.T.);
#223=ORIENTED_EDGE('',*,*,#433,.T.);
#224=ORIENTED_EDGE('',*,*,#434,.T.);
#225=ORIENTED_EDGE('',*,*,#435,.F.);
#226=ORIENTED_EDGE('',*,*,#436,.F.);
#227=ORIENTED_EDGE('',*,*,#437,.F.);
#228=ORIENTED_EDGE('',*,*,#433,.F.);
#229=ORIENTED_EDGE('',*,*,#438,.F.);
#230=ORIENTED_EDGE('',*,*,#439,.T.);
#231=ORIENTED_EDGE('',*,*,#440,.T.);
#232=ORIENTED_EDGE('',*,*,#441,.T.);
#233=ORIENTED_EDGE('',*,*,#442,.T.);
#234=ORIENTED_EDGE('',*,*,#443,.F.);
#235=ORIENTED_EDGE('',*,*,#429,.F.);
#236=ORIENTED_EDGE('',*,*,#417,.T.);
#237=ORIENTED_EDGE('',*,*,#444,.T.);
#238=ORIENTED_EDGE('',*,*,#445,.F.);
#239=ORIENTED_EDGE('',*,*,#420,.T.);
#240=ORIENTED_EDGE('',*,*,#446,.F.);
#241=ORIENTED_EDGE('',*,*,#447,.F.);
#242=ORIENTED_EDGE('',*,*,#424,.F.);
#243=ORIENTED_EDGE('',*,*,#448,.T.);
#244=ORIENTED_EDGE('',*,*,#449,.T.);
#245=ORIENTED_EDGE('',*,*,#450,.T.);
#246=ORIENTED_EDGE('',*,*,#430,.F.);
#247=ORIENTED_EDGE('',*,*,#443,.T.);
#248=ORIENTED_EDGE('',*,*,#451,.F.);
#249=ORIENTED_EDGE('',*,*,#452,.F.);
#250=ORIENTED_EDGE('',*,*,#439,.F.);
#251=ORIENTED_EDGE('',*,*,#453,.T.);
#252=ORIENTED_EDGE('',*,*,#454,.F.);
#253=ORIENTED_EDGE('',*,*,#455,.F.);
#254=ORIENTED_EDGE('',*,*,#456,.F.);
#255=ORIENTED_EDGE('',*,*,#440,.F.);
#256=ORIENTED_EDGE('',*,*,#452,.T.);
#257=ORIENTED_EDGE('',*,*,#457,.F.);
#258=ORIENTED_EDGE('',*,*,#458,.F.);
#259=ORIENTED_EDGE('',*,*,#449,.F.);
#260=ORIENTED_EDGE('',*,*,#442,.F.);
#261=ORIENTED_EDGE('',*,*,#459,.T.);
#262=ORIENTED_EDGE('',*,*,#460,.F.);
#263=ORIENTED_EDGE('',*,*,#461,.T.);
#264=ORIENTED_EDGE('',*,*,#462,.T.);
#265=ORIENTED_EDGE('',*,*,#463,.T.);
#266=ORIENTED_EDGE('',*,*,#414,.F.);
#267=ORIENTED_EDGE('',*,*,#464,.T.);
#268=ORIENTED_EDGE('',*,*,#408,.T.);
#269=ORIENTED_EDGE('',*,*,#465,.F.);
#270=ORIENTED_EDGE('',*,*,#466,.T.);
#271=ORIENTED_EDGE('',*,*,#467,.F.);
#272=ORIENTED_EDGE('',*,*,#468,.F.);
#273=ORIENTED_EDGE('',*,*,#435,.T.);
#274=ORIENTED_EDGE('',*,*,#469,.T.);
#275=ORIENTED_EDGE('',*,*,#427,.T.);
#276=ORIENTED_EDGE('',*,*,#470,.F.);
#277=ORIENTED_EDGE('',*,*,#471,.F.);
#278=ORIENTED_EDGE('',*,*,#472,.T.);
#279=ORIENTED_EDGE('',*,*,#473,.T.);
#280=ORIENTED_EDGE('',*,*,#462,.F.);
#281=ORIENTED_EDGE('',*,*,#474,.T.);
#282=ORIENTED_EDGE('',*,*,#475,.F.);
#283=ORIENTED_EDGE('',*,*,#476,.T.);
#284=ORIENTED_EDGE('',*,*,#477,.F.);
#285=ORIENTED_EDGE('',*,*,#478,.T.);
#286=ORIENTED_EDGE('',*,*,#479,.T.);
#287=ORIENTED_EDGE('',*,*,#480,.T.);
#288=ORIENTED_EDGE('',*,*,#481,.F.);
#289=ORIENTED_EDGE('',*,*,#482,.T.);
#290=ORIENTED_EDGE('',*,*,#479,.F.);
#291=ORIENTED_EDGE('',*,*,#483,.T.);
#292=ORIENTED_EDGE('',*,*,#484,.T.);
#293=ORIENTED_EDGE('',*,*,#485,.T.);
#294=ORIENTED_EDGE('',*,*,#486,.T.);
#295=ORIENTED_EDGE('',*,*,#477,.T.);
#296=ORIENTED_EDGE('',*,*,#487,.F.);
#297=ORIENTED_EDGE('',*,*,#488,.T.);
#298=ORIENTED_EDGE('',*,*,#475,.T.);
#299=ORIENTED_EDGE('',*,*,#489,.T.);
#300=ORIENTED_EDGE('',*,*,#490,.F.);
#301=ORIENTED_EDGE('',*,*,#491,.F.);
#302=ORIENTED_EDGE('',*,*,#492,.F.);
#303=ORIENTED_EDGE('',*,*,#421,.T.);
#304=ORIENTED_EDGE('',*,*,#445,.T.);
#305=ORIENTED_EDGE('',*,*,#467,.T.);
#306=ORIENTED_EDGE('',*,*,#493,.T.);
#307=ORIENTED_EDGE('',*,*,#494,.F.);
#308=ORIENTED_EDGE('',*,*,#422,.F.);
#309=ORIENTED_EDGE('',*,*,#492,.T.);
#310=ORIENTED_EDGE('',*,*,#495,.T.);
#311=ORIENTED_EDGE('',*,*,#496,.F.);
#312=ORIENTED_EDGE('',*,*,#497,.F.);
#313=ORIENTED_EDGE('',*,*,#448,.F.);
#314=ORIENTED_EDGE('',*,*,#423,.T.);
#315=ORIENTED_EDGE('',*,*,#494,.T.);
#316=ORIENTED_EDGE('',*,*,#498,.T.);
#317=ORIENTED_EDGE('',*,*,#447,.T.);
#318=ORIENTED_EDGE('',*,*,#499,.T.);
#319=ORIENTED_EDGE('',*,*,#500,.F.);
#320=ORIENTED_EDGE('',*,*,#465,.T.);
#321=ORIENTED_EDGE('',*,*,#411,.F.);
#322=ORIENTED_EDGE('',*,*,#425,.F.);
#323=ORIENTED_EDGE('',*,*,#501,.F.);
#324=ORIENTED_EDGE('',*,*,#502,.F.);
#325=ORIENTED_EDGE('',*,*,#453,.F.);
#326=ORIENTED_EDGE('',*,*,#438,.T.);
#327=ORIENTED_EDGE('',*,*,#436,.T.);
#328=ORIENTED_EDGE('',*,*,#473,.F.);
#329=ORIENTED_EDGE('',*,*,#503,.T.);
#330=ORIENTED_EDGE('',*,*,#471,.T.);
#331=ORIENTED_EDGE('',*,*,#504,.T.);
#332=ORIENTED_EDGE('',*,*,#459,.F.);
#333=ORIENTED_EDGE('',*,*,#441,.F.);
#334=ORIENTED_EDGE('',*,*,#456,.T.);
#335=ORIENTED_EDGE('',*,*,#505,.T.);
#336=ORIENTED_EDGE('',*,*,#472,.F.);
#337=ORIENTED_EDGE('',*,*,#505,.F.);
#338=ORIENTED_EDGE('',*,*,#506,.T.);
#339=ORIENTED_EDGE('',*,*,#503,.F.);
#340=ORIENTED_EDGE('',*,*,#502,.T.);
#341=ORIENTED_EDGE('',*,*,#506,.F.);
#342=ORIENTED_EDGE('',*,*,#455,.T.);
#343=ORIENTED_EDGE('',*,*,#451,.T.);
#344=ORIENTED_EDGE('',*,*,#507,.F.);
#345=ORIENTED_EDGE('',*,*,#504,.F.);
#346=ORIENTED_EDGE('',*,*,#470,.T.);
#347=ORIENTED_EDGE('',*,*,#432,.F.);
#348=ORIENTED_EDGE('',*,*,#431,.T.);
#349=ORIENTED_EDGE('',*,*,#450,.F.);
#350=ORIENTED_EDGE('',*,*,#458,.T.);
#351=ORIENTED_EDGE('',*,*,#507,.T.);
#352=ORIENTED_EDGE('',*,*,#446,.T.);
#353=ORIENTED_EDGE('',*,*,#497,.T.);
#354=ORIENTED_EDGE('',*,*,#508,.F.);
#355=ORIENTED_EDGE('',*,*,#499,.F.);
#356=ORIENTED_EDGE('',*,*,#500,.T.);
#357=ORIENTED_EDGE('',*,*,#508,.T.);
#358=ORIENTED_EDGE('',*,*,#493,.F.);
#359=ORIENTED_EDGE('',*,*,#466,.F.);
#360=ORIENTED_EDGE('',*,*,#509,.T.);
#361=ORIENTED_EDGE('',*,*,#491,.T.);
#362=ORIENTED_EDGE('',*,*,#444,.F.);
#363=ORIENTED_EDGE('',*,*,#416,.F.);
#364=ORIENTED_EDGE('',*,*,#415,.T.);
#365=ORIENTED_EDGE('',*,*,#468,.T.);
#366=ORIENTED_EDGE('',*,*,#495,.F.);
#367=ORIENTED_EDGE('',*,*,#509,.F.);
#368=ORIENTED_EDGE('',*,*,#469,.F.);
#369=ORIENTED_EDGE('',*,*,#434,.F.);
#370=ORIENTED_EDGE('',*,*,#437,.T.);
#371=ORIENTED_EDGE('',*,*,#428,.F.);
#372=ORIENTED_EDGE('',*,*,#464,.F.);
#373=ORIENTED_EDGE('',*,*,#413,.T.);
#374=ORIENTED_EDGE('',*,*,#419,.T.);
#375=ORIENTED_EDGE('',*,*,#409,.F.);
#376=ORIENTED_EDGE('',*,*,#501,.T.);
#377=ORIENTED_EDGE('',*,*,#454,.T.);
#378=ORIENTED_EDGE('',*,*,#496,.T.);
#379=ORIENTED_EDGE('',*,*,#498,.F.);
#380=ORIENTED_EDGE('',*,*,#490,.T.);
#381=ORIENTED_EDGE('',*,*,#412,.F.);
#382=ORIENTED_EDGE('',*,*,#426,.T.);
#383=ORIENTED_EDGE('',*,*,#457,.T.);
#384=ORIENTED_EDGE('',*,*,#510,.F.);
#385=ORIENTED_EDGE('',*,*,#463,.F.);
#386=ORIENTED_EDGE('',*,*,#480,.F.);
#387=ORIENTED_EDGE('',*,*,#482,.F.);
#388=ORIENTED_EDGE('',*,*,#511,.F.);
#389=ORIENTED_EDGE('',*,*,#489,.F.);
#390=ORIENTED_EDGE('',*,*,#474,.F.);
#391=ORIENTED_EDGE('',*,*,#461,.F.);
#392=ORIENTED_EDGE('',*,*,#512,.F.);
#393=ORIENTED_EDGE('',*,*,#483,.F.);
#394=ORIENTED_EDGE('',*,*,#478,.F.);
#395=ORIENTED_EDGE('',*,*,#486,.F.);
#396=ORIENTED_EDGE('',*,*,#513,.F.);
#397=ORIENTED_EDGE('',*,*,#484,.F.);
#398=ORIENTED_EDGE('',*,*,#476,.F.);
#399=ORIENTED_EDGE('',*,*,#488,.F.);
#400=ORIENTED_EDGE('',*,*,#510,.T.);
#401=ORIENTED_EDGE('',*,*,#481,.T.);
#402=ORIENTED_EDGE('',*,*,#512,.T.);
#403=ORIENTED_EDGE('',*,*,#485,.F.);
#404=ORIENTED_EDGE('',*,*,#513,.T.);
#405=ORIENTED_EDGE('',*,*,#487,.T.);
#406=ORIENTED_EDGE('',*,*,#511,.T.);
#407=ORIENTED_EDGE('',*,*,#460,.T.);
#408=EDGE_CURVE('',#514,#515,#586,.T.);
#409=EDGE_CURVE('',#514,#516,#40,.F.);
#410=EDGE_CURVE('',#516,#517,#587,.T.);
#411=EDGE_CURVE('',#517,#515,#41,.T.);
#412=EDGE_CURVE('',#518,#518,#588,.T.);
#413=EDGE_CURVE('',#519,#520,#42,.F.);
#414=EDGE_CURVE('',#519,#521,#43,.T.);
#415=EDGE_CURVE('',#522,#521,#44,.T.);
#416=EDGE_CURVE('',#522,#523,#45,.T.);
#417=EDGE_CURVE('',#524,#523,#46,.T.);
#418=EDGE_CURVE('',#520,#524,#47,.T.);
#419=EDGE_CURVE('',#520,#516,#589,.T.);
#420=EDGE_CURVE('',#525,#524,#48,.T.);
#421=EDGE_CURVE('',#526,#525,#49,.T.);
#422=EDGE_CURVE('',#526,#527,#590,.T.);
#423=EDGE_CURVE('',#528,#527,#50,.T.);
#424=EDGE_CURVE('',#528,#529,#51,.T.);
#425=EDGE_CURVE('',#529,#517,#52,.T.);
#426=EDGE_CURVE('',#530,#530,#591,.T.);
#427=EDGE_CURVE('',#531,#532,#53,.T.);
#428=EDGE_CURVE('',#531,#533,#54,.F.);
#429=EDGE_CURVE('',#533,#534,#55,.T.);
#430=EDGE_CURVE('',#534,#535,#56,.T.);
#431=EDGE_CURVE('',#536,#535,#57,.T.);
#432=EDGE_CURVE('',#536,#532,#58,.T.);
#433=EDGE_CURVE('',#537,#538,#592,.T.);
#434=EDGE_CURVE('',#538,#539,#59,.T.);
#435=EDGE_CURVE('',#540,#539,#593,.T.);
#436=EDGE_CURVE('',#537,#540,#60,.T.);
#437=EDGE_CURVE('',#538,#533,#594,.T.);
#438=EDGE_CURVE('',#541,#537,#61,.T.);
#439=EDGE_CURVE('',#541,#542,#62,.T.);
#440=EDGE_CURVE('',#542,#543,#63,.T.);
#441=EDGE_CURVE('',#543,#544,#595,.T.);
#442=EDGE_CURVE('',#544,#545,#64,.T.);
#443=EDGE_CURVE('',#534,#545,#65,.T.);
#444=EDGE_CURVE('',#523,#546,#66,.T.);
#445=EDGE_CURVE('',#525,#546,#67,.T.);
#446=EDGE_CURVE('',#547,#548,#68,.T.);
#447=EDGE_CURVE('',#529,#547,#69,.T.);
#448=EDGE_CURVE('',#528,#548,#70,.T.);
#449=EDGE_CURVE('',#545,#549,#71,.T.);
#450=EDGE_CURVE('',#549,#535,#72,.T.);
#451=EDGE_CURVE('',#550,#551,#73,.T.);
#452=EDGE_CURVE('',#542,#550,#74,.T.);
#453=EDGE_CURVE('',#541,#551,#75,.T.);
#454=EDGE_CURVE('',#552,#552,#596,.F.);
#455=EDGE_CURVE('',#553,#550,#76,.T.);
#456=EDGE_CURVE('',#543,#553,#77,.T.);
#457=EDGE_CURVE('',#554,#554,#597,.F.);
#458=EDGE_CURVE('',#549,#555,#78,.T.);
#459=EDGE_CURVE('',#544,#555,#79,.T.);
#460=EDGE_CURVE('',#556,#557,#80,.T.);
#461=EDGE_CURVE('',#556,#558,#81,.T.);
#462=EDGE_CURVE('',#558,#559,#82,.T.);
#463=EDGE_CURVE('',#559,#557,#83,.F.);
#464=EDGE_CURVE('',#519,#514,#598,.T.);
#465=EDGE_CURVE('',#560,#515,#84,.T.);
#466=EDGE_CURVE('',#560,#561,#85,.T.);
#467=EDGE_CURVE('',#562,#561,#599,.T.);
#468=EDGE_CURVE('',#521,#562,#86,.T.);
#469=EDGE_CURVE('',#539,#531,#600,.T.);
#470=EDGE_CURVE('',#563,#532,#87,.T.);
#471=EDGE_CURVE('',#564,#563,#601,.T.);
#472=EDGE_CURVE('',#564,#565,#88,.T.);
#473=EDGE_CURVE('',#565,#540,#89,.T.);
#474=EDGE_CURVE('',#558,#566,#602,.T.);
#475=EDGE_CURVE('',#567,#566,#90,.T.);
#476=EDGE_CURVE('',#567,#568,#603,.T.);
#477=EDGE_CURVE('',#569,#568,#91,.T.);
#478=EDGE_CURVE('',#569,#570,#604,.T.);
#479=EDGE_CURVE('',#570,#571,#92,.T.);
#480=EDGE_CURVE('',#571,#559,#605,.T.);
#481=EDGE_CURVE('',#572,#573,#93,.T.);
#482=EDGE_CURVE('',#572,#571,#94,.T.);
#483=EDGE_CURVE('',#570,#573,#95,.F.);
#484=EDGE_CURVE('',#568,#574,#96,.T.);
#485=EDGE_CURVE('',#574,#575,#97,.T.);
#486=EDGE_CURVE('',#575,#569,#98,.T.);
#487=EDGE_CURVE('',#576,#577,#99,.T.);
#488=EDGE_CURVE('',#576,#567,#100,.F.);
#489=EDGE_CURVE('',#566,#577,#101,.F.);
#490=EDGE_CURVE('',#578,#578,#606,.T.);
#491=EDGE_CURVE('',#579,#546,#102,.T.);
#492=EDGE_CURVE('',#526,#579,#103,.T.);
#493=EDGE_CURVE('',#561,#580,#104,.T.);
#494=EDGE_CURVE('',#527,#580,#105,.T.);
#495=EDGE_CURVE('',#579,#562,#106,.T.);
#496=EDGE_CURVE('',#581,#581,#607,.T.);
#497=EDGE_CURVE('',#548,#580,#107,.T.);
#498=EDGE_CURVE('',#582,#582,#608,.T.);
#499=EDGE_CURVE('',#547,#583,#108,.T.);
#500=EDGE_CURVE('',#560,#583,#109,.T.);
#501=EDGE_CURVE('',#584,#584,#609,.T.);
#502=EDGE_CURVE('',#551,#585,#110,.T.);
#503=EDGE_CURVE('',#565,#585,#111,.T.);
#504=EDGE_CURVE('',#563,#555,#112,.T.);
#505=EDGE_CURVE('',#553,#564,#113,.T.);
#506=EDGE_CURVE('',#553,#585,#114,.T.);
#507=EDGE_CURVE('',#555,#536,#115,.T.);
#508=EDGE_CURVE('',#583,#580,#116,.T.);
#509=EDGE_CURVE('',#522,#579,#117,.T.);
#510=EDGE_CURVE('',#557,#572,#610,.F.);
#511=EDGE_CURVE('',#577,#556,#611,.F.);
#512=EDGE_CURVE('',#573,#575,#612,.F.);
#513=EDGE_CURVE('',#574,#576,#613,.F.);
#514=VERTEX_POINT('',#1088);
#515=VERTEX_POINT('',#1089);
#516=VERTEX_POINT('',#1091);
#517=VERTEX_POINT('',#1093);
#518=VERTEX_POINT('',#1097);
#519=VERTEX_POINT('',#1099);
#520=VERTEX_POINT('',#1100);
#521=VERTEX_POINT('',#1102);
#522=VERTEX_POINT('',#1104);
#523=VERTEX_POINT('',#1106);
#524=VERTEX_POINT('',#1108);
#525=VERTEX_POINT('',#1113);
#526=VERTEX_POINT('',#1115);
#527=VERTEX_POINT('',#1117);
#528=VERTEX_POINT('',#1119);
#529=VERTEX_POINT('',#1121);
#530=VERTEX_POINT('',#1125);
#531=VERTEX_POINT('',#1127);
#532=VERTEX_POINT('',#1128);
#533=VERTEX_POINT('',#1130);
#534=VERTEX_POINT('',#1132);
#535=VERTEX_POINT('',#1134);
#536=VERTEX_POINT('',#1136);
#537=VERTEX_POINT('',#1140);
#538=VERTEX_POINT('',#1141);
#539=VERTEX_POINT('',#1143);
#540=VERTEX_POINT('',#1145);
#541=VERTEX_POINT('',#1150);
#542=VERTEX_POINT('',#1152);
#543=VERTEX_POINT('',#1154);
#544=VERTEX_POINT('',#1156);
#545=VERTEX_POINT('',#1158);
#546=VERTEX_POINT('',#1162);
#547=VERTEX_POINT('',#1166);
#548=VERTEX_POINT('',#1167);
#549=VERTEX_POINT('',#1172);
#550=VERTEX_POINT('',#1176);
#551=VERTEX_POINT('',#1177);
#552=VERTEX_POINT('',#1182);
#553=VERTEX_POINT('',#1184);
#554=VERTEX_POINT('',#1188);
#555=VERTEX_POINT('',#1190);
#556=VERTEX_POINT('',#1194);
#557=VERTEX_POINT('',#1195);
#558=VERTEX_POINT('',#1197);
#559=VERTEX_POINT('',#1199);
#560=VERTEX_POINT('',#1204);
#561=VERTEX_POINT('',#1206);
#562=VERTEX_POINT('',#1208);
#563=VERTEX_POINT('',#1212);
#564=VERTEX_POINT('',#1214);
#565=VERTEX_POINT('',#1216);
#566=VERTEX_POINT('',#1219);
#567=VERTEX_POINT('',#1221);
#568=VERTEX_POINT('',#1223);
#569=VERTEX_POINT('',#1225);
#570=VERTEX_POINT('',#1227);
#571=VERTEX_POINT('',#1229);
#572=VERTEX_POINT('',#1233);
#573=VERTEX_POINT('',#1234);
#574=VERTEX_POINT('',#1239);
#575=VERTEX_POINT('',#1241);
#576=VERTEX_POINT('',#1245);
#577=VERTEX_POINT('',#1246);
#578=VERTEX_POINT('',#1251);
#579=VERTEX_POINT('',#1253);
#580=VERTEX_POINT('',#1257);
#581=VERTEX_POINT('',#1262);
#582=VERTEX_POINT('',#1266);
#583=VERTEX_POINT('',#1268);
#584=VERTEX_POINT('',#1272);
#585=VERTEX_POINT('',#1274);
#586=CIRCLE('',#796,0.015);
#587=CIRCLE('',#797,0.015);
#588=CIRCLE('',#799,0.001575);
#589=CIRCLE('',#801,0.011);
#590=CIRCLE('',#802,0.01881);
#591=CIRCLE('',#804,0.001575);
#592=CIRCLE('',#806,0.015);
#593=CIRCLE('',#807,0.015);
#594=CIRCLE('',#809,0.011);
#595=CIRCLE('',#810,0.01881);
#596=CIRCLE('',#816,0.001575);
#597=CIRCLE('',#818,0.001575);
#598=CIRCLE('',#821,0.011);
#599=CIRCLE('',#822,0.01881);
#600=CIRCLE('',#823,0.011);
#601=CIRCLE('',#824,0.01881);
#602=CIRCLE('',#825,0.00508);
#603=CIRCLE('',#826,0.00508);
#604=CIRCLE('',#827,0.00508);
#605=CIRCLE('',#828,0.00508);
#606=CIRCLE('',#833,0.001575);
#607=CIRCLE('',#836,0.001575);
#608=CIRCLE('',#838,0.001575);
#609=CIRCLE('',#840,0.001575);
#610=CIRCLE('',#857,0.00508);
#611=CIRCLE('',#859,0.00508);
#612=CIRCLE('',#861,0.00508);
#613=CIRCLE('',#863,0.00508);
#614=EDGE_LOOP('',(#196,#197,#198,#199));
#615=EDGE_LOOP('',(#200));
#616=EDGE_LOOP('',(#201,#202,#203,#204,#205,#206));
#617=EDGE_LOOP('',(#207,#208,#209,#210,#211,#212,#213,#214,#215));
#618=EDGE_LOOP('',(#216));
#619=EDGE_LOOP('',(#217,#218,#219,#220,#221,#222));
#620=EDGE_LOOP('',(#223,#224,#225,#226));
#621=EDGE_LOOP('',(#227,#228,#229,#230,#231,#232,#233,#234,#235));
#622=EDGE_LOOP('',(#236,#237,#238,#239));
#623=EDGE_LOOP('',(#240,#241,#242,#243));
#624=EDGE_LOOP('',(#244,#245,#246,#247));
#625=EDGE_LOOP('',(#248,#249,#250,#251));
#626=EDGE_LOOP('',(#252));
#627=EDGE_LOOP('',(#253,#254,#255,#256));
#628=EDGE_LOOP('',(#257));
#629=EDGE_LOOP('',(#258,#259,#260,#261));
#630=EDGE_LOOP('',(#262,#263,#264,#265));
#631=EDGE_LOOP('',(#266,#267,#268,#269,#270,#271,#272));
#632=EDGE_LOOP('',(#273,#274,#275,#276,#277,#278,#279));
#633=EDGE_LOOP('',(#280,#281,#282,#283,#284,#285,#286,#287));
#634=EDGE_LOOP('',(#288,#289,#290,#291));
#635=EDGE_LOOP('',(#292,#293,#294,#295));
#636=EDGE_LOOP('',(#296,#297,#298,#299));
#637=EDGE_LOOP('',(#300));
#638=EDGE_LOOP('',(#301,#302,#303,#304));
#639=EDGE_LOOP('',(#305,#306,#307,#308,#309,#310));
#640=EDGE_LOOP('',(#311));
#641=EDGE_LOOP('',(#312,#313,#314,#315));
#642=EDGE_LOOP('',(#316));
#643=EDGE_LOOP('',(#317,#318,#319,#320,#321,#322));
#644=EDGE_LOOP('',(#323));
#645=EDGE_LOOP('',(#324,#325,#326,#327,#328,#329));
#646=EDGE_LOOP('',(#330,#331,#332,#333,#334,#335));
#647=EDGE_LOOP('',(#336,#337,#338,#339));
#648=EDGE_LOOP('',(#340,#341,#342,#343));
#649=EDGE_LOOP('',(#344,#345,#346,#347));
#650=EDGE_LOOP('',(#348,#349,#350,#351));
#651=EDGE_LOOP('',(#352,#353,#354,#355));
#652=EDGE_LOOP('',(#356,#357,#358,#359));
#653=EDGE_LOOP('',(#360,#361,#362,#363));
#654=EDGE_LOOP('',(#364,#365,#366,#367));
#655=EDGE_LOOP('',(#368,#369,#370,#371));
#656=EDGE_LOOP('',(#372,#373,#374,#375));
#657=EDGE_LOOP('',(#376));
#658=EDGE_LOOP('',(#377));
#659=EDGE_LOOP('',(#378));
#660=EDGE_LOOP('',(#379));
#661=EDGE_LOOP('',(#380));
#662=EDGE_LOOP('',(#381));
#663=EDGE_LOOP('',(#382));
#664=EDGE_LOOP('',(#383));
#665=EDGE_LOOP('',(#384,#385,#386,#387));
#666=EDGE_LOOP('',(#388,#389,#390,#391));
#667=EDGE_LOOP('',(#392,#393,#394,#395));
#668=EDGE_LOOP('',(#396,#397,#398,#399));
#669=EDGE_LOOP('',(#400,#401,#402,#403,#404,#405,#406,#407));
#670=FACE_BOUND('',#614,.T.);
#671=FACE_BOUND('',#615,.T.);
#672=FACE_BOUND('',#616,.T.);
#673=FACE_BOUND('',#617,.T.);
#674=FACE_BOUND('',#618,.T.);
#675=FACE_BOUND('',#619,.T.);
#676=FACE_BOUND('',#620,.T.);
#677=FACE_BOUND('',#621,.T.);
#678=FACE_BOUND('',#622,.T.);
#679=FACE_BOUND('',#623,.T.);
#680=FACE_BOUND('',#624,.T.);
#681=FACE_BOUND('',#625,.T.);
#682=FACE_BOUND('',#626,.T.);
#683=FACE_BOUND('',#627,.T.);
#684=FACE_BOUND('',#628,.T.);
#685=FACE_BOUND('',#629,.T.);
#686=FACE_BOUND('',#630,.T.);
#687=FACE_BOUND('',#631,.T.);
#688=FACE_BOUND('',#632,.T.);
#689=FACE_BOUND('',#633,.T.);
#690=FACE_BOUND('',#634,.T.);
#691=FACE_BOUND('',#635,.T.);
#692=FACE_BOUND('',#636,.T.);
#693=FACE_BOUND('',#637,.T.);
#694=FACE_BOUND('',#638,.T.);
#695=FACE_BOUND('',#639,.T.);
#696=FACE_BOUND('',#640,.T.);
#697=FACE_BOUND('',#641,.T.);
#698=FACE_BOUND('',#642,.T.);
#699=FACE_BOUND('',#643,.T.);
#700=FACE_BOUND('',#644,.T.);
#701=FACE_BOUND('',#645,.T.);
#702=FACE_BOUND('',#646,.T.);
#703=FACE_BOUND('',#647,.T.);
#704=FACE_BOUND('',#648,.T.);
#705=FACE_BOUND('',#649,.T.);
#706=FACE_BOUND('',#650,.T.);
#707=FACE_BOUND('',#651,.T.);
#708=FACE_BOUND('',#652,.T.);
#709=FACE_BOUND('',#653,.T.);
#710=FACE_BOUND('',#654,.T.);
#711=FACE_BOUND('',#655,.T.);
#712=FACE_BOUND('',#656,.T.);
#713=FACE_BOUND('',#657,.T.);
#714=FACE_BOUND('',#658,.T.);
#715=FACE_BOUND('',#659,.T.);
#716=FACE_BOUND('',#660,.T.);
#717=FACE_BOUND('',#661,.T.);
#718=FACE_BOUND('',#662,.T.);
#719=FACE_BOUND('',#663,.T.);
#720=FACE_BOUND('',#664,.T.);
#721=FACE_BOUND('',#665,.T.);
#722=FACE_BOUND('',#666,.T.);
#723=FACE_BOUND('',#667,.T.);
#724=FACE_BOUND('',#668,.T.);
#725=FACE_BOUND('',#669,.T.);
#726=CYLINDRICAL_SURFACE('',#795,0.015);
#727=CYLINDRICAL_SURFACE('',#805,0.015);
#728=CYLINDRICAL_SURFACE('',#834,0.01881);
#729=CYLINDRICAL_SURFACE('',#841,0.01881);
#730=CYLINDRICAL_SURFACE('',#850,0.011);
#731=CYLINDRICAL_SURFACE('',#851,0.011);
#732=CYLINDRICAL_SURFACE('',#852,0.001575);
#733=CYLINDRICAL_SURFACE('',#853,0.001575);
#734=CYLINDRICAL_SURFACE('',#854,0.001575);
#735=CYLINDRICAL_SURFACE('',#855,0.001575);
#736=CYLINDRICAL_SURFACE('',#856,0.00508);
#737=CYLINDRICAL_SURFACE('',#858,0.00508);
#738=CYLINDRICAL_SURFACE('',#860,0.00508);
#739=CYLINDRICAL_SURFACE('',#862,0.00508);
#740=ADVANCED_FACE('',(#670),#726,.F.);
#741=ADVANCED_FACE('',(#671,#672),#12,.F.);
#742=ADVANCED_FACE('',(#673),#13,.T.);
#743=ADVANCED_FACE('',(#674,#675),#14,.T.);
#744=ADVANCED_FACE('',(#676),#727,.F.);
#745=ADVANCED_FACE('',(#677),#15,.T.);
#746=ADVANCED_FACE('',(#678),#16,.T.);
#747=ADVANCED_FACE('',(#679),#17,.F.);
#748=ADVANCED_FACE('',(#680),#18,.T.);
#749=ADVANCED_FACE('',(#681),#19,.F.);
#750=ADVANCED_FACE('',(#682,#683),#20,.F.);
#751=ADVANCED_FACE('',(#684,#685),#21,.F.);
#752=ADVANCED_FACE('',(#686),#22,.T.);
#753=ADVANCED_FACE('',(#687,#688,#689),#23,.T.);
#754=ADVANCED_FACE('',(#690),#24,.T.);
#755=ADVANCED_FACE('',(#691),#25,.F.);
#756=ADVANCED_FACE('',(#692),#26,.T.);
#757=ADVANCED_FACE('',(#693,#694),#27,.T.);
#758=ADVANCED_FACE('',(#695),#728,.T.);
#759=ADVANCED_FACE('',(#696,#697),#28,.T.);
#760=ADVANCED_FACE('',(#698,#699),#29,.F.);
#761=ADVANCED_FACE('',(#700,#701),#30,.T.);
#762=ADVANCED_FACE('',(#702),#729,.T.);
#763=ADVANCED_FACE('',(#703),#31,.T.);
#764=ADVANCED_FACE('',(#704),#32,.F.);
#765=ADVANCED_FACE('',(#705),#33,.T.);
#766=ADVANCED_FACE('',(#706),#34,.F.);
#767=ADVANCED_FACE('',(#707),#35,.F.);
#768=ADVANCED_FACE('',(#708),#36,.T.);
#769=ADVANCED_FACE('',(#709),#37,.F.);
#770=ADVANCED_FACE('',(#710),#38,.T.);
#771=ADVANCED_FACE('',(#711),#730,.F.);
#772=ADVANCED_FACE('',(#712),#731,.F.);
#773=ADVANCED_FACE('',(#713,#714),#732,.F.);
#774=ADVANCED_FACE('',(#715,#716),#733,.F.);
#775=ADVANCED_FACE('',(#717,#718),#734,.F.);
#776=ADVANCED_FACE('',(#719,#720),#735,.F.);
#777=ADVANCED_FACE('',(#721),#736,.T.);
#778=ADVANCED_FACE('',(#722),#737,.T.);
#779=ADVANCED_FACE('',(#723),#738,.T.);
#780=ADVANCED_FACE('',(#724),#739,.T.);
#781=ADVANCED_FACE('',(#725),#39,.F.);
#782=CLOSED_SHELL('',(#740,#741,#742,#743,#744,#745,#746,#747,#748,#749,
#750,#751,#752,#753,#754,#755,#756,#757,#758,#759,#760,#761,#762,#763,#764,
#765,#766,#767,#768,#769,#770,#771,#772,#773,#774,#775,#776,#777,#778,#779,
#780,#781));
#783=STYLED_ITEM('',(#784),#791);
#784=PRESENTATION_STYLE_ASSIGNMENT((#785));
#785=SURFACE_STYLE_USAGE(.BOTH.,#786);
#786=SURFACE_SIDE_STYLE('',(#787));
#787=SURFACE_STYLE_FILL_AREA(#788);
#788=FILL_AREA_STYLE('',(#789));
#789=FILL_AREA_STYLE_COLOUR('',#790);
#790=COLOUR_RGB('',0.615686274509804,0.811764705882353,0.929411764705882);
#791=MANIFOLD_SOLID_BREP('Part 1',#782);
#792=SHAPE_DEFINITION_REPRESENTATION(#1312,#793);
#793=SHAPE_REPRESENTATION('Part 1',(#794),#1307);
#794=AXIS2_PLACEMENT_3D('',#1085,#865,#866);
#795=AXIS2_PLACEMENT_3D('',#1086,#867,#868);
#796=AXIS2_PLACEMENT_3D('',#1087,#869,#870);
#797=AXIS2_PLACEMENT_3D('',#1092,#872,#873);
#798=AXIS2_PLACEMENT_3D('',#1095,#875,#876);
#799=AXIS2_PLACEMENT_3D('',#1096,#877,#878);
#800=AXIS2_PLACEMENT_3D('',#1110,#885,#886);
#801=AXIS2_PLACEMENT_3D('',#1111,#887,#888);
#802=AXIS2_PLACEMENT_3D('',#1116,#891,#892);
#803=AXIS2_PLACEMENT_3D('',#1123,#896,#897);
#804=AXIS2_PLACEMENT_3D('',#1124,#898,#899);
#805=AXIS2_PLACEMENT_3D('',#1138,#906,#907);
#806=AXIS2_PLACEMENT_3D('',#1139,#908,#909);
#807=AXIS2_PLACEMENT_3D('',#1144,#911,#912);
#808=AXIS2_PLACEMENT_3D('',#1147,#914,#915);
#809=AXIS2_PLACEMENT_3D('',#1148,#916,#917);
#810=AXIS2_PLACEMENT_3D('',#1155,#921,#922);
#811=AXIS2_PLACEMENT_3D('',#1160,#925,#926);
#812=AXIS2_PLACEMENT_3D('',#1164,#929,#930);
#813=AXIS2_PLACEMENT_3D('',#1170,#934,#935);
#814=AXIS2_PLACEMENT_3D('',#1174,#938,#939);
#815=AXIS2_PLACEMENT_3D('',#1180,#943,#944);
#816=AXIS2_PLACEMENT_3D('',#1181,#945,#946);
#817=AXIS2_PLACEMENT_3D('',#1186,#949,#950);
#818=AXIS2_PLACEMENT_3D('',#1187,#951,#952);
#819=AXIS2_PLACEMENT_3D('',#1192,#955,#956);
#820=AXIS2_PLACEMENT_3D('',#1201,#961,#962);
#821=AXIS2_PLACEMENT_3D('',#1202,#963,#964);
#822=AXIS2_PLACEMENT_3D('',#1207,#967,#968);
#823=AXIS2_PLACEMENT_3D('',#1210,#970,#971);
#824=AXIS2_PLACEMENT_3D('',#1213,#973,#974);
#825=AXIS2_PLACEMENT_3D('',#1218,#977,#978);
#826=AXIS2_PLACEMENT_3D('',#1222,#980,#981);
#827=AXIS2_PLACEMENT_3D('',#1226,#983,#984);
#828=AXIS2_PLACEMENT_3D('',#1230,#986,#987);
#829=AXIS2_PLACEMENT_3D('',#1231,#988,#989);
#830=AXIS2_PLACEMENT_3D('',#1237,#993,#994);
#831=AXIS2_PLACEMENT_3D('',#1243,#998,#999);
#832=AXIS2_PLACEMENT_3D('',#1249,#1003,#1004);
#833=AXIS2_PLACEMENT_3D('',#1250,#1005,#1006);
#834=AXIS2_PLACEMENT_3D('',#1255,#1009,#1010);
#835=AXIS2_PLACEMENT_3D('',#1260,#1014,#1015);
#836=AXIS2_PLACEMENT_3D('',#1261,#1016,#1017);
#837=AXIS2_PLACEMENT_3D('',#1264,#1019,#1020);
#838=AXIS2_PLACEMENT_3D('',#1265,#1021,#1022);
#839=AXIS2_PLACEMENT_3D('',#1270,#1025,#1026);
#840=AXIS2_PLACEMENT_3D('',#1271,#1027,#1028);
#841=AXIS2_PLACEMENT_3D('',#1276,#1031,#1032);
#842=AXIS2_PLACEMENT_3D('',#1279,#1035,#1036);
#843=AXIS2_PLACEMENT_3D('',#1281,#1038,#1039);
#844=AXIS2_PLACEMENT_3D('',#1282,#1040,#1041);
#845=AXIS2_PLACEMENT_3D('',#1284,#1043,#1044);
#846=AXIS2_PLACEMENT_3D('',#1285,#1045,#1046);
#847=AXIS2_PLACEMENT_3D('',#1287,#1048,#1049);
#848=AXIS2_PLACEMENT_3D('',#1288,#1050,#1051);
#849=AXIS2_PLACEMENT_3D('',#1290,#1053,#1054);
#850=AXIS2_PLACEMENT_3D('',#1291,#1055,#1056);
#851=AXIS2_PLACEMENT_3D('',#1292,#1057,#1058);
#852=AXIS2_PLACEMENT_3D('',#1293,#1059,#1060);
#853=AXIS2_PLACEMENT_3D('',#1294,#1061,#1062);
#854=AXIS2_PLACEMENT_3D('',#1295,#1063,#1064);
#855=AXIS2_PLACEMENT_3D('',#1296,#1065,#1066);
#856=AXIS2_PLACEMENT_3D('',#1297,#1067,#1068);
#857=AXIS2_PLACEMENT_3D('',#1298,#1069,#1070);
#858=AXIS2_PLACEMENT_3D('',#1299,#1071,#1072);
#859=AXIS2_PLACEMENT_3D('',#1300,#1073,#1074);
#860=AXIS2_PLACEMENT_3D('',#1301,#1075,#1076);
#861=AXIS2_PLACEMENT_3D('',#1302,#1077,#1078);
#862=AXIS2_PLACEMENT_3D('',#1303,#1079,#1080);
#863=AXIS2_PLACEMENT_3D('',#1304,#1081,#1082);
#864=AXIS2_PLACEMENT_3D('',#1305,#1083,#1084);
#865=DIRECTION('',(0.,0.,1.));
#866=DIRECTION('',(1.,0.,0.));
#867=DIRECTION('',(0.,1.,0.));
#868=DIRECTION('',(0.,0.,1.));
#869=DIRECTION('',(0.,-1.,0.));
#870=DIRECTION('',(0.,0.,-1.));
#871=DIRECTION('',(0.,1.,0.));
#872=DIRECTION('',(0.,-1.,0.));
#873=DIRECTION('',(0.,0.,-1.));
#874=DIRECTION('',(0.,1.,0.));
#875=DIRECTION('',(1.,0.,0.));
#876=DIRECTION('',(0.,0.,-1.));
#877=DIRECTION('',(1.,0.,0.));
#878=DIRECTION('',(0.,0.,-1.));
#879=DIRECTION('',(0.,1.,0.));
#880=DIRECTION('',(0.,0.,-1.));
#881=DIRECTION('',(0.,1.,0.));
#882=DIRECTION('',(0.,0.,-1.));
#883=DIRECTION('',(0.,1.,0.));
#884=DIRECTION('',(0.,0.,-1.));
#885=DIRECTION('',(0.,-1.,0.));
#886=DIRECTION('',(1.,0.,0.));
#887=DIRECTION('',(0.,-1.,0.));
#888=DIRECTION('',(0.,0.,-1.));
#889=DIRECTION('',(-1.,0.,0.));
#890=DIRECTION('',(0.,0.,-1.));
#891=DIRECTION('',(0.,-1.,0.));
#892=DIRECTION('',(0.,0.,-1.));
#893=DIRECTION('',(0.,0.,-1.));
#894=DIRECTION('',(-1.,0.,0.));
#895=DIRECTION('',(0.,0.,-1.));
#896=DIRECTION('',(1.,0.,0.));
#897=DIRECTION('',(0.,0.,-1.));
#898=DIRECTION('',(1.,0.,0.));
#899=DIRECTION('',(0.,0.,-1.));
#900=DIRECTION('',(0.,0.,-1.));
#901=DIRECTION('',(0.,1.,0.));
#902=DIRECTION('',(0.,0.,-1.));
#903=DIRECTION('',(0.,1.,0.));
#904=DIRECTION('',(0.,0.,-1.));
#905=DIRECTION('',(0.,1.,0.));
#906=DIRECTION('',(0.,1.,0.));
#907=DIRECTION('',(0.,0.,1.));
#908=DIRECTION('',(0.,-1.,0.));
#909=DIRECTION('',(0.,0.,-1.));
#910=DIRECTION('',(0.,1.,0.));
#911=DIRECTION('',(0.,-1.,0.));
#912=DIRECTION('',(0.,0.,-1.));
#913=DIRECTION('',(0.,1.,0.));
#914=DIRECTION('',(0.,-1.,0.));
#915=DIRECTION('',(1.,0.,0.));
#916=DIRECTION('',(0.,-1.,0.));
#917=DIRECTION('',(0.,0.,-1.));
#918=DIRECTION('',(0.,0.,-1.));
#919=DIRECTION('',(-1.,0.,0.));
#920=DIRECTION('',(0.,0.,-1.));
#921=DIRECTION('',(0.,-1.,0.));
#922=DIRECTION('',(0.,0.,-1.));
#923=DIRECTION('',(0.,0.,-1.));
#924=DIRECTION('',(-1.,0.,0.));
#925=DIRECTION('',(0.,0.,-1.));
#926=DIRECTION('',(-1.,0.,0.));
#927=DIRECTION('',(1.,0.,0.));
#928=DIRECTION('',(0.,1.,0.));
#929=DIRECTION('',(0.,0.,-1.));
#930=DIRECTION('',(-1.,0.,0.));
#931=DIRECTION('',(1.,0.,0.));
#932=DIRECTION('',(0.,1.,0.));
#933=DIRECTION('',(0.,1.,0.));
#934=DIRECTION('',(0.,0.,-1.));
#935=DIRECTION('',(-1.,0.,0.));
#936=DIRECTION('',(0.,1.,0.));
#937=DIRECTION('',(1.,0.,0.));
#938=DIRECTION('',(0.,0.,-1.));
#939=DIRECTION('',(-1.,0.,0.));
#940=DIRECTION('',(1.,0.,0.));
#941=DIRECTION('',(0.,1.,0.));
#942=DIRECTION('',(0.,1.,0.));
#943=DIRECTION('',(1.,0.,0.));
#944=DIRECTION('',(0.,0.,-1.));
#945=DIRECTION('',(1.,0.,0.));
#946=DIRECTION('',(0.,0.,-1.));
#947=DIRECTION('',(0.,0.,1.));
#948=DIRECTION('',(0.,1.,0.));
#949=DIRECTION('',(1.,0.,0.));
#950=DIRECTION('',(0.,0.,-1.));
#951=DIRECTION('',(1.,0.,0.));
#952=DIRECTION('',(0.,0.,-1.));
#953=DIRECTION('',(0.,0.,1.));
#954=DIRECTION('',(0.,1.,0.));
#955=DIRECTION('',(0.,0.,1.));
#956=DIRECTION('',(1.,0.,0.));
#957=DIRECTION('',(1.,0.,0.));
#958=DIRECTION('',(0.,-1.,0.));
#959=DIRECTION('',(1.,0.,0.));
#960=DIRECTION('',(0.,-1.,0.));
#961=DIRECTION('',(0.,-1.,0.));
#962=DIRECTION('',(0.,0.,-1.));
#963=DIRECTION('',(0.,-1.,0.));
#964=DIRECTION('',(0.,0.,-1.));
#965=DIRECTION('',(0.,0.,-1.));
#966=DIRECTION('',(1.,0.,0.));
#967=DIRECTION('',(0.,-1.,0.));
#968=DIRECTION('',(0.,0.,-1.));
#969=DIRECTION('',(1.,0.,0.));
#970=DIRECTION('',(0.,-1.,0.));
#971=DIRECTION('',(0.,0.,-1.));
#972=DIRECTION('',(1.,0.,0.));
#973=DIRECTION('',(0.,-1.,0.));
#974=DIRECTION('',(0.,0.,-1.));
#975=DIRECTION('',(1.,0.,0.));
#976=DIRECTION('',(0.,0.,-1.));
#977=DIRECTION('',(0.,-1.,0.));
#978=DIRECTION('',(0.,0.,-1.));
#979=DIRECTION('',(0.,0.,1.));
#980=DIRECTION('',(0.,-1.,0.));
#981=DIRECTION('',(0.,0.,-1.));
#982=DIRECTION('',(-1.,0.,0.));
#983=DIRECTION('',(0.,-1.,0.));
#984=DIRECTION('',(0.,0.,-1.));
#985=DIRECTION('',(0.,0.,1.));
#986=DIRECTION('',(0.,-1.,0.));
#987=DIRECTION('',(0.,0.,-1.));
#988=DIRECTION('',(1.,0.,0.));
#989=DIRECTION('',(0.,0.,-1.));
#990=DIRECTION('',(0.,0.,-1.));
#991=DIRECTION('',(0.,-1.,0.));
#992=DIRECTION('',(0.,-1.,0.));
#993=DIRECTION('',(0.,0.,1.));
#994=DIRECTION('',(1.,0.,0.));
#995=DIRECTION('',(0.,1.,0.));
#996=DIRECTION('',(1.,0.,0.));
#997=DIRECTION('',(0.,-1.,0.));
#998=DIRECTION('',(-1.,0.,0.));
#999=DIRECTION('',(0.,0.,1.));
#1000=DIRECTION('',(0.,0.,1.));
#1001=DIRECTION('',(0.,1.,0.));
#1002=DIRECTION('',(0.,-1.,0.));
#1003=DIRECTION('',(1.,0.,0.));
#1004=DIRECTION('',(0.,0.,-1.));
#1005=DIRECTION('',(1.,0.,0.));
#1006=DIRECTION('',(0.,0.,-1.));
#1007=DIRECTION('',(0.,0.,-1.));
#1008=DIRECTION('',(0.,1.,0.));
#1009=DIRECTION('',(0.,1.,0.));
#1010=DIRECTION('',(0.,0.,1.));
#1011=DIRECTION('',(0.,-1.,0.));
#1012=DIRECTION('',(0.,1.,0.));
#1013=DIRECTION('',(0.,1.,0.));
#1014=DIRECTION('',(1.,0.,0.));
#1015=DIRECTION('',(0.,0.,-1.));
#1016=DIRECTION('',(1.,0.,0.));
#1017=DIRECTION('',(0.,0.,-1.));
#1018=DIRECTION('',(0.,0.,-1.));
#1019=DIRECTION('',(1.,0.,0.));
#1020=DIRECTION('',(0.,0.,-1.));
#1021=DIRECTION('',(1.,0.,0.));
#1022=DIRECTION('',(0.,0.,-1.));
#1023=DIRECTION('',(0.,0.,-1.));
#1024=DIRECTION('',(0.,-1.,0.));
#1025=DIRECTION('',(1.,0.,0.));
#1026=DIRECTION('',(0.,0.,-1.));
#1027=DIRECTION('',(1.,0.,0.));
#1028=DIRECTION('',(0.,0.,-1.));
#1029=DIRECTION('',(0.,0.,-1.));
#1030=DIRECTION('',(0.,-1.,0.));
#1031=DIRECTION('',(0.,1.,0.));
#1032=DIRECTION('',(0.,0.,1.));
#1033=DIRECTION('',(0.,-1.,0.));
#1034=DIRECTION('',(0.,1.,0.));
#1035=DIRECTION('',(0.,0.,1.));
#1036=DIRECTION('',(1.,0.,0.));
#1037=DIRECTION('',(1.,0.,0.));
#1038=DIRECTION('',(0.,-1.,0.));
#1039=DIRECTION('',(0.,0.,-1.));
#1040=DIRECTION('',(0.,0.,-1.));
#1041=DIRECTION('',(-1.,0.,0.));
#1042=DIRECTION('',(1.,0.,0.));
#1043=DIRECTION('',(0.,-1.,0.));
#1044=DIRECTION('',(0.,0.,-1.));
#1045=DIRECTION('',(0.,-1.,0.));
#1046=DIRECTION('',(0.,0.,-1.));
#1047=DIRECTION('',(1.,0.,0.));
#1048=DIRECTION('',(0.,0.,1.));
#1049=DIRECTION('',(1.,0.,0.));
#1050=DIRECTION('',(0.,-1.,0.));
#1051=DIRECTION('',(0.,0.,-1.));
#1052=DIRECTION('',(1.,0.,0.));
#1053=DIRECTION('',(0.,0.,-1.));
#1054=DIRECTION('',(-1.,0.,0.));
#1055=DIRECTION('',(0.,1.,0.));
#1056=DIRECTION('',(0.,0.,1.));
#1057=DIRECTION('',(0.,1.,0.));
#1058=DIRECTION('',(0.,0.,1.));
#1059=DIRECTION('',(1.,0.,0.));
#1060=DIRECTION('',(0.,0.,-1.));
#1061=DIRECTION('',(1.,0.,0.));
#1062=DIRECTION('',(0.,0.,-1.));
#1063=DIRECTION('',(1.,0.,0.));
#1064=DIRECTION('',(0.,0.,-1.));
#1065=DIRECTION('',(1.,0.,0.));
#1066=DIRECTION('',(0.,0.,-1.));
#1067=DIRECTION('',(0.,-1.,0.));
#1068=DIRECTION('',(0.,0.,-1.));
#1069=DIRECTION('',(0.,-1.,0.));
#1070=DIRECTION('',(0.,0.,-1.));
#1071=DIRECTION('',(0.,-1.,0.));
#1072=DIRECTION('',(0.,0.,-1.));
#1073=DIRECTION('',(0.,-1.,0.));
#1074=DIRECTION('',(0.,0.,-1.));
#1075=DIRECTION('',(0.,1.,0.));
#1076=DIRECTION('',(0.,0.,1.));
#1077=DIRECTION('',(0.,-1.,0.));
#1078=DIRECTION('',(0.,0.,-1.));
#1079=DIRECTION('',(0.,-1.,0.));
#1080=DIRECTION('',(0.,0.,-1.));
#1081=DIRECTION('',(0.,-1.,0.));
#1082=DIRECTION('',(0.,0.,-1.));
#1083=DIRECTION('',(0.,-1.,0.));
#1084=DIRECTION('',(1.,0.,0.));
#1085=CARTESIAN_POINT('',(0.,0.,0.));
#1086=CARTESIAN_POINT('',(0.012768,-0.0814,0.025));
#1087=CARTESIAN_POINT('',(0.012768,-0.056,0.025));
#1088=CARTESIAN_POINT('',(0.0225588141071788,-0.056,0.0136360236220472));
#1089=CARTESIAN_POINT('',(0.015768,-0.056,0.039696938456699));
#1090=CARTESIAN_POINT('',(0.0225588141071788,-0.0687,0.0136360236220472));
#1091=CARTESIAN_POINT('',(0.0225588141071788,-0.0814,0.0136360236220472));
#1092=CARTESIAN_POINT('',(0.012768,-0.0814,0.025));
#1093=CARTESIAN_POINT('',(0.015768,-0.0814,0.039696938456699));
#1094=CARTESIAN_POINT('',(0.015768,-0.0814,0.039696938456699));
#1095=CARTESIAN_POINT('',(0.015768,-0.0814,0.00590403077165046));
#1096=CARTESIAN_POINT('',(0.015768,-0.06997,0.00433880127276));
#1097=CARTESIAN_POINT('',(0.015768,-0.06997,0.00276380127276));
#1098=CARTESIAN_POINT('',(0.015768,-0.081402,0.00806699475574165));
#1099=CARTESIAN_POINT('',(0.015768,-0.056,0.00806699475574165));
#1100=CARTESIAN_POINT('',(0.015768,-0.0814,0.00806699475574165));
#1101=CARTESIAN_POINT('',(0.015768,-0.056,0.00590403077165046));
#1102=CARTESIAN_POINT('',(0.015768,-0.056,0.00717260254552));
#1103=CARTESIAN_POINT('',(0.015768,-0.0814,0.00717260254552));
#1104=CARTESIAN_POINT('',(0.015768,-0.05854,0.00717260254552));
#1105=CARTESIAN_POINT('',(0.015768,-0.05854,0.00590403077165046));
#1106=CARTESIAN_POINT('',(0.015768,-0.05854,0.001505));
#1107=CARTESIAN_POINT('',(0.015768,-0.0814,0.001505));
#1108=CARTESIAN_POINT('',(0.015768,-0.0814,0.001505));
#1109=CARTESIAN_POINT('',(0.015768,-0.0814,0.00590403077165046));
#1110=CARTESIAN_POINT('',(0.012768,-0.0814,0.025));
#1111=CARTESIAN_POINT('',(0.012768,-0.0814,0.01865));
#1112=CARTESIAN_POINT('',(0.017268,-0.0814,0.001505));
#1113=CARTESIAN_POINT('',(0.018768,-0.0814,0.001505));
#1114=CARTESIAN_POINT('',(0.018768,-0.0814,0.00433880127276));
#1115=CARTESIAN_POINT('',(0.018768,-0.0814,0.00717260254552));
#1116=CARTESIAN_POINT('',(0.012768,-0.0814,0.025));
#1117=CARTESIAN_POINT('',(0.018768,-0.0814,0.04282739745448));
#1118=CARTESIAN_POINT('',(0.018768,-0.0814,0.04566119872724));
#1119=CARTESIAN_POINT('',(0.018768,-0.0814,0.048495));
#1120=CARTESIAN_POINT('',(0.017268,-0.0814,0.048495));
#1121=CARTESIAN_POINT('',(0.015768,-0.0814,0.048495));
#1122=CARTESIAN_POINT('',(0.015768,-0.0814,0.0440959692283496));
#1123=CARTESIAN_POINT('',(0.009768,-0.0814,0.00590403077165047));
#1124=CARTESIAN_POINT('',(0.009768,-0.06997,0.00433880127276));
#1125=CARTESIAN_POINT('',(0.009768,-0.06997,0.00276380127276));
#1126=CARTESIAN_POINT('',(0.009768,-0.056,0.00590403077165047));
#1127=CARTESIAN_POINT('',(0.009768,-0.056,0.00806699475574165));
#1128=CARTESIAN_POINT('',(0.009768,-0.056,0.00717260254552));
#1129=CARTESIAN_POINT('',(0.009768,-0.081402,0.00806699475574166));
#1130=CARTESIAN_POINT('',(0.009768,-0.0814,0.00806699475574165));
#1131=CARTESIAN_POINT('',(0.009768,-0.0814,0.00590403077165047));
#1132=CARTESIAN_POINT('',(0.009768,-0.0814,0.001505));
#1133=CARTESIAN_POINT('',(0.009768,-0.0814,0.001505));
#1134=CARTESIAN_POINT('',(0.009768,-0.05854,0.001505));
#1135=CARTESIAN_POINT('',(0.009768,-0.05854,0.00590403077165047));
#1136=CARTESIAN_POINT('',(0.009768,-0.05854,0.00717260254552));
#1137=CARTESIAN_POINT('',(0.009768,-0.0814,0.00717260254552));
#1138=CARTESIAN_POINT('',(0.012768,-0.0814,0.025));
#1139=CARTESIAN_POINT('',(0.012768,-0.0814,0.025));
#1140=CARTESIAN_POINT('',(0.009768,-0.0814,0.039696938456699));
#1141=CARTESIAN_POINT('',(0.00297718589282115,-0.0814,0.0136360236220473));
#1142=CARTESIAN_POINT('',(0.00297718589282115,-0.0687,0.0136360236220473));
#1143=CARTESIAN_POINT('',(0.00297718589282115,-0.056,0.0136360236220473));
#1144=CARTESIAN_POINT('',(0.012768,-0.056,0.025));
#1145=CARTESIAN_POINT('',(0.009768,-0.056,0.039696938456699));
#1146=CARTESIAN_POINT('',(0.009768,-0.0814,0.039696938456699));
#1147=CARTESIAN_POINT('',(0.012768,-0.0814,0.025));
#1148=CARTESIAN_POINT('',(0.012768,-0.0814,0.01865));
#1149=CARTESIAN_POINT('',(0.009768,-0.0814,0.0440959692283496));
#1150=CARTESIAN_POINT('',(0.009768,-0.0814,0.048495));
#1151=CARTESIAN_POINT('',(0.008268,-0.0814,0.048495));
#1152=CARTESIAN_POINT('',(0.006768,-0.0814,0.048495));
#1153=CARTESIAN_POINT('',(0.006768,-0.0814,0.04566119872724));
#1154=CARTESIAN_POINT('',(0.006768,-0.0814,0.04282739745448));
#1155=CARTESIAN_POINT('',(0.012768,-0.0814,0.025));
#1156=CARTESIAN_POINT('',(0.006768,-0.0814,0.00717260254552));
#1157=CARTESIAN_POINT('',(0.006768,-0.0814,0.00433880127276));
#1158=CARTESIAN_POINT('',(0.006768,-0.0814,0.001505));
#1159=CARTESIAN_POINT('',(0.008268,-0.0814,0.001505));
#1160=CARTESIAN_POINT('',(0.017268,-0.0814,0.001505));
#1161=CARTESIAN_POINT('',(0.006766,-0.05854,0.001505));
#1162=CARTESIAN_POINT('',(0.018768,-0.05854,0.001505));
#1163=CARTESIAN_POINT('',(0.018768,-0.0814,0.001505));
#1164=CARTESIAN_POINT('',(0.017268,-0.0814,0.048495));
#1165=CARTESIAN_POINT('',(0.006766,-0.05854,0.048495));
#1166=CARTESIAN_POINT('',(0.015768,-0.05854,0.048495));
#1167=CARTESIAN_POINT('',(0.018768,-0.05854,0.048495));
#1168=CARTESIAN_POINT('',(0.015768,-0.0814,0.048495));
#1169=CARTESIAN_POINT('',(0.018768,-0.0814,0.048495));
#1170=CARTESIAN_POINT('',(0.008268,-0.0814,0.001505));
#1171=CARTESIAN_POINT('',(0.006768,-0.0814,0.001505));
#1172=CARTESIAN_POINT('',(0.006768,-0.05854,0.001505));
#1173=CARTESIAN_POINT('',(0.006766,-0.05854,0.001505));
#1174=CARTESIAN_POINT('',(0.008268,-0.0814,0.048495));
#1175=CARTESIAN_POINT('',(0.006766,-0.05854,0.048495));
#1176=CARTESIAN_POINT('',(0.006768,-0.05854,0.048495));
#1177=CARTESIAN_POINT('',(0.009768,-0.05854,0.048495));
#1178=CARTESIAN_POINT('',(0.006768,-0.0814,0.048495));
#1179=CARTESIAN_POINT('',(0.009768,-0.0814,0.048495));
#1180=CARTESIAN_POINT('',(0.006768,-0.0814,0.04566119872724));
#1181=CARTESIAN_POINT('',(0.006768,-0.06997,0.04566119872724));
#1182=CARTESIAN_POINT('',(0.006768,-0.06997,0.04408619872724));
#1183=CARTESIAN_POINT('',(0.006768,-0.05854,0.04566119872724));
#1184=CARTESIAN_POINT('',(0.006768,-0.05854,0.04282739745448));
#1185=CARTESIAN_POINT('',(0.006768,-0.0814,0.04282739745448));
#1186=CARTESIAN_POINT('',(0.006768,-0.0814,0.00433880127276));
#1187=CARTESIAN_POINT('',(0.006768,-0.06997,0.00433880127276));
#1188=CARTESIAN_POINT('',(0.006768,-0.06997,0.00276380127276));
#1189=CARTESIAN_POINT('',(0.006768,-0.05854,0.00433880127276));
#1190=CARTESIAN_POINT('',(0.006768,-0.05854,0.00717260254552));
#1191=CARTESIAN_POINT('',(0.006768,-0.0814,0.00717260254552));
#1192=CARTESIAN_POINT('',(0.,0.,0.05));
#1193=CARTESIAN_POINT('',(0.,-0.05092,0.05));
#1194=CARTESIAN_POINT('',(-0.009384,-0.05092,0.05));
#1195=CARTESIAN_POINT('',(0.03492,-0.05092,0.05));
#1196=CARTESIAN_POINT('',(-0.009384,0.,0.05));
#1197=CARTESIAN_POINT('',(-0.009384,-0.056,0.05));
#1198=CARTESIAN_POINT('',(0.012768,-0.056,0.05));
#1199=CARTESIAN_POINT('',(0.03492,-0.056,0.05));
#1200=CARTESIAN_POINT('',(0.03492,0.,0.05));
#1201=CARTESIAN_POINT('',(0.012768,-0.056,-2.000000000002E-6));
#1202=CARTESIAN_POINT('',(0.012768,-0.056,0.01865));
#1203=CARTESIAN_POINT('',(0.015768,-0.056,0.0440959692283496));
#1204=CARTESIAN_POINT('',(0.015768,-0.056,0.04282739745448));
#1205=CARTESIAN_POINT('',(0.006766,-0.056,0.04282739745448));
#1206=CARTESIAN_POINT('',(0.018768,-0.056,0.04282739745448));
#1207=CARTESIAN_POINT('',(0.012768,-0.056,0.025));
#1208=CARTESIAN_POINT('',(0.018768,-0.056,0.00717260254552));
#1209=CARTESIAN_POINT('',(0.006766,-0.056,0.00717260254552));
#1210=CARTESIAN_POINT('',(0.012768,-0.056,0.01865));
#1211=CARTESIAN_POINT('',(0.006766,-0.056,0.00717260254552));
#1212=CARTESIAN_POINT('',(0.006768,-0.056,0.00717260254552));
#1213=CARTESIAN_POINT('',(0.012768,-0.056,0.025));
#1214=CARTESIAN_POINT('',(0.006768,-0.056,0.04282739745448));
#1215=CARTESIAN_POINT('',(0.006766,-0.056,0.04282739745448));
#1216=CARTESIAN_POINT('',(0.009768,-0.056,0.04282739745448));
#1217=CARTESIAN_POINT('',(0.009768,-0.056,0.0440959692283496));
#1218=CARTESIAN_POINT('',(-0.009384,-0.056,0.04492));
#1219=CARTESIAN_POINT('',(-0.014464,-0.056,0.04492));
#1220=CARTESIAN_POINT('',(-0.014464,-0.056,-2.000000000002E-6));
#1221=CARTESIAN_POINT('',(-0.014464,-0.056,0.00508));
#1222=CARTESIAN_POINT('',(-0.009384,-0.056,0.00508));
#1223=CARTESIAN_POINT('',(-0.009384,-0.056,0.));
#1224=CARTESIAN_POINT('',(0.012768,-0.056,0.));
#1225=CARTESIAN_POINT('',(0.03492,-0.056,0.));
#1226=CARTESIAN_POINT('',(0.03492,-0.056,0.00508));
#1227=CARTESIAN_POINT('',(0.04,-0.056,0.00508));
#1228=CARTESIAN_POINT('',(0.04,-0.056,-2.000000000002E-6));
#1229=CARTESIAN_POINT('',(0.04,-0.056,0.04492));
#1230=CARTESIAN_POINT('',(0.03492,-0.056,0.04492));
#1231=CARTESIAN_POINT('',(0.04,0.,0.05));
#1232=CARTESIAN_POINT('',(0.04,-0.05092,0.05));
#1233=CARTESIAN_POINT('',(0.04,-0.05092,0.04492));
#1234=CARTESIAN_POINT('',(0.04,-0.05092,0.00508));
#1235=CARTESIAN_POINT('',(0.04,0.,0.04492));
#1236=CARTESIAN_POINT('',(0.04,0.02492,0.00508));
#1237=CARTESIAN_POINT('',(0.,0.,0.));
#1238=CARTESIAN_POINT('',(-0.009384,-0.03,0.));
#1239=CARTESIAN_POINT('',(-0.009384,-0.05092,0.));
#1240=CARTESIAN_POINT('',(0.,-0.05092,0.));
#1241=CARTESIAN_POINT('',(0.03492,-0.05092,0.));
#1242=CARTESIAN_POINT('',(0.03492,-0.056,0.));
#1243=CARTESIAN_POINT('',(-0.014464,-0.0281775,0.009998));
#1244=CARTESIAN_POINT('',(-0.014464,-0.05092,0.009998));
#1245=CARTESIAN_POINT('',(-0.014464,-0.05092,0.00508));
#1246=CARTESIAN_POINT('',(-0.014464,-0.05092,0.04492));
#1247=CARTESIAN_POINT('',(-0.014464,-0.056,0.00508));
#1248=CARTESIAN_POINT('',(-0.014464,-0.0281775,0.04492));
#1249=CARTESIAN_POINT('',(0.018768,-0.0814,0.00433880127276));
#1250=CARTESIAN_POINT('',(0.018768,-0.06997,0.00433880127276));
#1251=CARTESIAN_POINT('',(0.018768,-0.06997,0.00276380127276));
#1252=CARTESIAN_POINT('',(0.018768,-0.05854,0.00433880127276));
#1253=CARTESIAN_POINT('',(0.018768,-0.05854,0.00717260254552));
#1254=CARTESIAN_POINT('',(0.018768,-0.0814,0.00717260254552));
#1255=CARTESIAN_POINT('',(0.012768,-0.0814,0.025));
#1256=CARTESIAN_POINT('',(0.018768,-0.05727,0.04282739745448));
#1257=CARTESIAN_POINT('',(0.018768,-0.05854,0.04282739745448));
#1258=CARTESIAN_POINT('',(0.018768,-0.0814,0.04282739745448));
#1259=CARTESIAN_POINT('',(0.018768,-0.0814,0.00717260254552));
#1260=CARTESIAN_POINT('',(0.018768,-0.0814,0.04566119872724));
#1261=CARTESIAN_POINT('',(0.018768,-0.06997,0.04566119872724));
#1262=CARTESIAN_POINT('',(0.018768,-0.06997,0.04408619872724));
#1263=CARTESIAN_POINT('',(0.018768,-0.05854,0.04566119872724));
#1264=CARTESIAN_POINT('',(0.015768,-0.0814,0.0440959692283496));
#1265=CARTESIAN_POINT('',(0.015768,-0.06997,0.04566119872724));
#1266=CARTESIAN_POINT('',(0.015768,-0.06997,0.04408619872724));
#1267=CARTESIAN_POINT('',(0.015768,-0.05854,0.0440959692283496));
#1268=CARTESIAN_POINT('',(0.015768,-0.05854,0.04282739745448));
#1269=CARTESIAN_POINT('',(0.015768,-0.0814,0.04282739745448));
#1270=CARTESIAN_POINT('',(0.009768,-0.0814,0.0440959692283496));
#1271=CARTESIAN_POINT('',(0.009768,-0.06997,0.04566119872724));
#1272=CARTESIAN_POINT('',(0.009768,-0.06997,0.04408619872724));
#1273=CARTESIAN_POINT('',(0.009768,-0.05854,0.0440959692283496));
#1274=CARTESIAN_POINT('',(0.009768,-0.05854,0.04282739745448));
#1275=CARTESIAN_POINT('',(0.009768,-0.0814,0.04282739745448));
#1276=CARTESIAN_POINT('',(0.012768,-0.0814,0.025));
#1277=CARTESIAN_POINT('',(0.006768,-0.0814,0.00717260254552));
#1278=CARTESIAN_POINT('',(0.006768,-0.05727,0.04282739745448));
#1279=CARTESIAN_POINT('',(0.006766,-0.05727,0.04282739745448));
#1280=CARTESIAN_POINT('',(0.006766,-0.05854,0.04282739745448));
#1281=CARTESIAN_POINT('',(0.006766,-0.05854,0.04566119872724));
#1282=CARTESIAN_POINT('',(0.006766,-0.0814,0.00717260254552));
#1283=CARTESIAN_POINT('',(0.006766,-0.05854,0.00717260254552));
#1284=CARTESIAN_POINT('',(0.006766,-0.05854,0.00433880127276));
#1285=CARTESIAN_POINT('',(0.006766,-0.05854,0.04566119872724));
#1286=CARTESIAN_POINT('',(0.006766,-0.05854,0.04282739745448));
#1287=CARTESIAN_POINT('',(0.006766,-0.05727,0.04282739745448));
#1288=CARTESIAN_POINT('',(0.006766,-0.05854,0.00433880127276));
#1289=CARTESIAN_POINT('',(0.006766,-0.05854,0.00717260254552));
#1290=CARTESIAN_POINT('',(0.006766,-0.0814,0.00717260254552));
#1291=CARTESIAN_POINT('',(0.012768,-0.081402,0.01865));
#1292=CARTESIAN_POINT('',(0.012768,-0.081402,0.01865));
#1293=CARTESIAN_POINT('',(0.006766,-0.06997,0.04566119872724));
#1294=CARTESIAN_POINT('',(0.006766,-0.06997,0.04566119872724));
#1295=CARTESIAN_POINT('',(0.006766,-0.06997,0.00433880127276));
#1296=CARTESIAN_POINT('',(0.006766,-0.06997,0.00433880127276));
#1297=CARTESIAN_POINT('',(0.03492,0.,0.04492));
#1298=CARTESIAN_POINT('',(0.03492,-0.05092,0.04492));
#1299=CARTESIAN_POINT('',(-0.009384,0.,0.04492));
#1300=CARTESIAN_POINT('',(-0.009384,-0.05092,0.04492));
#1301=CARTESIAN_POINT('',(0.03492,0.,0.00508));
#1302=CARTESIAN_POINT('',(0.03492,-0.05092,0.00508));
#1303=CARTESIAN_POINT('',(-0.009384,0.,0.00508));
#1304=CARTESIAN_POINT('',(-0.009384,-0.05092,0.00508));
#1305=CARTESIAN_POINT('',(0.00910828448832035,-0.05092,0.0164901567623019));
#1306=MECHANICAL_DESIGN_GEOMETRIC_PRESENTATION_REPRESENTATION('',(#783),
#1307);
#1307=(
GEOMETRIC_REPRESENTATION_CONTEXT(3)
GLOBAL_UNCERTAINTY_ASSIGNED_CONTEXT((#1308))
GLOBAL_UNIT_ASSIGNED_CONTEXT((#1311,#1310,#1309))
REPRESENTATION_CONTEXT('Part 1','TOP_LEVEL_ASSEMBLY_PART')
);
#1308=UNCERTAINTY_MEASURE_WITH_UNIT(LENGTH_MEASURE(1.E-8),#1311,
'DISTANCE_ACCURACY_VALUE','Maximum Tolerance applied to model');
#1309=(
NAMED_UNIT(*)
SI_UNIT($,.STERADIAN.)
SOLID_ANGLE_UNIT()
);
#1310=(
NAMED_UNIT(*)
PLANE_ANGLE_UNIT()
SI_UNIT($,.RADIAN.)
);
#1311=(
LENGTH_UNIT()
NAMED_UNIT(*)
SI_UNIT($,.METRE.)
);
#1312=PRODUCT_DEFINITION_SHAPE('','',#1313);
#1313=PRODUCT_DEFINITION('','',#1315,#1314);
#1314=PRODUCT_DEFINITION_CONTEXT('',#1321,'design');
#1315=PRODUCT_DEFINITION_FORMATION_WITH_SPECIFIED_SOURCE('','',#1317,
 .NOT_KNOWN.);
#1316=PRODUCT_RELATED_PRODUCT_CATEGORY('','',(#1317));
#1317=PRODUCT('Part 1','Part 1','Part 1',(#1319));
#1318=PRODUCT_CATEGORY('','');
#1319=PRODUCT_CONTEXT('',#1321,'mechanical');
#1320=APPLICATION_PROTOCOL_DEFINITION('international standard',
'ap242_managed_model_based_3d_engineering',2020,#1321);
#1321=APPLICATION_CONTEXT('managed model based 3d engineering');
ENDSEC;
END-ISO-10303-21;
