ISO-10303-21;
HEADER;
/* Generated by software containing ST-Developer
 * from STEP Tools, Inc. (www.steptools.com) 
 */
/* OPTION: using custom renumber hook */

FILE_DESCRIPTION(
/* description */ ('STEP AP242 Edition 2',
'CAx-IF Rec.Pracs.---Representation and Presentation of Product Manufa
cturing Information (PMI)---4.0---2014-10-13',
'CAx-IF Rec.Pracs.---3D Tessellated Geometry---0.4---2014-09-14','2;1',
'CAx-IF Rec.Pracs.---User Defined Attributes---1.5---2016-08-15'),
/* implementation_level */ '2;1');

FILE_NAME(
/* name */ 'iPhone Holder V2',
/* time_stamp */ '2026-07-07T18:14:27Z',
/* author */ (''),
/* organization */ (''),
/* preprocessor_version */ 'ST-DEVELOPER v20',
/* originating_system */ 'ONSHAPE BY PTC INC, 1.217',
/* authorisation */ '  ');

FILE_SCHEMA (('AP242_MANAGED_MODEL_BASED_3D_ENGINEERING_MIM_LF { 1 0 10303 442 3 1 4 }'));
ENDSEC;

DATA;
#10=SHAPE_REPRESENTATION_RELATIONSHIP('','',#1103,#11);
#11=ADVANCED_BREP_SHAPE_REPRESENTATION('',(#1101),#1917);
#12=TOROIDAL_SURFACE('',#1188,0.0122682,0.00127);
#13=TOROIDAL_SURFACE('',#1192,0.0122682,0.00127);
#14=TOROIDAL_SURFACE('',#1209,0.0122682,0.00127);
#15=TOROIDAL_SURFACE('',#1213,0.0122682,0.00127);
#16=TOROIDAL_SURFACE('',#1222,0.0103632,0.00127);
#17=TOROIDAL_SURFACE('',#1229,0.0103632,0.00127);
#18=TOROIDAL_SURFACE('',#1231,0.0103632,0.00127);
#19=TOROIDAL_SURFACE('',#1237,0.0103632,0.00127);
#20=SPHERICAL_SURFACE('',#1184,0.00127);
#21=SPHERICAL_SURFACE('',#1198,0.00127);
#22=SPHERICAL_SURFACE('',#1205,0.00127);
#23=SPHERICAL_SURFACE('',#1219,0.00127);
#24=CYLINDRICAL_SURFACE('',#1147,0.0109982);
#25=CYLINDRICAL_SURFACE('',#1149,0.0109982);
#26=CYLINDRICAL_SURFACE('',#1151,0.0109982);
#27=CYLINDRICAL_SURFACE('',#1153,0.0109982);
#28=CYLINDRICAL_SURFACE('',#1164,0.0090932);
#29=CYLINDRICAL_SURFACE('',#1166,0.0090932);
#30=CYLINDRICAL_SURFACE('',#1168,0.0090932);
#31=CYLINDRICAL_SURFACE('',#1170,0.0090932);
#32=CYLINDRICAL_SURFACE('',#1176,0.0143002);
#33=CYLINDRICAL_SURFACE('',#1177,0.0143002);
#34=CYLINDRICAL_SURFACE('',#1178,0.0143002);
#35=CYLINDRICAL_SURFACE('',#1179,0.0143002);
#36=CYLINDRICAL_SURFACE('',#1180,0.00127);
#37=CYLINDRICAL_SURFACE('',#1182,0.00127);
#38=CYLINDRICAL_SURFACE('',#1186,0.00127);
#39=CYLINDRICAL_SURFACE('',#1190,0.00127);
#40=CYLINDRICAL_SURFACE('',#1194,0.00127);
#41=CYLINDRICAL_SURFACE('',#1196,0.00127);
#42=CYLINDRICAL_SURFACE('',#1200,0.00127);
#43=CYLINDRICAL_SURFACE('',#1201,0.00127);
#44=CYLINDRICAL_SURFACE('',#1203,0.00127);
#45=CYLINDRICAL_SURFACE('',#1207,0.00127);
#46=CYLINDRICAL_SURFACE('',#1211,0.00127);
#47=CYLINDRICAL_SURFACE('',#1215,0.00127);
#48=CYLINDRICAL_SURFACE('',#1217,0.00127);
#49=CYLINDRICAL_SURFACE('',#1221,0.00127);
#50=CYLINDRICAL_SURFACE('',#1225,0.00127);
#51=CYLINDRICAL_SURFACE('',#1227,0.00127);
#52=CYLINDRICAL_SURFACE('',#1233,0.00127);
#53=CYLINDRICAL_SURFACE('',#1235,0.00127);
#54=CIRCLE('',#1106,0.0143002);
#55=CIRCLE('',#1107,0.0143002);
#56=CIRCLE('',#1108,0.0122682);
#57=CIRCLE('',#1109,0.0122682);
#58=CIRCLE('',#1113,0.00127);
#59=CIRCLE('',#1114,0.00127);
#60=CIRCLE('',#1116,0.00127);
#61=CIRCLE('',#1117,0.00127);
#62=CIRCLE('',#1119,0.0103632);
#63=CIRCLE('',#1120,0.0103632);
#64=CIRCLE('',#1121,0.0103632);
#65=CIRCLE('',#1122,0.0103632);
#66=CIRCLE('',#1123,0.0109982);
#67=CIRCLE('',#1124,0.00127);
#68=CIRCLE('',#1125,0.00127);
#69=CIRCLE('',#1126,0.0109982);
#70=CIRCLE('',#1127,0.0109982);
#71=CIRCLE('',#1128,0.00127);
#72=CIRCLE('',#1129,0.00127);
#73=CIRCLE('',#1130,0.0109982);
#74=CIRCLE('',#1132,0.0122682);
#75=CIRCLE('',#1133,0.0122682);
#76=CIRCLE('',#1134,0.0143002);
#77=CIRCLE('',#1135,0.0143002);
#78=CIRCLE('',#1139,0.0143002);
#79=CIRCLE('',#1140,0.0143002);
#80=CIRCLE('',#1141,0.0143002);
#81=CIRCLE('',#1142,0.0143002);
#82=CIRCLE('',#1148,0.0109982);
#83=CIRCLE('',#1150,0.0109982);
#84=CIRCLE('',#1152,0.0109982);
#85=CIRCLE('',#1154,0.0109982);
#86=CIRCLE('',#1160,0.0090932);
#87=CIRCLE('',#1161,0.0090932);
#88=CIRCLE('',#1162,0.0090932);
#89=CIRCLE('',#1163,0.0090932);
#90=CIRCLE('',#1165,0.0090932);
#91=CIRCLE('',#1167,0.0090932);
#92=CIRCLE('',#1169,0.0090932);
#93=CIRCLE('',#1171,0.0090932);
#94=CIRCLE('',#1181,0.00127);
#95=CIRCLE('',#1183,0.00127);
#96=CIRCLE('',#1185,0.00127);
#97=CIRCLE('',#1187,0.00127);
#98=CIRCLE('',#1189,0.00127);
#99=CIRCLE('',#1191,0.00127);
#100=CIRCLE('',#1193,0.00127);
#101=CIRCLE('',#1195,0.00127);
#102=CIRCLE('',#1197,0.00127);
#103=CIRCLE('',#1199,0.00127);
#104=CIRCLE('',#1202,0.00127);
#105=CIRCLE('',#1204,0.00127);
#106=CIRCLE('',#1206,0.00127);
#107=CIRCLE('',#1208,0.00127);
#108=CIRCLE('',#1210,0.00127);
#109=CIRCLE('',#1212,0.00127);
#110=CIRCLE('',#1214,0.00127);
#111=CIRCLE('',#1216,0.00127);
#112=CIRCLE('',#1218,0.00127);
#113=CIRCLE('',#1220,0.00127);
#114=CIRCLE('',#1223,0.00127);
#115=CIRCLE('',#1224,0.00127);
#116=CIRCLE('',#1226,0.00127);
#117=CIRCLE('',#1228,0.00127);
#118=CIRCLE('',#1230,0.00127);
#119=CIRCLE('',#1232,0.00127);
#120=CIRCLE('',#1234,0.00127);
#121=CIRCLE('',#1236,0.00127);
#122=ORIENTED_EDGE('',*,*,#438,.T.);
#123=ORIENTED_EDGE('',*,*,#439,.T.);
#124=ORIENTED_EDGE('',*,*,#440,.F.);
#125=ORIENTED_EDGE('',*,*,#441,.T.);
#126=ORIENTED_EDGE('',*,*,#442,.T.);
#127=ORIENTED_EDGE('',*,*,#443,.T.);
#128=ORIENTED_EDGE('',*,*,#444,.T.);
#129=ORIENTED_EDGE('',*,*,#445,.T.);
#130=ORIENTED_EDGE('',*,*,#446,.T.);
#131=ORIENTED_EDGE('',*,*,#447,.T.);
#132=ORIENTED_EDGE('',*,*,#448,.T.);
#133=ORIENTED_EDGE('',*,*,#449,.T.);
#134=ORIENTED_EDGE('',*,*,#450,.T.);
#135=ORIENTED_EDGE('',*,*,#451,.T.);
#136=ORIENTED_EDGE('',*,*,#452,.T.);
#137=ORIENTED_EDGE('',*,*,#453,.T.);
#138=ORIENTED_EDGE('',*,*,#454,.T.);
#139=ORIENTED_EDGE('',*,*,#455,.T.);
#140=ORIENTED_EDGE('',*,*,#456,.T.);
#141=ORIENTED_EDGE('',*,*,#457,.F.);
#142=ORIENTED_EDGE('',*,*,#458,.T.);
#143=ORIENTED_EDGE('',*,*,#459,.T.);
#144=ORIENTED_EDGE('',*,*,#460,.T.);
#145=ORIENTED_EDGE('',*,*,#461,.T.);
#146=ORIENTED_EDGE('',*,*,#462,.F.);
#147=ORIENTED_EDGE('',*,*,#463,.T.);
#148=ORIENTED_EDGE('',*,*,#440,.T.);
#149=ORIENTED_EDGE('',*,*,#464,.T.);
#150=ORIENTED_EDGE('',*,*,#465,.F.);
#151=ORIENTED_EDGE('',*,*,#466,.F.);
#152=ORIENTED_EDGE('',*,*,#467,.F.);
#153=ORIENTED_EDGE('',*,*,#468,.T.);
#154=ORIENTED_EDGE('',*,*,#469,.F.);
#155=ORIENTED_EDGE('',*,*,#470,.T.);
#156=ORIENTED_EDGE('',*,*,#471,.T.);
#157=ORIENTED_EDGE('',*,*,#472,.T.);
#158=ORIENTED_EDGE('',*,*,#444,.F.);
#159=ORIENTED_EDGE('',*,*,#473,.T.);
#160=ORIENTED_EDGE('',*,*,#474,.T.);
#161=ORIENTED_EDGE('',*,*,#475,.T.);
#162=ORIENTED_EDGE('',*,*,#476,.T.);
#163=ORIENTED_EDGE('',*,*,#477,.T.);
#164=ORIENTED_EDGE('',*,*,#478,.T.);
#165=ORIENTED_EDGE('',*,*,#479,.T.);
#166=ORIENTED_EDGE('',*,*,#480,.T.);
#167=ORIENTED_EDGE('',*,*,#481,.T.);
#168=ORIENTED_EDGE('',*,*,#482,.T.);
#169=ORIENTED_EDGE('',*,*,#483,.T.);
#170=ORIENTED_EDGE('',*,*,#484,.F.);
#171=ORIENTED_EDGE('',*,*,#485,.T.);
#172=ORIENTED_EDGE('',*,*,#486,.F.);
#173=ORIENTED_EDGE('',*,*,#487,.T.);
#174=ORIENTED_EDGE('',*,*,#488,.F.);
#175=ORIENTED_EDGE('',*,*,#466,.T.);
#176=ORIENTED_EDGE('',*,*,#489,.T.);
#177=ORIENTED_EDGE('',*,*,#490,.T.);
#178=ORIENTED_EDGE('',*,*,#450,.F.);
#179=ORIENTED_EDGE('',*,*,#491,.T.);
#180=ORIENTED_EDGE('',*,*,#492,.T.);
#181=ORIENTED_EDGE('',*,*,#493,.T.);
#182=ORIENTED_EDGE('',*,*,#457,.T.);
#183=ORIENTED_EDGE('',*,*,#494,.T.);
#184=ORIENTED_EDGE('',*,*,#495,.F.);
#185=ORIENTED_EDGE('',*,*,#470,.F.);
#186=ORIENTED_EDGE('',*,*,#496,.T.);
#187=ORIENTED_EDGE('',*,*,#497,.T.);
#188=ORIENTED_EDGE('',*,*,#498,.T.);
#189=ORIENTED_EDGE('',*,*,#499,.T.);
#190=ORIENTED_EDGE('',*,*,#460,.F.);
#191=ORIENTED_EDGE('',*,*,#500,.T.);
#192=ORIENTED_EDGE('',*,*,#501,.T.);
#193=ORIENTED_EDGE('',*,*,#502,.T.);
#194=ORIENTED_EDGE('',*,*,#503,.T.);
#195=ORIENTED_EDGE('',*,*,#504,.T.);
#196=ORIENTED_EDGE('',*,*,#505,.T.);
#197=ORIENTED_EDGE('',*,*,#506,.T.);
#198=ORIENTED_EDGE('',*,*,#467,.T.);
#199=ORIENTED_EDGE('',*,*,#507,.T.);
#200=ORIENTED_EDGE('',*,*,#508,.F.);
#201=ORIENTED_EDGE('',*,*,#509,.T.);
#202=ORIENTED_EDGE('',*,*,#442,.F.);
#203=ORIENTED_EDGE('',*,*,#510,.T.);
#204=ORIENTED_EDGE('',*,*,#511,.T.);
#205=ORIENTED_EDGE('',*,*,#512,.T.);
#206=ORIENTED_EDGE('',*,*,#513,.F.);
#207=ORIENTED_EDGE('',*,*,#514,.T.);
#208=ORIENTED_EDGE('',*,*,#508,.T.);
#209=ORIENTED_EDGE('',*,*,#515,.T.);
#210=ORIENTED_EDGE('',*,*,#462,.T.);
#211=ORIENTED_EDGE('',*,*,#516,.T.);
#212=ORIENTED_EDGE('',*,*,#513,.T.);
#213=ORIENTED_EDGE('',*,*,#517,.T.);
#214=ORIENTED_EDGE('',*,*,#474,.F.);
#215=ORIENTED_EDGE('',*,*,#518,.T.);
#216=ORIENTED_EDGE('',*,*,#511,.F.);
#217=ORIENTED_EDGE('',*,*,#519,.T.);
#218=ORIENTED_EDGE('',*,*,#520,.T.);
#219=ORIENTED_EDGE('',*,*,#521,.T.);
#220=ORIENTED_EDGE('',*,*,#522,.T.);
#221=ORIENTED_EDGE('',*,*,#486,.T.);
#222=ORIENTED_EDGE('',*,*,#523,.T.);
#223=ORIENTED_EDGE('',*,*,#524,.T.);
#224=ORIENTED_EDGE('',*,*,#525,.T.);
#225=ORIENTED_EDGE('',*,*,#492,.F.);
#226=ORIENTED_EDGE('',*,*,#498,.F.);
#227=ORIENTED_EDGE('',*,*,#526,.T.);
#228=ORIENTED_EDGE('',*,*,#527,.T.);
#229=ORIENTED_EDGE('',*,*,#528,.T.);
#230=ORIENTED_EDGE('',*,*,#529,.T.);
#231=ORIENTED_EDGE('',*,*,#530,.T.);
#232=ORIENTED_EDGE('',*,*,#531,.T.);
#233=ORIENTED_EDGE('',*,*,#484,.T.);
#234=ORIENTED_EDGE('',*,*,#531,.F.);
#235=ORIENTED_EDGE('',*,*,#532,.T.);
#236=ORIENTED_EDGE('',*,*,#520,.F.);
#237=ORIENTED_EDGE('',*,*,#485,.F.);
#238=ORIENTED_EDGE('',*,*,#528,.F.);
#239=ORIENTED_EDGE('',*,*,#533,.T.);
#240=ORIENTED_EDGE('',*,*,#529,.F.);
#241=ORIENTED_EDGE('',*,*,#499,.F.);
#242=ORIENTED_EDGE('',*,*,#453,.F.);
#243=ORIENTED_EDGE('',*,*,#534,.T.);
#244=ORIENTED_EDGE('',*,*,#523,.F.);
#245=ORIENTED_EDGE('',*,*,#491,.F.);
#246=ORIENTED_EDGE('',*,*,#525,.F.);
#247=ORIENTED_EDGE('',*,*,#535,.T.);
#248=ORIENTED_EDGE('',*,*,#454,.F.);
#249=ORIENTED_EDGE('',*,*,#493,.F.);
#250=ORIENTED_EDGE('',*,*,#536,.T.);
#251=ORIENTED_EDGE('',*,*,#537,.T.);
#252=ORIENTED_EDGE('',*,*,#538,.T.);
#253=ORIENTED_EDGE('',*,*,#539,.T.);
#254=ORIENTED_EDGE('',*,*,#540,.T.);
#255=ORIENTED_EDGE('',*,*,#541,.T.);
#256=ORIENTED_EDGE('',*,*,#542,.T.);
#257=ORIENTED_EDGE('',*,*,#543,.F.);
#258=ORIENTED_EDGE('',*,*,#544,.T.);
#259=ORIENTED_EDGE('',*,*,#545,.T.);
#260=ORIENTED_EDGE('',*,*,#546,.T.);
#261=ORIENTED_EDGE('',*,*,#547,.F.);
#262=ORIENTED_EDGE('',*,*,#548,.T.);
#263=ORIENTED_EDGE('',*,*,#549,.T.);
#264=ORIENTED_EDGE('',*,*,#550,.T.);
#265=ORIENTED_EDGE('',*,*,#551,.T.);
#266=ORIENTED_EDGE('',*,*,#551,.F.);
#267=ORIENTED_EDGE('',*,*,#552,.T.);
#268=ORIENTED_EDGE('',*,*,#539,.F.);
#269=ORIENTED_EDGE('',*,*,#553,.T.);
#270=ORIENTED_EDGE('',*,*,#543,.T.);
#271=ORIENTED_EDGE('',*,*,#554,.T.);
#272=ORIENTED_EDGE('',*,*,#547,.T.);
#273=ORIENTED_EDGE('',*,*,#555,.T.);
#274=ORIENTED_EDGE('',*,*,#550,.F.);
#275=ORIENTED_EDGE('',*,*,#556,.T.);
#276=ORIENTED_EDGE('',*,*,#536,.F.);
#277=ORIENTED_EDGE('',*,*,#552,.F.);
#278=ORIENTED_EDGE('',*,*,#546,.F.);
#279=ORIENTED_EDGE('',*,*,#557,.T.);
#280=ORIENTED_EDGE('',*,*,#548,.F.);
#281=ORIENTED_EDGE('',*,*,#555,.F.);
#282=ORIENTED_EDGE('',*,*,#538,.F.);
#283=ORIENTED_EDGE('',*,*,#558,.T.);
#284=ORIENTED_EDGE('',*,*,#540,.F.);
#285=ORIENTED_EDGE('',*,*,#553,.F.);
#286=ORIENTED_EDGE('',*,*,#542,.F.);
#287=ORIENTED_EDGE('',*,*,#559,.T.);
#288=ORIENTED_EDGE('',*,*,#544,.F.);
#289=ORIENTED_EDGE('',*,*,#554,.F.);
#290=ORIENTED_EDGE('',*,*,#560,.T.);
#291=ORIENTED_EDGE('',*,*,#561,.T.);
#292=ORIENTED_EDGE('',*,*,#496,.F.);
#293=ORIENTED_EDGE('',*,*,#469,.T.);
#294=ORIENTED_EDGE('',*,*,#495,.T.);
#295=ORIENTED_EDGE('',*,*,#562,.T.);
#296=ORIENTED_EDGE('',*,*,#563,.T.);
#297=ORIENTED_EDGE('',*,*,#471,.F.);
#298=ORIENTED_EDGE('',*,*,#488,.T.);
#299=ORIENTED_EDGE('',*,*,#564,.T.);
#300=ORIENTED_EDGE('',*,*,#565,.T.);
#301=ORIENTED_EDGE('',*,*,#458,.F.);
#302=ORIENTED_EDGE('',*,*,#566,.T.);
#303=ORIENTED_EDGE('',*,*,#567,.T.);
#304=ORIENTED_EDGE('',*,*,#489,.F.);
#305=ORIENTED_EDGE('',*,*,#465,.T.);
#306=ORIENTED_EDGE('',*,*,#509,.F.);
#307=ORIENTED_EDGE('',*,*,#514,.F.);
#308=ORIENTED_EDGE('',*,*,#516,.F.);
#309=ORIENTED_EDGE('',*,*,#461,.F.);
#310=ORIENTED_EDGE('',*,*,#507,.F.);
#311=ORIENTED_EDGE('',*,*,#475,.F.);
#312=ORIENTED_EDGE('',*,*,#517,.F.);
#313=ORIENTED_EDGE('',*,*,#515,.F.);
#314=ORIENTED_EDGE('',*,*,#441,.F.);
#315=ORIENTED_EDGE('',*,*,#463,.F.);
#316=ORIENTED_EDGE('',*,*,#519,.F.);
#317=ORIENTED_EDGE('',*,*,#510,.F.);
#318=ORIENTED_EDGE('',*,*,#443,.F.);
#319=ORIENTED_EDGE('',*,*,#512,.F.);
#320=ORIENTED_EDGE('',*,*,#518,.F.);
#321=ORIENTED_EDGE('',*,*,#473,.F.);
#322=ORIENTED_EDGE('',*,*,#487,.F.);
#323=ORIENTED_EDGE('',*,*,#522,.F.);
#324=ORIENTED_EDGE('',*,*,#568,.F.);
#325=ORIENTED_EDGE('',*,*,#564,.F.);
#326=ORIENTED_EDGE('',*,*,#459,.F.);
#327=ORIENTED_EDGE('',*,*,#565,.F.);
#328=ORIENTED_EDGE('',*,*,#569,.F.);
#329=ORIENTED_EDGE('',*,*,#500,.F.);
#330=ORIENTED_EDGE('',*,*,#569,.T.);
#331=ORIENTED_EDGE('',*,*,#568,.T.);
#332=ORIENTED_EDGE('',*,*,#570,.F.);
#333=ORIENTED_EDGE('',*,*,#570,.T.);
#334=ORIENTED_EDGE('',*,*,#521,.F.);
#335=ORIENTED_EDGE('',*,*,#571,.F.);
#336=ORIENTED_EDGE('',*,*,#501,.F.);
#337=ORIENTED_EDGE('',*,*,#571,.T.);
#338=ORIENTED_EDGE('',*,*,#532,.F.);
#339=ORIENTED_EDGE('',*,*,#572,.F.);
#340=ORIENTED_EDGE('',*,*,#502,.F.);
#341=ORIENTED_EDGE('',*,*,#572,.T.);
#342=ORIENTED_EDGE('',*,*,#530,.F.);
#343=ORIENTED_EDGE('',*,*,#573,.F.);
#344=ORIENTED_EDGE('',*,*,#503,.F.);
#345=ORIENTED_EDGE('',*,*,#573,.T.);
#346=ORIENTED_EDGE('',*,*,#533,.F.);
#347=ORIENTED_EDGE('',*,*,#574,.F.);
#348=ORIENTED_EDGE('',*,*,#504,.F.);
#349=ORIENTED_EDGE('',*,*,#574,.T.);
#350=ORIENTED_EDGE('',*,*,#527,.F.);
#351=ORIENTED_EDGE('',*,*,#575,.F.);
#352=ORIENTED_EDGE('',*,*,#505,.F.);
#353=ORIENTED_EDGE('',*,*,#468,.F.);
#354=ORIENTED_EDGE('',*,*,#506,.F.);
#355=ORIENTED_EDGE('',*,*,#576,.F.);
#356=ORIENTED_EDGE('',*,*,#560,.F.);
#357=ORIENTED_EDGE('',*,*,#576,.T.);
#358=ORIENTED_EDGE('',*,*,#575,.T.);
#359=ORIENTED_EDGE('',*,*,#577,.F.);
#360=ORIENTED_EDGE('',*,*,#497,.F.);
#361=ORIENTED_EDGE('',*,*,#561,.F.);
#362=ORIENTED_EDGE('',*,*,#577,.T.);
#363=ORIENTED_EDGE('',*,*,#526,.F.);
#364=ORIENTED_EDGE('',*,*,#494,.F.);
#365=ORIENTED_EDGE('',*,*,#456,.F.);
#366=ORIENTED_EDGE('',*,*,#578,.F.);
#367=ORIENTED_EDGE('',*,*,#562,.F.);
#368=ORIENTED_EDGE('',*,*,#472,.F.);
#369=ORIENTED_EDGE('',*,*,#563,.F.);
#370=ORIENTED_EDGE('',*,*,#579,.F.);
#371=ORIENTED_EDGE('',*,*,#445,.F.);
#372=ORIENTED_EDGE('',*,*,#579,.T.);
#373=ORIENTED_EDGE('',*,*,#578,.T.);
#374=ORIENTED_EDGE('',*,*,#580,.F.);
#375=ORIENTED_EDGE('',*,*,#580,.T.);
#376=ORIENTED_EDGE('',*,*,#455,.F.);
#377=ORIENTED_EDGE('',*,*,#581,.F.);
#378=ORIENTED_EDGE('',*,*,#446,.F.);
#379=ORIENTED_EDGE('',*,*,#581,.T.);
#380=ORIENTED_EDGE('',*,*,#535,.F.);
#381=ORIENTED_EDGE('',*,*,#582,.F.);
#382=ORIENTED_EDGE('',*,*,#447,.F.);
#383=ORIENTED_EDGE('',*,*,#582,.T.);
#384=ORIENTED_EDGE('',*,*,#524,.F.);
#385=ORIENTED_EDGE('',*,*,#583,.F.);
#386=ORIENTED_EDGE('',*,*,#448,.F.);
#387=ORIENTED_EDGE('',*,*,#583,.T.);
#388=ORIENTED_EDGE('',*,*,#534,.F.);
#389=ORIENTED_EDGE('',*,*,#584,.F.);
#390=ORIENTED_EDGE('',*,*,#449,.F.);
#391=ORIENTED_EDGE('',*,*,#584,.T.);
#392=ORIENTED_EDGE('',*,*,#452,.F.);
#393=ORIENTED_EDGE('',*,*,#585,.F.);
#394=ORIENTED_EDGE('',*,*,#438,.F.);
#395=ORIENTED_EDGE('',*,*,#464,.F.);
#396=ORIENTED_EDGE('',*,*,#439,.F.);
#397=ORIENTED_EDGE('',*,*,#586,.F.);
#398=ORIENTED_EDGE('',*,*,#566,.F.);
#399=ORIENTED_EDGE('',*,*,#586,.T.);
#400=ORIENTED_EDGE('',*,*,#585,.T.);
#401=ORIENTED_EDGE('',*,*,#587,.F.);
#402=ORIENTED_EDGE('',*,*,#490,.F.);
#403=ORIENTED_EDGE('',*,*,#567,.F.);
#404=ORIENTED_EDGE('',*,*,#587,.T.);
#405=ORIENTED_EDGE('',*,*,#451,.F.);
#406=ORIENTED_EDGE('',*,*,#588,.F.);
#407=ORIENTED_EDGE('',*,*,#556,.F.);
#408=ORIENTED_EDGE('',*,*,#589,.F.);
#409=ORIENTED_EDGE('',*,*,#481,.F.);
#410=ORIENTED_EDGE('',*,*,#589,.T.);
#411=ORIENTED_EDGE('',*,*,#549,.F.);
#412=ORIENTED_EDGE('',*,*,#590,.F.);
#413=ORIENTED_EDGE('',*,*,#482,.F.);
#414=ORIENTED_EDGE('',*,*,#588,.T.);
#415=ORIENTED_EDGE('',*,*,#480,.F.);
#416=ORIENTED_EDGE('',*,*,#591,.F.);
#417=ORIENTED_EDGE('',*,*,#537,.F.);
#418=ORIENTED_EDGE('',*,*,#590,.T.);
#419=ORIENTED_EDGE('',*,*,#557,.F.);
#420=ORIENTED_EDGE('',*,*,#592,.F.);
#421=ORIENTED_EDGE('',*,*,#483,.F.);
#422=ORIENTED_EDGE('',*,*,#591,.T.);
#423=ORIENTED_EDGE('',*,*,#479,.F.);
#424=ORIENTED_EDGE('',*,*,#593,.F.);
#425=ORIENTED_EDGE('',*,*,#558,.F.);
#426=ORIENTED_EDGE('',*,*,#592,.T.);
#427=ORIENTED_EDGE('',*,*,#545,.F.);
#428=ORIENTED_EDGE('',*,*,#594,.F.);
#429=ORIENTED_EDGE('',*,*,#476,.F.);
#430=ORIENTED_EDGE('',*,*,#593,.T.);
#431=ORIENTED_EDGE('',*,*,#478,.F.);
#432=ORIENTED_EDGE('',*,*,#595,.F.);
#433=ORIENTED_EDGE('',*,*,#541,.F.);
#434=ORIENTED_EDGE('',*,*,#594,.T.);
#435=ORIENTED_EDGE('',*,*,#559,.F.);
#436=ORIENTED_EDGE('',*,*,#595,.T.);
#437=ORIENTED_EDGE('',*,*,#477,.F.);
#438=EDGE_CURVE('',#596,#597,#692,.T.);
#439=EDGE_CURVE('',#597,#598,#693,.T.);
#440=EDGE_CURVE('',#599,#598,#694,.T.);
#441=EDGE_CURVE('',#599,#600,#54,.T.);
#442=EDGE_CURVE('',#600,#601,#695,.T.);
#443=EDGE_CURVE('',#601,#602,#55,.T.);
#444=EDGE_CURVE('',#602,#603,#696,.T.);
#445=EDGE_CURVE('',#603,#604,#697,.F.);
#446=EDGE_CURVE('',#604,#605,#698,.F.);
#447=EDGE_CURVE('',#605,#606,#56,.F.);
#448=EDGE_CURVE('',#606,#607,#699,.F.);
#449=EDGE_CURVE('',#607,#596,#57,.F.);
#450=EDGE_CURVE('',#608,#609,#700,.T.);
#451=EDGE_CURVE('',#609,#610,#701,.T.);
#452=EDGE_CURVE('',#610,#611,#702,.F.);
#453=EDGE_CURVE('',#611,#608,#703,.F.);
#454=EDGE_CURVE('',#612,#613,#704,.T.);
#455=EDGE_CURVE('',#613,#614,#705,.T.);
#456=EDGE_CURVE('',#614,#615,#706,.F.);
#457=EDGE_CURVE('',#612,#615,#707,.T.);
#458=EDGE_CURVE('',#616,#617,#708,.T.);
#459=EDGE_CURVE('',#617,#618,#58,.T.);
#460=EDGE_CURVE('',#618,#619,#709,.T.);
#461=EDGE_CURVE('',#619,#620,#710,.T.);
#462=EDGE_CURVE('',#621,#620,#711,.T.);
#463=EDGE_CURVE('',#621,#599,#712,.F.);
#464=EDGE_CURVE('',#598,#622,#59,.T.);
#465=EDGE_CURVE('',#623,#622,#713,.T.);
#466=EDGE_CURVE('',#616,#623,#714,.T.);
#467=EDGE_CURVE('',#624,#625,#715,.T.);
#468=EDGE_CURVE('',#624,#626,#60,.F.);
#469=EDGE_CURVE('',#627,#626,#716,.T.);
#470=EDGE_CURVE('',#627,#628,#717,.T.);
#471=EDGE_CURVE('',#628,#629,#718,.T.);
#472=EDGE_CURVE('',#629,#603,#61,.F.);
#473=EDGE_CURVE('',#602,#630,#719,.T.);
#474=EDGE_CURVE('',#630,#631,#720,.T.);
#475=EDGE_CURVE('',#631,#625,#721,.F.);
#476=EDGE_CURVE('',#632,#633,#722,.F.);
#477=EDGE_CURVE('',#633,#634,#62,.F.);
#478=EDGE_CURVE('',#634,#635,#723,.F.);
#479=EDGE_CURVE('',#635,#636,#63,.F.);
#480=EDGE_CURVE('',#636,#637,#724,.T.);
#481=EDGE_CURVE('',#637,#638,#64,.F.);
#482=EDGE_CURVE('',#638,#639,#725,.T.);
#483=EDGE_CURVE('',#639,#632,#65,.F.);
#484=EDGE_CURVE('',#640,#641,#726,.T.);
#485=EDGE_CURVE('',#640,#642,#66,.T.);
#486=EDGE_CURVE('',#643,#642,#727,.T.);
#487=EDGE_CURVE('',#643,#644,#67,.F.);
#488=EDGE_CURVE('',#616,#644,#728,.T.);
#489=EDGE_CURVE('',#623,#645,#729,.T.);
#490=EDGE_CURVE('',#645,#609,#68,.F.);
#491=EDGE_CURVE('',#608,#646,#69,.T.);
#492=EDGE_CURVE('',#646,#647,#730,.T.);
#493=EDGE_CURVE('',#647,#612,#70,.T.);
#494=EDGE_CURVE('',#615,#648,#71,.F.);
#495=EDGE_CURVE('',#628,#648,#731,.T.);
#496=EDGE_CURVE('',#627,#649,#732,.T.);
#497=EDGE_CURVE('',#649,#650,#72,.F.);
#498=EDGE_CURVE('',#650,#651,#733,.T.);
#499=EDGE_CURVE('',#651,#641,#73,.T.);
#500=EDGE_CURVE('',#618,#652,#734,.F.);
#501=EDGE_CURVE('',#652,#653,#735,.T.);
#502=EDGE_CURVE('',#653,#654,#74,.F.);
#503=EDGE_CURVE('',#654,#655,#736,.T.);
#504=EDGE_CURVE('',#655,#656,#75,.F.);
#505=EDGE_CURVE('',#656,#657,#737,.F.);
#506=EDGE_CURVE('',#657,#624,#738,.T.);
#507=EDGE_CURVE('',#625,#658,#76,.T.);
#508=EDGE_CURVE('',#659,#658,#739,.T.);
#509=EDGE_CURVE('',#659,#619,#77,.T.);
#510=EDGE_CURVE('',#600,#660,#740,.T.);
#511=EDGE_CURVE('',#660,#661,#741,.T.);
#512=EDGE_CURVE('',#661,#601,#742,.F.);
#513=EDGE_CURVE('',#662,#663,#743,.T.);
#514=EDGE_CURVE('',#662,#659,#744,.F.);
#515=EDGE_CURVE('',#658,#663,#745,.T.);
#516=EDGE_CURVE('',#620,#662,#78,.F.);
#517=EDGE_CURVE('',#663,#631,#79,.F.);
#518=EDGE_CURVE('',#630,#661,#80,.F.);
#519=EDGE_CURVE('',#660,#621,#81,.F.);
#520=EDGE_CURVE('',#642,#664,#746,.T.);
#521=EDGE_CURVE('',#664,#665,#747,.F.);
#522=EDGE_CURVE('',#665,#643,#748,.F.);
#523=EDGE_CURVE('',#646,#666,#749,.T.);
#524=EDGE_CURVE('',#666,#667,#750,.T.);
#525=EDGE_CURVE('',#667,#647,#751,.F.);
#526=EDGE_CURVE('',#650,#668,#752,.T.);
#527=EDGE_CURVE('',#668,#669,#753,.T.);
#528=EDGE_CURVE('',#669,#651,#754,.F.);
#529=EDGE_CURVE('',#641,#670,#755,.T.);
#530=EDGE_CURVE('',#670,#671,#756,.F.);
#531=EDGE_CURVE('',#671,#640,#757,.F.);
#532=EDGE_CURVE('',#671,#664,#82,.T.);
#533=EDGE_CURVE('',#669,#670,#83,.T.);
#534=EDGE_CURVE('',#611,#666,#84,.T.);
#535=EDGE_CURVE('',#667,#613,#85,.T.);
#536=EDGE_CURVE('',#672,#673,#758,.T.);
#537=EDGE_CURVE('',#673,#674,#759,.F.);
#538=EDGE_CURVE('',#674,#675,#760,.F.);
#539=EDGE_CURVE('',#675,#672,#761,.T.);
#540=EDGE_CURVE('',#676,#677,#762,.T.);
#541=EDGE_CURVE('',#677,#678,#763,.T.);
#542=EDGE_CURVE('',#678,#679,#764,.F.);
#543=EDGE_CURVE('',#676,#679,#765,.T.);
#544=EDGE_CURVE('',#680,#681,#766,.T.);
#545=EDGE_CURVE('',#681,#682,#767,.T.);
#546=EDGE_CURVE('',#682,#683,#768,.F.);
#547=EDGE_CURVE('',#680,#683,#769,.T.);
#548=EDGE_CURVE('',#684,#685,#770,.T.);
#549=EDGE_CURVE('',#685,#686,#771,.F.);
#550=EDGE_CURVE('',#686,#687,#772,.F.);
#551=EDGE_CURVE('',#687,#684,#773,.T.);
#552=EDGE_CURVE('',#687,#672,#86,.T.);
#553=EDGE_CURVE('',#675,#676,#87,.T.);
#554=EDGE_CURVE('',#679,#680,#88,.T.);
#555=EDGE_CURVE('',#683,#684,#89,.T.);
#556=EDGE_CURVE('',#686,#673,#90,.T.);
#557=EDGE_CURVE('',#682,#685,#91,.T.);
#558=EDGE_CURVE('',#674,#677,#92,.T.);
#559=EDGE_CURVE('',#678,#681,#93,.T.);
#560=EDGE_CURVE('',#626,#688,#774,.F.);
#561=EDGE_CURVE('',#688,#649,#775,.F.);
#562=EDGE_CURVE('',#648,#689,#776,.T.);
#563=EDGE_CURVE('',#689,#629,#777,.T.);
#564=EDGE_CURVE('',#644,#690,#778,.T.);
#565=EDGE_CURVE('',#690,#617,#779,.T.);
#566=EDGE_CURVE('',#622,#691,#780,.F.);
#567=EDGE_CURVE('',#691,#645,#781,.F.);
#568=EDGE_CURVE('',#690,#665,#94,.T.);
#569=EDGE_CURVE('',#652,#690,#95,.T.);
#570=EDGE_CURVE('',#652,#665,#96,.F.);
#571=EDGE_CURVE('',#653,#664,#97,.T.);
#572=EDGE_CURVE('',#654,#671,#98,.T.);
#573=EDGE_CURVE('',#655,#670,#99,.T.);
#574=EDGE_CURVE('',#656,#669,#100,.T.);
#575=EDGE_CURVE('',#657,#668,#101,.T.);
#576=EDGE_CURVE('',#688,#657,#102,.T.);
#577=EDGE_CURVE('',#688,#668,#103,.F.);
#578=EDGE_CURVE('',#689,#614,#104,.T.);
#579=EDGE_CURVE('',#604,#689,#105,.T.);
#580=EDGE_CURVE('',#604,#614,#106,.F.);
#581=EDGE_CURVE('',#605,#613,#107,.T.);
#582=EDGE_CURVE('',#606,#667,#108,.T.);
#583=EDGE_CURVE('',#607,#666,#109,.T.);
#584=EDGE_CURVE('',#596,#611,#110,.T.);
#585=EDGE_CURVE('',#597,#610,#111,.T.);
#586=EDGE_CURVE('',#691,#597,#112,.T.);
#587=EDGE_CURVE('',#691,#610,#113,.F.);
#588=EDGE_CURVE('',#673,#637,#114,.T.);
#589=EDGE_CURVE('',#638,#686,#115,.T.);
#590=EDGE_CURVE('',#639,#685,#116,.T.);
#591=EDGE_CURVE('',#674,#636,#117,.T.);
#592=EDGE_CURVE('',#632,#682,#118,.T.);
#593=EDGE_CURVE('',#677,#635,#119,.T.);
#594=EDGE_CURVE('',#633,#681,#120,.T.);
#595=EDGE_CURVE('',#678,#634,#121,.T.);
#596=VERTEX_POINT('',#1599);
#597=VERTEX_POINT('',#1600);
#598=VERTEX_POINT('',#1602);
#599=VERTEX_POINT('',#1604);
#600=VERTEX_POINT('',#1606);
#601=VERTEX_POINT('',#1608);
#602=VERTEX_POINT('',#1610);
#603=VERTEX_POINT('',#1612);
#604=VERTEX_POINT('',#1614);
#605=VERTEX_POINT('',#1616);
#606=VERTEX_POINT('',#1618);
#607=VERTEX_POINT('',#1620);
#608=VERTEX_POINT('',#1624);
#609=VERTEX_POINT('',#1625);
#610=VERTEX_POINT('',#1627);
#611=VERTEX_POINT('',#1629);
#612=VERTEX_POINT('',#1633);
#613=VERTEX_POINT('',#1634);
#614=VERTEX_POINT('',#1636);
#615=VERTEX_POINT('',#1638);
#616=VERTEX_POINT('',#1642);
#617=VERTEX_POINT('',#1643);
#618=VERTEX_POINT('',#1645);
#619=VERTEX_POINT('',#1647);
#620=VERTEX_POINT('',#1649);
#621=VERTEX_POINT('',#1651);
#622=VERTEX_POINT('',#1654);
#623=VERTEX_POINT('',#1656);
#624=VERTEX_POINT('',#1660);
#625=VERTEX_POINT('',#1661);
#626=VERTEX_POINT('',#1663);
#627=VERTEX_POINT('',#1665);
#628=VERTEX_POINT('',#1667);
#629=VERTEX_POINT('',#1669);
#630=VERTEX_POINT('',#1672);
#631=VERTEX_POINT('',#1674);
#632=VERTEX_POINT('',#1678);
#633=VERTEX_POINT('',#1679);
#634=VERTEX_POINT('',#1681);
#635=VERTEX_POINT('',#1683);
#636=VERTEX_POINT('',#1685);
#637=VERTEX_POINT('',#1687);
#638=VERTEX_POINT('',#1689);
#639=VERTEX_POINT('',#1691);
#640=VERTEX_POINT('',#1694);
#641=VERTEX_POINT('',#1695);
#642=VERTEX_POINT('',#1697);
#643=VERTEX_POINT('',#1699);
#644=VERTEX_POINT('',#1701);
#645=VERTEX_POINT('',#1704);
#646=VERTEX_POINT('',#1707);
#647=VERTEX_POINT('',#1709);
#648=VERTEX_POINT('',#1712);
#649=VERTEX_POINT('',#1715);
#650=VERTEX_POINT('',#1717);
#651=VERTEX_POINT('',#1719);
#652=VERTEX_POINT('',#1723);
#653=VERTEX_POINT('',#1725);
#654=VERTEX_POINT('',#1727);
#655=VERTEX_POINT('',#1729);
#656=VERTEX_POINT('',#1731);
#657=VERTEX_POINT('',#1733);
#658=VERTEX_POINT('',#1736);
#659=VERTEX_POINT('',#1738);
#660=VERTEX_POINT('',#1742);
#661=VERTEX_POINT('',#1744);
#662=VERTEX_POINT('',#1748);
#663=VERTEX_POINT('',#1749);
#664=VERTEX_POINT('',#1759);
#665=VERTEX_POINT('',#1761);
#666=VERTEX_POINT('',#1765);
#667=VERTEX_POINT('',#1767);
#668=VERTEX_POINT('',#1771);
#669=VERTEX_POINT('',#1773);
#670=VERTEX_POINT('',#1777);
#671=VERTEX_POINT('',#1779);
#672=VERTEX_POINT('',#1791);
#673=VERTEX_POINT('',#1792);
#674=VERTEX_POINT('',#1794);
#675=VERTEX_POINT('',#1796);
#676=VERTEX_POINT('',#1800);
#677=VERTEX_POINT('',#1801);
#678=VERTEX_POINT('',#1803);
#679=VERTEX_POINT('',#1805);
#680=VERTEX_POINT('',#1809);
#681=VERTEX_POINT('',#1810);
#682=VERTEX_POINT('',#1812);
#683=VERTEX_POINT('',#1814);
#684=VERTEX_POINT('',#1818);
#685=VERTEX_POINT('',#1819);
#686=VERTEX_POINT('',#1821);
#687=VERTEX_POINT('',#1823);
#688=VERTEX_POINT('',#1840);
#689=VERTEX_POINT('',#1844);
#690=VERTEX_POINT('',#1848);
#691=VERTEX_POINT('',#1852);
#692=LINE('',#1598,#782);
#693=LINE('',#1601,#783);
#694=LINE('',#1603,#784);
#695=LINE('',#1607,#785);
#696=LINE('',#1611,#786);
#697=LINE('',#1613,#787);
#698=LINE('',#1615,#788);
#699=LINE('',#1619,#789);
#700=LINE('',#1623,#790);
#701=LINE('',#1626,#791);
#702=LINE('',#1628,#792);
#703=LINE('',#1630,#793);
#704=LINE('',#1632,#794);
#705=LINE('',#1635,#795);
#706=LINE('',#1637,#796);
#707=LINE('',#1639,#797);
#708=LINE('',#1641,#798);
#709=LINE('',#1646,#799);
#710=LINE('',#1648,#800);
#711=LINE('',#1650,#801);
#712=LINE('',#1652,#802);
#713=LINE('',#1655,#803);
#714=LINE('',#1657,#804);
#715=LINE('',#1659,#805);
#716=LINE('',#1664,#806);
#717=LINE('',#1666,#807);
#718=LINE('',#1668,#808);
#719=LINE('',#1671,#809);
#720=LINE('',#1673,#810);
#721=LINE('',#1675,#811);
#722=LINE('',#1677,#812);
#723=LINE('',#1682,#813);
#724=LINE('',#1686,#814);
#725=LINE('',#1690,#815);
#726=LINE('',#1693,#816);
#727=LINE('',#1698,#817);
#728=LINE('',#1702,#818);
#729=LINE('',#1703,#819);
#730=LINE('',#1708,#820);
#731=LINE('',#1713,#821);
#732=LINE('',#1714,#822);
#733=LINE('',#1718,#823);
#734=LINE('',#1722,#824);
#735=LINE('',#1724,#825);
#736=LINE('',#1728,#826);
#737=LINE('',#1732,#827);
#738=LINE('',#1734,#828);
#739=LINE('',#1737,#829);
#740=LINE('',#1741,#830);
#741=LINE('',#1743,#831);
#742=LINE('',#1745,#832);
#743=LINE('',#1747,#833);
#744=LINE('',#1750,#834);
#745=LINE('',#1751,#835);
#746=LINE('',#1758,#836);
#747=LINE('',#1760,#837);
#748=LINE('',#1762,#838);
#749=LINE('',#1764,#839);
#750=LINE('',#1766,#840);
#751=LINE('',#1768,#841);
#752=LINE('',#1770,#842);
#753=LINE('',#1772,#843);
#754=LINE('',#1774,#844);
#755=LINE('',#1776,#845);
#756=LINE('',#1778,#846);
#757=LINE('',#1780,#847);
#758=LINE('',#1790,#848);
#759=LINE('',#1793,#849);
#760=LINE('',#1795,#850);
#761=LINE('',#1797,#851);
#762=LINE('',#1799,#852);
#763=LINE('',#1802,#853);
#764=LINE('',#1804,#854);
#765=LINE('',#1806,#855);
#766=LINE('',#1808,#856);
#767=LINE('',#1811,#857);
#768=LINE('',#1813,#858);
#769=LINE('',#1815,#859);
#770=LINE('',#1817,#860);
#771=LINE('',#1820,#861);
#772=LINE('',#1822,#862);
#773=LINE('',#1824,#863);
#774=LINE('',#1839,#864);
#775=LINE('',#1841,#865);
#776=LINE('',#1843,#866);
#777=LINE('',#1845,#867);
#778=LINE('',#1847,#868);
#779=LINE('',#1849,#869);
#780=LINE('',#1851,#870);
#781=LINE('',#1853,#871);
#782=VECTOR('',#1242,1.);
#783=VECTOR('',#1243,1.);
#784=VECTOR('',#1244,1.);
#785=VECTOR('',#1247,1.);
#786=VECTOR('',#1250,1.);
#787=VECTOR('',#1251,1.);
#788=VECTOR('',#1252,1.);
#789=VECTOR('',#1255,1.);
#790=VECTOR('',#1260,1.);
#791=VECTOR('',#1261,1.);
#792=VECTOR('',#1262,1.);
#793=VECTOR('',#1263,1.);
#794=VECTOR('',#1266,1.);
#795=VECTOR('',#1267,1.);
#796=VECTOR('',#1268,1.);
#797=VECTOR('',#1269,1.);
#798=VECTOR('',#1272,1.);
#799=VECTOR('',#1275,1.);
#800=VECTOR('',#1276,1.);
#801=VECTOR('',#1277,1.);
#802=VECTOR('',#1278,1.);
#803=VECTOR('',#1281,1.);
#804=VECTOR('',#1282,1.);
#805=VECTOR('',#1285,1.);
#806=VECTOR('',#1288,1.);
#807=VECTOR('',#1289,1.);
#808=VECTOR('',#1290,1.);
#809=VECTOR('',#1293,1.);
#810=VECTOR('',#1294,1.);
#811=VECTOR('',#1295,1.);
#812=VECTOR('',#1298,1.);
#813=VECTOR('',#1301,1.);
#814=VECTOR('',#1304,1.);
#815=VECTOR('',#1307,1.);
#816=VECTOR('',#1310,1.);
#817=VECTOR('',#1313,1.);
#818=VECTOR('',#1316,1.);
#819=VECTOR('',#1317,1.);
#820=VECTOR('',#1322,1.);
#821=VECTOR('',#1327,1.);
#822=VECTOR('',#1328,1.);
#823=VECTOR('',#1331,1.);
#824=VECTOR('',#1336,1.);
#825=VECTOR('',#1337,1.);
#826=VECTOR('',#1340,1.);
#827=VECTOR('',#1343,1.);
#828=VECTOR('',#1344,1.);
#829=VECTOR('',#1347,1.);
#830=VECTOR('',#1352,1.);
#831=VECTOR('',#1353,1.);
#832=VECTOR('',#1354,1.);
#833=VECTOR('',#1357,1.);
#834=VECTOR('',#1358,1.);
#835=VECTOR('',#1359,1.);
#836=VECTOR('',#1372,1.);
#837=VECTOR('',#1373,1.);
#838=VECTOR('',#1374,1.);
#839=VECTOR('',#1377,1.);
#840=VECTOR('',#1378,1.);
#841=VECTOR('',#1379,1.);
#842=VECTOR('',#1382,1.);
#843=VECTOR('',#1383,1.);
#844=VECTOR('',#1384,1.);
#845=VECTOR('',#1387,1.);
#846=VECTOR('',#1388,1.);
#847=VECTOR('',#1389,1.);
#848=VECTOR('',#1408,1.);
#849=VECTOR('',#1409,1.);
#850=VECTOR('',#1410,1.);
#851=VECTOR('',#1411,1.);
#852=VECTOR('',#1414,1.);
#853=VECTOR('',#1415,1.);
#854=VECTOR('',#1416,1.);
#855=VECTOR('',#1417,1.);
#856=VECTOR('',#1420,1.);
#857=VECTOR('',#1421,1.);
#858=VECTOR('',#1422,1.);
#859=VECTOR('',#1423,1.);
#860=VECTOR('',#1426,1.);
#861=VECTOR('',#1427,1.);
#862=VECTOR('',#1428,1.);
#863=VECTOR('',#1429,1.);
#864=VECTOR('',#1458,1.);
#865=VECTOR('',#1459,1.);
#866=VECTOR('',#1462,1.);
#867=VECTOR('',#1463,1.);
#868=VECTOR('',#1466,1.);
#869=VECTOR('',#1467,1.);
#870=VECTOR('',#1470,1.);
#871=VECTOR('',#1471,1.);
#872=EDGE_LOOP('',(#122,#123,#124,#125,#126,#127,#128,#129,#130,#131,#132,
#133));
#873=EDGE_LOOP('',(#134,#135,#136,#137));
#874=EDGE_LOOP('',(#138,#139,#140,#141));
#875=EDGE_LOOP('',(#142,#143,#144,#145,#146,#147,#148,#149,#150,#151));
#876=EDGE_LOOP('',(#152,#153,#154,#155,#156,#157,#158,#159,#160,#161));
#877=EDGE_LOOP('',(#162,#163,#164,#165,#166,#167,#168,#169));
#878=EDGE_LOOP('',(#170,#171,#172,#173,#174,#175,#176,#177,#178,#179,#180,
#181,#182,#183,#184,#185,#186,#187,#188,#189));
#879=EDGE_LOOP('',(#190,#191,#192,#193,#194,#195,#196,#197,#198,#199,#200,
#201));
#880=EDGE_LOOP('',(#202,#203,#204,#205));
#881=EDGE_LOOP('',(#206,#207,#208,#209));
#882=EDGE_LOOP('',(#210,#211,#212,#213,#214,#215,#216,#217));
#883=EDGE_LOOP('',(#218,#219,#220,#221));
#884=EDGE_LOOP('',(#222,#223,#224,#225));
#885=EDGE_LOOP('',(#226,#227,#228,#229));
#886=EDGE_LOOP('',(#230,#231,#232,#233));
#887=EDGE_LOOP('',(#234,#235,#236,#237));
#888=EDGE_LOOP('',(#238,#239,#240,#241));
#889=EDGE_LOOP('',(#242,#243,#244,#245));
#890=EDGE_LOOP('',(#246,#247,#248,#249));
#891=EDGE_LOOP('',(#250,#251,#252,#253));
#892=EDGE_LOOP('',(#254,#255,#256,#257));
#893=EDGE_LOOP('',(#258,#259,#260,#261));
#894=EDGE_LOOP('',(#262,#263,#264,#265));
#895=EDGE_LOOP('',(#266,#267,#268,#269,#270,#271,#272,#273));
#896=EDGE_LOOP('',(#274,#275,#276,#277));
#897=EDGE_LOOP('',(#278,#279,#280,#281));
#898=EDGE_LOOP('',(#282,#283,#284,#285));
#899=EDGE_LOOP('',(#286,#287,#288,#289));
#900=EDGE_LOOP('',(#290,#291,#292,#293));
#901=EDGE_LOOP('',(#294,#295,#296,#297));
#902=EDGE_LOOP('',(#298,#299,#300,#301));
#903=EDGE_LOOP('',(#302,#303,#304,#305));
#904=EDGE_LOOP('',(#306,#307,#308,#309));
#905=EDGE_LOOP('',(#310,#311,#312,#313));
#906=EDGE_LOOP('',(#314,#315,#316,#317));
#907=EDGE_LOOP('',(#318,#319,#320,#321));
#908=EDGE_LOOP('',(#322,#323,#324,#325));
#909=EDGE_LOOP('',(#326,#327,#328,#329));
#910=EDGE_LOOP('',(#330,#331,#332));
#911=EDGE_LOOP('',(#333,#334,#335,#336));
#912=EDGE_LOOP('',(#337,#338,#339,#340));
#913=EDGE_LOOP('',(#341,#342,#343,#344));
#914=EDGE_LOOP('',(#345,#346,#347,#348));
#915=EDGE_LOOP('',(#349,#350,#351,#352));
#916=EDGE_LOOP('',(#353,#354,#355,#356));
#917=EDGE_LOOP('',(#357,#358,#359));
#918=EDGE_LOOP('',(#360,#361,#362,#363));
#919=EDGE_LOOP('',(#364,#365,#366,#367));
#920=EDGE_LOOP('',(#368,#369,#370,#371));
#921=EDGE_LOOP('',(#372,#373,#374));
#922=EDGE_LOOP('',(#375,#376,#377,#378));
#923=EDGE_LOOP('',(#379,#380,#381,#382));
#924=EDGE_LOOP('',(#383,#384,#385,#386));
#925=EDGE_LOOP('',(#387,#388,#389,#390));
#926=EDGE_LOOP('',(#391,#392,#393,#394));
#927=EDGE_LOOP('',(#395,#396,#397,#398));
#928=EDGE_LOOP('',(#399,#400,#401));
#929=EDGE_LOOP('',(#402,#403,#404,#405));
#930=EDGE_LOOP('',(#406,#407,#408,#409));
#931=EDGE_LOOP('',(#410,#411,#412,#413));
#932=EDGE_LOOP('',(#414,#415,#416,#417));
#933=EDGE_LOOP('',(#418,#419,#420,#421));
#934=EDGE_LOOP('',(#422,#423,#424,#425));
#935=EDGE_LOOP('',(#426,#427,#428,#429));
#936=EDGE_LOOP('',(#430,#431,#432,#433));
#937=EDGE_LOOP('',(#434,#435,#436,#437));
#938=FACE_BOUND('',#872,.T.);
#939=FACE_BOUND('',#873,.T.);
#940=FACE_BOUND('',#874,.T.);
#941=FACE_BOUND('',#875,.T.);
#942=FACE_BOUND('',#876,.T.);
#943=FACE_BOUND('',#877,.T.);
#944=FACE_BOUND('',#878,.T.);
#945=FACE_BOUND('',#879,.T.);
#946=FACE_BOUND('',#880,.T.);
#947=FACE_BOUND('',#881,.T.);
#948=FACE_BOUND('',#882,.T.);
#949=FACE_BOUND('',#883,.T.);
#950=FACE_BOUND('',#884,.T.);
#951=FACE_BOUND('',#885,.T.);
#952=FACE_BOUND('',#886,.T.);
#953=FACE_BOUND('',#887,.T.);
#954=FACE_BOUND('',#888,.T.);
#955=FACE_BOUND('',#889,.T.);
#956=FACE_BOUND('',#890,.T.);
#957=FACE_BOUND('',#891,.T.);
#958=FACE_BOUND('',#892,.T.);
#959=FACE_BOUND('',#893,.T.);
#960=FACE_BOUND('',#894,.T.);
#961=FACE_BOUND('',#895,.T.);
#962=FACE_BOUND('',#896,.T.);
#963=FACE_BOUND('',#897,.T.);
#964=FACE_BOUND('',#898,.T.);
#965=FACE_BOUND('',#899,.T.);
#966=FACE_BOUND('',#900,.T.);
#967=FACE_BOUND('',#901,.T.);
#968=FACE_BOUND('',#902,.T.);
#969=FACE_BOUND('',#903,.T.);
#970=FACE_BOUND('',#904,.T.);
#971=FACE_BOUND('',#905,.T.);
#972=FACE_BOUND('',#906,.T.);
#973=FACE_BOUND('',#907,.T.);
#974=FACE_BOUND('',#908,.T.);
#975=FACE_BOUND('',#909,.T.);
#976=FACE_BOUND('',#910,.T.);
#977=FACE_BOUND('',#911,.T.);
#978=FACE_BOUND('',#912,.T.);
#979=FACE_BOUND('',#913,.T.);
#980=FACE_BOUND('',#914,.T.);
#981=FACE_BOUND('',#915,.T.);
#982=FACE_BOUND('',#916,.T.);
#983=FACE_BOUND('',#917,.T.);
#984=FACE_BOUND('',#918,.T.);
#985=FACE_BOUND('',#919,.T.);
#986=FACE_BOUND('',#920,.T.);
#987=FACE_BOUND('',#921,.T.);
#988=FACE_BOUND('',#922,.T.);
#989=FACE_BOUND('',#923,.T.);
#990=FACE_BOUND('',#924,.T.);
#991=FACE_BOUND('',#925,.T.);
#992=FACE_BOUND('',#926,.T.);
#993=FACE_BOUND('',#927,.T.);
#994=FACE_BOUND('',#928,.T.);
#995=FACE_BOUND('',#929,.T.);
#996=FACE_BOUND('',#930,.T.);
#997=FACE_BOUND('',#931,.T.);
#998=FACE_BOUND('',#932,.T.);
#999=FACE_BOUND('',#933,.T.);
#1000=FACE_BOUND('',#934,.T.);
#1001=FACE_BOUND('',#935,.T.);
#1002=FACE_BOUND('',#936,.T.);
#1003=FACE_BOUND('',#937,.T.);
#1004=PLANE('',#1105);
#1005=PLANE('',#1110);
#1006=PLANE('',#1111);
#1007=PLANE('',#1112);
#1008=PLANE('',#1115);
#1009=PLANE('',#1118);
#1010=PLANE('',#1131);
#1011=PLANE('',#1136);
#1012=PLANE('',#1137);
#1013=PLANE('',#1138);
#1014=PLANE('',#1143);
#1015=PLANE('',#1144);
#1016=PLANE('',#1145);
#1017=PLANE('',#1146);
#1018=PLANE('',#1155);
#1019=PLANE('',#1156);
#1020=PLANE('',#1157);
#1021=PLANE('',#1158);
#1022=PLANE('',#1159);
#1023=PLANE('',#1172);
#1024=PLANE('',#1173);
#1025=PLANE('',#1174);
#1026=PLANE('',#1175);
#1027=ADVANCED_FACE('',(#938),#1004,.T.);
#1028=ADVANCED_FACE('',(#939),#1005,.T.);
#1029=ADVANCED_FACE('',(#940),#1006,.F.);
#1030=ADVANCED_FACE('',(#941),#1007,.T.);
#1031=ADVANCED_FACE('',(#942),#1008,.F.);
#1032=ADVANCED_FACE('',(#943,#944),#1009,.T.);
#1033=ADVANCED_FACE('',(#945),#1010,.T.);
#1034=ADVANCED_FACE('',(#946),#1011,.F.);
#1035=ADVANCED_FACE('',(#947),#1012,.T.);
#1036=ADVANCED_FACE('',(#948),#1013,.F.);
#1037=ADVANCED_FACE('',(#949),#1014,.T.);
#1038=ADVANCED_FACE('',(#950),#1015,.F.);
#1039=ADVANCED_FACE('',(#951),#1016,.F.);
#1040=ADVANCED_FACE('',(#952),#1017,.T.);
#1041=ADVANCED_FACE('',(#953),#24,.F.);
#1042=ADVANCED_FACE('',(#954),#25,.F.);
#1043=ADVANCED_FACE('',(#955),#26,.F.);
#1044=ADVANCED_FACE('',(#956),#27,.F.);
#1045=ADVANCED_FACE('',(#957),#1018,.T.);
#1046=ADVANCED_FACE('',(#958),#1019,.F.);
#1047=ADVANCED_FACE('',(#959),#1020,.F.);
#1048=ADVANCED_FACE('',(#960),#1021,.T.);
#1049=ADVANCED_FACE('',(#961),#1022,.T.);
#1050=ADVANCED_FACE('',(#962),#28,.F.);
#1051=ADVANCED_FACE('',(#963),#29,.F.);
#1052=ADVANCED_FACE('',(#964),#30,.F.);
#1053=ADVANCED_FACE('',(#965),#31,.F.);
#1054=ADVANCED_FACE('',(#966),#1023,.T.);
#1055=ADVANCED_FACE('',(#967),#1024,.F.);
#1056=ADVANCED_FACE('',(#968),#1025,.F.);
#1057=ADVANCED_FACE('',(#969),#1026,.T.);
#1058=ADVANCED_FACE('',(#970),#32,.T.);
#1059=ADVANCED_FACE('',(#971),#33,.T.);
#1060=ADVANCED_FACE('',(#972),#34,.T.);
#1061=ADVANCED_FACE('',(#973),#35,.T.);
#1062=ADVANCED_FACE('',(#974),#36,.T.);
#1063=ADVANCED_FACE('',(#975),#37,.T.);
#1064=ADVANCED_FACE('',(#976),#20,.T.);
#1065=ADVANCED_FACE('',(#977),#38,.T.);
#1066=ADVANCED_FACE('',(#978),#12,.T.);
#1067=ADVANCED_FACE('',(#979),#39,.T.);
#1068=ADVANCED_FACE('',(#980),#13,.T.);
#1069=ADVANCED_FACE('',(#981),#40,.T.);
#1070=ADVANCED_FACE('',(#982),#41,.T.);
#1071=ADVANCED_FACE('',(#983),#21,.T.);
#1072=ADVANCED_FACE('',(#984),#42,.T.);
#1073=ADVANCED_FACE('',(#985),#43,.T.);
#1074=ADVANCED_FACE('',(#986),#44,.T.);
#1075=ADVANCED_FACE('',(#987),#22,.T.);
#1076=ADVANCED_FACE('',(#988),#45,.T.);
#1077=ADVANCED_FACE('',(#989),#14,.T.);
#1078=ADVANCED_FACE('',(#990),#46,.T.);
#1079=ADVANCED_FACE('',(#991),#15,.T.);
#1080=ADVANCED_FACE('',(#992),#47,.T.);
#1081=ADVANCED_FACE('',(#993),#48,.T.);
#1082=ADVANCED_FACE('',(#994),#23,.T.);
#1083=ADVANCED_FACE('',(#995),#49,.T.);
#1084=ADVANCED_FACE('',(#996),#16,.T.);
#1085=ADVANCED_FACE('',(#997),#50,.T.);
#1086=ADVANCED_FACE('',(#998),#51,.T.);
#1087=ADVANCED_FACE('',(#999),#17,.T.);
#1088=ADVANCED_FACE('',(#1000),#18,.T.);
#1089=ADVANCED_FACE('',(#1001),#52,.T.);
#1090=ADVANCED_FACE('',(#1002),#53,.T.);
#1091=ADVANCED_FACE('',(#1003),#19,.T.);
#1092=CLOSED_SHELL('',(#1027,#1028,#1029,#1030,#1031,#1032,#1033,#1034,
#1035,#1036,#1037,#1038,#1039,#1040,#1041,#1042,#1043,#1044,#1045,#1046,
#1047,#1048,#1049,#1050,#1051,#1052,#1053,#1054,#1055,#1056,#1057,#1058,
#1059,#1060,#1061,#1062,#1063,#1064,#1065,#1066,#1067,#1068,#1069,#1070,
#1071,#1072,#1073,#1074,#1075,#1076,#1077,#1078,#1079,#1080,#1081,#1082,
#1083,#1084,#1085,#1086,#1087,#1088,#1089,#1090,#1091));
#1093=STYLED_ITEM('',(#1094),#1101);
#1094=PRESENTATION_STYLE_ASSIGNMENT((#1095));
#1095=SURFACE_STYLE_USAGE(.BOTH.,#1096);
#1096=SURFACE_SIDE_STYLE('',(#1097));
#1097=SURFACE_STYLE_FILL_AREA(#1098);
#1098=FILL_AREA_STYLE('',(#1099));
#1099=FILL_AREA_STYLE_COLOUR('',#1100);
#1100=COLOUR_RGB('',0.615686274509804,0.811764705882353,0.929411764705882);
#1101=MANIFOLD_SOLID_BREP('Part 1',#1092);
#1102=SHAPE_DEFINITION_REPRESENTATION(#1922,#1103);
#1103=SHAPE_REPRESENTATION('Part 1',(#1104),#1917);
#1104=AXIS2_PLACEMENT_3D('',#1596,#1238,#1239);
#1105=AXIS2_PLACEMENT_3D('',#1597,#1240,#1241);
#1106=AXIS2_PLACEMENT_3D('',#1605,#1245,#1246);
#1107=AXIS2_PLACEMENT_3D('',#1609,#1248,#1249);
#1108=AXIS2_PLACEMENT_3D('',#1617,#1253,#1254);
#1109=AXIS2_PLACEMENT_3D('',#1621,#1256,#1257);
#1110=AXIS2_PLACEMENT_3D('',#1622,#1258,#1259);
#1111=AXIS2_PLACEMENT_3D('',#1631,#1264,#1265);
#1112=AXIS2_PLACEMENT_3D('',#1640,#1270,#1271);
#1113=AXIS2_PLACEMENT_3D('',#1644,#1273,#1274);
#1114=AXIS2_PLACEMENT_3D('',#1653,#1279,#1280);
#1115=AXIS2_PLACEMENT_3D('',#1658,#1283,#1284);
#1116=AXIS2_PLACEMENT_3D('',#1662,#1286,#1287);
#1117=AXIS2_PLACEMENT_3D('',#1670,#1291,#1292);
#1118=AXIS2_PLACEMENT_3D('',#1676,#1296,#1297);
#1119=AXIS2_PLACEMENT_3D('',#1680,#1299,#1300);
#1120=AXIS2_PLACEMENT_3D('',#1684,#1302,#1303);
#1121=AXIS2_PLACEMENT_3D('',#1688,#1305,#1306);
#1122=AXIS2_PLACEMENT_3D('',#1692,#1308,#1309);
#1123=AXIS2_PLACEMENT_3D('',#1696,#1311,#1312);
#1124=AXIS2_PLACEMENT_3D('',#1700,#1314,#1315);
#1125=AXIS2_PLACEMENT_3D('',#1705,#1318,#1319);
#1126=AXIS2_PLACEMENT_3D('',#1706,#1320,#1321);
#1127=AXIS2_PLACEMENT_3D('',#1710,#1323,#1324);
#1128=AXIS2_PLACEMENT_3D('',#1711,#1325,#1326);
#1129=AXIS2_PLACEMENT_3D('',#1716,#1329,#1330);
#1130=AXIS2_PLACEMENT_3D('',#1720,#1332,#1333);
#1131=AXIS2_PLACEMENT_3D('',#1721,#1334,#1335);
#1132=AXIS2_PLACEMENT_3D('',#1726,#1338,#1339);
#1133=AXIS2_PLACEMENT_3D('',#1730,#1341,#1342);
#1134=AXIS2_PLACEMENT_3D('',#1735,#1345,#1346);
#1135=AXIS2_PLACEMENT_3D('',#1739,#1348,#1349);
#1136=AXIS2_PLACEMENT_3D('',#1740,#1350,#1351);
#1137=AXIS2_PLACEMENT_3D('',#1746,#1355,#1356);
#1138=AXIS2_PLACEMENT_3D('',#1752,#1360,#1361);
#1139=AXIS2_PLACEMENT_3D('',#1753,#1362,#1363);
#1140=AXIS2_PLACEMENT_3D('',#1754,#1364,#1365);
#1141=AXIS2_PLACEMENT_3D('',#1755,#1366,#1367);
#1142=AXIS2_PLACEMENT_3D('',#1756,#1368,#1369);
#1143=AXIS2_PLACEMENT_3D('',#1757,#1370,#1371);
#1144=AXIS2_PLACEMENT_3D('',#1763,#1375,#1376);
#1145=AXIS2_PLACEMENT_3D('',#1769,#1380,#1381);
#1146=AXIS2_PLACEMENT_3D('',#1775,#1385,#1386);
#1147=AXIS2_PLACEMENT_3D('',#1781,#1390,#1391);
#1148=AXIS2_PLACEMENT_3D('',#1782,#1392,#1393);
#1149=AXIS2_PLACEMENT_3D('',#1783,#1394,#1395);
#1150=AXIS2_PLACEMENT_3D('',#1784,#1396,#1397);
#1151=AXIS2_PLACEMENT_3D('',#1785,#1398,#1399);
#1152=AXIS2_PLACEMENT_3D('',#1786,#1400,#1401);
#1153=AXIS2_PLACEMENT_3D('',#1787,#1402,#1403);
#1154=AXIS2_PLACEMENT_3D('',#1788,#1404,#1405);
#1155=AXIS2_PLACEMENT_3D('',#1789,#1406,#1407);
#1156=AXIS2_PLACEMENT_3D('',#1798,#1412,#1413);
#1157=AXIS2_PLACEMENT_3D('',#1807,#1418,#1419);
#1158=AXIS2_PLACEMENT_3D('',#1816,#1424,#1425);
#1159=AXIS2_PLACEMENT_3D('',#1825,#1430,#1431);
#1160=AXIS2_PLACEMENT_3D('',#1826,#1432,#1433);
#1161=AXIS2_PLACEMENT_3D('',#1827,#1434,#1435);
#1162=AXIS2_PLACEMENT_3D('',#1828,#1436,#1437);
#1163=AXIS2_PLACEMENT_3D('',#1829,#1438,#1439);
#1164=AXIS2_PLACEMENT_3D('',#1830,#1440,#1441);
#1165=AXIS2_PLACEMENT_3D('',#1831,#1442,#1443);
#1166=AXIS2_PLACEMENT_3D('',#1832,#1444,#1445);
#1167=AXIS2_PLACEMENT_3D('',#1833,#1446,#1447);
#1168=AXIS2_PLACEMENT_3D('',#1834,#1448,#1449);
#1169=AXIS2_PLACEMENT_3D('',#1835,#1450,#1451);
#1170=AXIS2_PLACEMENT_3D('',#1836,#1452,#1453);
#1171=AXIS2_PLACEMENT_3D('',#1837,#1454,#1455);
#1172=AXIS2_PLACEMENT_3D('',#1838,#1456,#1457);
#1173=AXIS2_PLACEMENT_3D('',#1842,#1460,#1461);
#1174=AXIS2_PLACEMENT_3D('',#1846,#1464,#1465);
#1175=AXIS2_PLACEMENT_3D('',#1850,#1468,#1469);
#1176=AXIS2_PLACEMENT_3D('',#1854,#1472,#1473);
#1177=AXIS2_PLACEMENT_3D('',#1855,#1474,#1475);
#1178=AXIS2_PLACEMENT_3D('',#1856,#1476,#1477);
#1179=AXIS2_PLACEMENT_3D('',#1857,#1478,#1479);
#1180=AXIS2_PLACEMENT_3D('',#1858,#1480,#1481);
#1181=AXIS2_PLACEMENT_3D('',#1859,#1482,#1483);
#1182=AXIS2_PLACEMENT_3D('',#1860,#1484,#1485);
#1183=AXIS2_PLACEMENT_3D('',#1861,#1486,#1487);
#1184=AXIS2_PLACEMENT_3D('',#1862,#1488,#1489);
#1185=AXIS2_PLACEMENT_3D('',#1863,#1490,#1491);
#1186=AXIS2_PLACEMENT_3D('',#1864,#1492,#1493);
#1187=AXIS2_PLACEMENT_3D('',#1865,#1494,#1495);
#1188=AXIS2_PLACEMENT_3D('',#1866,#1496,#1497);
#1189=AXIS2_PLACEMENT_3D('',#1867,#1498,#1499);
#1190=AXIS2_PLACEMENT_3D('',#1868,#1500,#1501);
#1191=AXIS2_PLACEMENT_3D('',#1869,#1502,#1503);
#1192=AXIS2_PLACEMENT_3D('',#1870,#1504,#1505);
#1193=AXIS2_PLACEMENT_3D('',#1871,#1506,#1507);
#1194=AXIS2_PLACEMENT_3D('',#1872,#1508,#1509);
#1195=AXIS2_PLACEMENT_3D('',#1873,#1510,#1511);
#1196=AXIS2_PLACEMENT_3D('',#1874,#1512,#1513);
#1197=AXIS2_PLACEMENT_3D('',#1875,#1514,#1515);
#1198=AXIS2_PLACEMENT_3D('',#1876,#1516,#1517);
#1199=AXIS2_PLACEMENT_3D('',#1877,#1518,#1519);
#1200=AXIS2_PLACEMENT_3D('',#1878,#1520,#1521);
#1201=AXIS2_PLACEMENT_3D('',#1879,#1522,#1523);
#1202=AXIS2_PLACEMENT_3D('',#1880,#1524,#1525);
#1203=AXIS2_PLACEMENT_3D('',#1881,#1526,#1527);
#1204=AXIS2_PLACEMENT_3D('',#1882,#1528,#1529);
#1205=AXIS2_PLACEMENT_3D('',#1883,#1530,#1531);
#1206=AXIS2_PLACEMENT_3D('',#1884,#1532,#1533);
#1207=AXIS2_PLACEMENT_3D('',#1885,#1534,#1535);
#1208=AXIS2_PLACEMENT_3D('',#1886,#1536,#1537);
#1209=AXIS2_PLACEMENT_3D('',#1887,#1538,#1539);
#1210=AXIS2_PLACEMENT_3D('',#1888,#1540,#1541);
#1211=AXIS2_PLACEMENT_3D('',#1889,#1542,#1543);
#1212=AXIS2_PLACEMENT_3D('',#1890,#1544,#1545);
#1213=AXIS2_PLACEMENT_3D('',#1891,#1546,#1547);
#1214=AXIS2_PLACEMENT_3D('',#1892,#1548,#1549);
#1215=AXIS2_PLACEMENT_3D('',#1893,#1550,#1551);
#1216=AXIS2_PLACEMENT_3D('',#1894,#1552,#1553);
#1217=AXIS2_PLACEMENT_3D('',#1895,#1554,#1555);
#1218=AXIS2_PLACEMENT_3D('',#1896,#1556,#1557);
#1219=AXIS2_PLACEMENT_3D('',#1897,#1558,#1559);
#1220=AXIS2_PLACEMENT_3D('',#1898,#1560,#1561);
#1221=AXIS2_PLACEMENT_3D('',#1899,#1562,#1563);
#1222=AXIS2_PLACEMENT_3D('',#1900,#1564,#1565);
#1223=AXIS2_PLACEMENT_3D('',#1901,#1566,#1567);
#1224=AXIS2_PLACEMENT_3D('',#1902,#1568,#1569);
#1225=AXIS2_PLACEMENT_3D('',#1903,#1570,#1571);
#1226=AXIS2_PLACEMENT_3D('',#1904,#1572,#1573);
#1227=AXIS2_PLACEMENT_3D('',#1905,#1574,#1575);
#1228=AXIS2_PLACEMENT_3D('',#1906,#1576,#1577);
#1229=AXIS2_PLACEMENT_3D('',#1907,#1578,#1579);
#1230=AXIS2_PLACEMENT_3D('',#1908,#1580,#1581);
#1231=AXIS2_PLACEMENT_3D('',#1909,#1582,#1583);
#1232=AXIS2_PLACEMENT_3D('',#1910,#1584,#1585);
#1233=AXIS2_PLACEMENT_3D('',#1911,#1586,#1587);
#1234=AXIS2_PLACEMENT_3D('',#1912,#1588,#1589);
#1235=AXIS2_PLACEMENT_3D('',#1913,#1590,#1591);
#1236=AXIS2_PLACEMENT_3D('',#1914,#1592,#1593);
#1237=AXIS2_PLACEMENT_3D('',#1915,#1594,#1595);
#1238=DIRECTION('',(0.,0.,1.));
#1239=DIRECTION('',(1.,0.,0.));
#1240=DIRECTION('',(0.,0.,1.));
#1241=DIRECTION('',(1.,0.,0.));
#1242=DIRECTION('',(-9.45276122375177E-17,-1.,0.));
#1243=DIRECTION('',(1.,0.,0.));
#1244=DIRECTION('',(9.01599997908998E-17,-1.,0.));
#1245=DIRECTION('',(0.,0.,1.));
#1246=DIRECTION('',(1.,0.,0.));
#1247=DIRECTION('',(-1.,0.,0.));
#1248=DIRECTION('',(0.,0.,1.));
#1249=DIRECTION('',(1.,0.,0.));
#1250=DIRECTION('',(9.01599997908998E-17,-1.,0.));
#1251=DIRECTION('',(-1.,0.,0.));
#1252=DIRECTION('',(-9.45276122375177E-17,-1.,0.));
#1253=DIRECTION('',(0.,0.,1.));
#1254=DIRECTION('',(1.,0.,0.));
#1255=DIRECTION('',(-1.,0.,0.));
#1256=DIRECTION('',(0.,0.,1.));
#1257=DIRECTION('',(1.,0.,0.));
#1258=DIRECTION('',(-1.,9.45276122375177E-17,0.));
#1259=DIRECTION('',(-9.45276122375177E-17,-1.,0.));
#1260=DIRECTION('',(-9.45276122375177E-17,-1.,0.));
#1261=DIRECTION('',(0.,0.,1.));
#1262=DIRECTION('',(-9.45276122375177E-17,-1.,0.));
#1263=DIRECTION('',(0.,0.,1.));
#1264=DIRECTION('',(-1.,9.45276122375177E-17,0.));
#1265=DIRECTION('',(-9.45276122375177E-17,-1.,0.));
#1266=DIRECTION('',(0.,0.,1.));
#1267=DIRECTION('',(-9.45276122375177E-17,-1.,0.));
#1268=DIRECTION('',(0.,0.,1.));
#1269=DIRECTION('',(-9.45276122375177E-17,-1.,0.));
#1270=DIRECTION('',(1.,9.01599997908998E-17,0.));
#1271=DIRECTION('',(-9.01599997908998E-17,1.,0.));
#1272=DIRECTION('',(0.,0.,1.));
#1273=DIRECTION('',(1.,9.01599997908998E-17,0.));
#1274=DIRECTION('',(-9.01599997908998E-17,1.,0.));
#1275=DIRECTION('',(9.01599997908998E-17,-1.,0.));
#1276=DIRECTION('',(0.,0.,-1.));
#1277=DIRECTION('',(9.01599997908998E-17,-1.,0.));
#1278=DIRECTION('',(0.,0.,-1.));
#1279=DIRECTION('',(1.,9.01599997908998E-17,0.));
#1280=DIRECTION('',(-9.01599997908998E-17,1.,0.));
#1281=DIRECTION('',(0.,0.,1.));
#1282=DIRECTION('',(-9.01599997908998E-17,1.,0.));
#1283=DIRECTION('',(1.,9.01599997908998E-17,0.));
#1284=DIRECTION('',(-9.01599997908998E-17,1.,0.));
#1285=DIRECTION('',(9.01599997908998E-17,-1.,0.));
#1286=DIRECTION('',(1.,9.01599997908998E-17,0.));
#1287=DIRECTION('',(-9.01599997908998E-17,1.,0.));
#1288=DIRECTION('',(0.,0.,1.));
#1289=DIRECTION('',(-9.01599997908998E-17,1.,0.));
#1290=DIRECTION('',(0.,0.,1.));
#1291=DIRECTION('',(1.,9.01599997908998E-17,0.));
#1292=DIRECTION('',(-9.01599997908998E-17,1.,0.));
#1293=DIRECTION('',(0.,0.,-1.));
#1294=DIRECTION('',(9.01599997908998E-17,-1.,0.));
#1295=DIRECTION('',(0.,0.,-1.));
#1296=DIRECTION('',(0.,0.,1.));
#1297=DIRECTION('',(1.,0.,0.));
#1298=DIRECTION('',(-9.48558331133425E-17,-1.,0.));
#1299=DIRECTION('',(0.,0.,1.));
#1300=DIRECTION('',(1.,0.,0.));
#1301=DIRECTION('',(-1.,0.,0.));
#1302=DIRECTION('',(0.,0.,1.));
#1303=DIRECTION('',(1.,0.,0.));
#1304=DIRECTION('',(0.,-1.,0.));
#1305=DIRECTION('',(0.,0.,1.));
#1306=DIRECTION('',(1.,0.,0.));
#1307=DIRECTION('',(-1.,0.,0.));
#1308=DIRECTION('',(0.,0.,1.));
#1309=DIRECTION('',(1.,0.,0.));
#1310=DIRECTION('',(-1.,0.,0.));
#1311=DIRECTION('',(0.,0.,1.));
#1312=DIRECTION('',(1.,0.,0.));
#1313=DIRECTION('',(-9.45276122375177E-17,-1.,0.));
#1314=DIRECTION('',(0.,0.,1.));
#1315=DIRECTION('',(1.,0.,0.));
#1316=DIRECTION('',(-1.,0.,0.));
#1317=DIRECTION('',(-1.,0.,0.));
#1318=DIRECTION('',(0.,0.,1.));
#1319=DIRECTION('',(1.,0.,0.));
#1320=DIRECTION('',(0.,0.,1.));
#1321=DIRECTION('',(1.,0.,0.));
#1322=DIRECTION('',(-1.,0.,0.));
#1323=DIRECTION('',(0.,0.,1.));
#1324=DIRECTION('',(1.,0.,0.));
#1325=DIRECTION('',(0.,0.,1.));
#1326=DIRECTION('',(1.,0.,0.));
#1327=DIRECTION('',(1.,0.,0.));
#1328=DIRECTION('',(1.,0.,0.));
#1329=DIRECTION('',(0.,0.,1.));
#1330=DIRECTION('',(1.,0.,0.));
#1331=DIRECTION('',(-9.45276122375177E-17,-1.,0.));
#1332=DIRECTION('',(0.,0.,1.));
#1333=DIRECTION('',(1.,0.,0.));
#1334=DIRECTION('',(0.,0.,1.));
#1335=DIRECTION('',(1.,0.,0.));
#1336=DIRECTION('',(1.,0.,0.));
#1337=DIRECTION('',(-9.45276122375177E-17,-1.,0.));
#1338=DIRECTION('',(0.,0.,1.));
#1339=DIRECTION('',(1.,0.,0.));
#1340=DIRECTION('',(-1.,0.,0.));
#1341=DIRECTION('',(0.,0.,1.));
#1342=DIRECTION('',(1.,0.,0.));
#1343=DIRECTION('',(-9.45276122375177E-17,-1.,0.));
#1344=DIRECTION('',(-1.,0.,0.));
#1345=DIRECTION('',(0.,0.,1.));
#1346=DIRECTION('',(1.,0.,0.));
#1347=DIRECTION('',(-1.,0.,0.));
#1348=DIRECTION('',(0.,0.,1.));
#1349=DIRECTION('',(1.,0.,0.));
#1350=DIRECTION('',(0.,-1.,0.));
#1351=DIRECTION('',(0.,0.,-1.));
#1352=DIRECTION('',(0.,0.,-1.));
#1353=DIRECTION('',(-1.,0.,0.));
#1354=DIRECTION('',(0.,0.,-1.));
#1355=DIRECTION('',(0.,-1.,0.));
#1356=DIRECTION('',(0.,0.,-1.));
#1357=DIRECTION('',(-1.,0.,0.));
#1358=DIRECTION('',(0.,0.,-1.));
#1359=DIRECTION('',(0.,0.,-1.));
#1360=DIRECTION('',(0.,0.,1.));
#1361=DIRECTION('',(1.,0.,0.));
#1362=DIRECTION('',(0.,0.,1.));
#1363=DIRECTION('',(1.,0.,0.));
#1364=DIRECTION('',(0.,0.,1.));
#1365=DIRECTION('',(1.,0.,0.));
#1366=DIRECTION('',(0.,0.,1.));
#1367=DIRECTION('',(1.,0.,0.));
#1368=DIRECTION('',(0.,0.,1.));
#1369=DIRECTION('',(1.,0.,0.));
#1370=DIRECTION('',(-1.,9.45276122375177E-17,0.));
#1371=DIRECTION('',(-9.45276122375177E-17,-1.,0.));
#1372=DIRECTION('',(0.,0.,1.));
#1373=DIRECTION('',(-9.45276122375177E-17,-1.,0.));
#1374=DIRECTION('',(0.,0.,1.));
#1375=DIRECTION('',(0.,1.,0.));
#1376=DIRECTION('',(0.,0.,1.));
#1377=DIRECTION('',(0.,0.,1.));
#1378=DIRECTION('',(-1.,0.,0.));
#1379=DIRECTION('',(0.,0.,1.));
#1380=DIRECTION('',(-1.,9.45276122375177E-17,0.));
#1381=DIRECTION('',(-9.45276122375177E-17,-1.,0.));
#1382=DIRECTION('',(0.,0.,1.));
#1383=DIRECTION('',(-9.45276122375177E-17,-1.,0.));
#1384=DIRECTION('',(0.,0.,1.));
#1385=DIRECTION('',(0.,1.,0.));
#1386=DIRECTION('',(0.,0.,1.));
#1387=DIRECTION('',(0.,0.,1.));
#1388=DIRECTION('',(-1.,0.,0.));
#1389=DIRECTION('',(0.,0.,1.));
#1390=DIRECTION('',(0.,0.,-1.));
#1391=DIRECTION('',(-1.,0.,0.));
#1392=DIRECTION('',(0.,0.,1.));
#1393=DIRECTION('',(1.,0.,0.));
#1394=DIRECTION('',(0.,0.,1.));
#1395=DIRECTION('',(1.,0.,0.));
#1396=DIRECTION('',(0.,0.,1.));
#1397=DIRECTION('',(1.,0.,0.));
#1398=DIRECTION('',(0.,0.,1.));
#1399=DIRECTION('',(1.,0.,0.));
#1400=DIRECTION('',(0.,0.,1.));
#1401=DIRECTION('',(1.,0.,0.));
#1402=DIRECTION('',(0.,0.,-1.));
#1403=DIRECTION('',(-1.,0.,0.));
#1404=DIRECTION('',(0.,0.,1.));
#1405=DIRECTION('',(1.,0.,0.));
#1406=DIRECTION('',(-1.,0.,0.));
#1407=DIRECTION('',(0.,0.,1.));
#1408=DIRECTION('',(0.,0.,1.));
#1409=DIRECTION('',(0.,-1.,0.));
#1410=DIRECTION('',(0.,0.,1.));
#1411=DIRECTION('',(0.,-1.,0.));
#1412=DIRECTION('',(0.,1.,0.));
#1413=DIRECTION('',(0.,0.,1.));
#1414=DIRECTION('',(0.,0.,1.));
#1415=DIRECTION('',(-1.,0.,0.));
#1416=DIRECTION('',(0.,0.,1.));
#1417=DIRECTION('',(-1.,0.,0.));
#1418=DIRECTION('',(-1.,9.48558331133425E-17,0.));
#1419=DIRECTION('',(-9.48558331133425E-17,-1.,0.));
#1420=DIRECTION('',(0.,0.,1.));
#1421=DIRECTION('',(-9.48558331133425E-17,-1.,0.));
#1422=DIRECTION('',(0.,0.,1.));
#1423=DIRECTION('',(-9.48558331133425E-17,-1.,0.));
#1424=DIRECTION('',(0.,1.,0.));
#1425=DIRECTION('',(0.,0.,1.));
#1426=DIRECTION('',(0.,0.,1.));
#1427=DIRECTION('',(-1.,0.,0.));
#1428=DIRECTION('',(0.,0.,1.));
#1429=DIRECTION('',(-1.,0.,0.));
#1430=DIRECTION('',(0.,0.,1.));
#1431=DIRECTION('',(1.,0.,0.));
#1432=DIRECTION('',(0.,0.,1.));
#1433=DIRECTION('',(1.,0.,0.));
#1434=DIRECTION('',(0.,0.,1.));
#1435=DIRECTION('',(1.,0.,0.));
#1436=DIRECTION('',(0.,0.,1.));
#1437=DIRECTION('',(1.,0.,0.));
#1438=DIRECTION('',(0.,0.,1.));
#1439=DIRECTION('',(1.,0.,0.));
#1440=DIRECTION('',(0.,0.,-1.));
#1441=DIRECTION('',(-1.,0.,0.));
#1442=DIRECTION('',(0.,0.,1.));
#1443=DIRECTION('',(1.,0.,0.));
#1444=DIRECTION('',(0.,0.,1.));
#1445=DIRECTION('',(1.,0.,0.));
#1446=DIRECTION('',(0.,0.,1.));
#1447=DIRECTION('',(1.,0.,0.));
#1448=DIRECTION('',(0.,0.,1.));
#1449=DIRECTION('',(1.,0.,0.));
#1450=DIRECTION('',(0.,0.,1.));
#1451=DIRECTION('',(1.,0.,0.));
#1452=DIRECTION('',(0.,0.,-1.));
#1453=DIRECTION('',(-1.,0.,0.));
#1454=DIRECTION('',(0.,0.,1.));
#1455=DIRECTION('',(1.,0.,0.));
#1456=DIRECTION('',(0.,1.,0.));
#1457=DIRECTION('',(0.,0.,1.));
#1458=DIRECTION('',(-1.,0.,0.));
#1459=DIRECTION('',(0.,0.,1.));
#1460=DIRECTION('',(0.,1.,0.));
#1461=DIRECTION('',(0.,0.,1.));
#1462=DIRECTION('',(0.,0.,1.));
#1463=DIRECTION('',(-1.,0.,0.));
#1464=DIRECTION('',(0.,-1.,0.));
#1465=DIRECTION('',(0.,0.,-1.));
#1466=DIRECTION('',(0.,0.,1.));
#1467=DIRECTION('',(1.,0.,0.));
#1468=DIRECTION('',(0.,-1.,0.));
#1469=DIRECTION('',(0.,0.,-1.));
#1470=DIRECTION('',(1.,0.,0.));
#1471=DIRECTION('',(0.,0.,1.));
#1472=DIRECTION('',(0.,0.,-1.));
#1473=DIRECTION('',(-1.,0.,0.));
#1474=DIRECTION('',(0.,0.,1.));
#1475=DIRECTION('',(1.,0.,0.));
#1476=DIRECTION('',(0.,0.,1.));
#1477=DIRECTION('',(1.,0.,0.));
#1478=DIRECTION('',(0.,0.,-1.));
#1479=DIRECTION('',(-1.,0.,0.));
#1480=DIRECTION('',(0.,0.,-1.));
#1481=DIRECTION('',(-1.,0.,0.));
#1482=DIRECTION('',(0.,0.,1.));
#1483=DIRECTION('',(1.,0.,0.));
#1484=DIRECTION('',(-1.,0.,0.));
#1485=DIRECTION('',(0.,0.,1.));
#1486=DIRECTION('',(-1.,0.,0.));
#1487=DIRECTION('',(0.,0.,1.));
#1488=DIRECTION('',(0.,1.,0.));
#1489=DIRECTION('',(0.,0.,1.));
#1490=DIRECTION('',(0.,1.,0.));
#1491=DIRECTION('',(0.,0.,1.));
#1492=DIRECTION('',(-9.45276122375177E-17,-1.,0.));
#1493=DIRECTION('',(1.,-9.45276122375177E-17,0.));
#1494=DIRECTION('',(0.,-1.,0.));
#1495=DIRECTION('',(0.,0.,-1.));
#1496=DIRECTION('',(0.,0.,1.));
#1497=DIRECTION('',(1.,0.,0.));
#1498=DIRECTION('',(-1.,0.,0.));
#1499=DIRECTION('',(0.,0.,1.));
#1500=DIRECTION('',(-1.,0.,0.));
#1501=DIRECTION('',(0.,0.,1.));
#1502=DIRECTION('',(-1.,0.,0.));
#1503=DIRECTION('',(0.,0.,1.));
#1504=DIRECTION('',(0.,0.,1.));
#1505=DIRECTION('',(1.,0.,0.));
#1506=DIRECTION('',(0.,1.,0.));
#1507=DIRECTION('',(0.,0.,1.));
#1508=DIRECTION('',(9.45276122375177E-17,1.,0.));
#1509=DIRECTION('',(-1.,9.45276122375177E-17,0.));
#1510=DIRECTION('',(0.,1.,0.));
#1511=DIRECTION('',(0.,0.,1.));
#1512=DIRECTION('',(-1.,0.,0.));
#1513=DIRECTION('',(0.,0.,1.));
#1514=DIRECTION('',(1.,0.,0.));
#1515=DIRECTION('',(0.,0.,-1.));
#1516=DIRECTION('',(0.,0.,1.));
#1517=DIRECTION('',(1.,0.,0.));
#1518=DIRECTION('',(0.,0.,1.));
#1519=DIRECTION('',(1.,0.,0.));
#1520=DIRECTION('',(0.,0.,-1.));
#1521=DIRECTION('',(-1.,0.,0.));
#1522=DIRECTION('',(0.,0.,1.));
#1523=DIRECTION('',(1.,0.,0.));
#1524=DIRECTION('',(0.,0.,1.));
#1525=DIRECTION('',(1.,0.,0.));
#1526=DIRECTION('',(1.,0.,0.));
#1527=DIRECTION('',(0.,0.,-1.));
#1528=DIRECTION('',(1.,0.,0.));
#1529=DIRECTION('',(0.,0.,-1.));
#1530=DIRECTION('',(0.,-1.,0.));
#1531=DIRECTION('',(0.,0.,-1.));
#1532=DIRECTION('',(0.,-1.,0.));
#1533=DIRECTION('',(0.,0.,-1.));
#1534=DIRECTION('',(9.45276122375177E-17,1.,0.));
#1535=DIRECTION('',(-1.,9.45276122375177E-17,0.));
#1536=DIRECTION('',(0.,1.,0.));
#1537=DIRECTION('',(0.,0.,1.));
#1538=DIRECTION('',(0.,0.,1.));
#1539=DIRECTION('',(1.,0.,0.));
#1540=DIRECTION('',(1.,0.,0.));
#1541=DIRECTION('',(0.,0.,-1.));
#1542=DIRECTION('',(1.,0.,0.));
#1543=DIRECTION('',(0.,0.,-1.));
#1544=DIRECTION('',(1.,0.,0.));
#1545=DIRECTION('',(0.,0.,-1.));
#1546=DIRECTION('',(0.,0.,1.));
#1547=DIRECTION('',(1.,0.,0.));
#1548=DIRECTION('',(0.,-1.,0.));
#1549=DIRECTION('',(0.,0.,-1.));
#1550=DIRECTION('',(-9.45276122375177E-17,-1.,0.));
#1551=DIRECTION('',(1.,-9.45276122375177E-17,0.));
#1552=DIRECTION('',(0.,-1.,0.));
#1553=DIRECTION('',(0.,0.,-1.));
#1554=DIRECTION('',(1.,0.,0.));
#1555=DIRECTION('',(0.,0.,-1.));
#1556=DIRECTION('',(-1.,0.,-5.46369598732853E-15));
#1557=DIRECTION('',(-5.46369598732853E-15,0.,1.));
#1558=DIRECTION('',(-5.46369598732853E-15,0.,1.));
#1559=DIRECTION('',(1.,0.,5.46369598732853E-15));
#1560=DIRECTION('',(0.,0.,1.));
#1561=DIRECTION('',(1.,0.,0.));
#1562=DIRECTION('',(0.,0.,1.));
#1563=DIRECTION('',(1.,0.,0.));
#1564=DIRECTION('',(0.,0.,1.));
#1565=DIRECTION('',(1.,0.,0.));
#1566=DIRECTION('',(0.,1.,0.));
#1567=DIRECTION('',(0.,0.,1.));
#1568=DIRECTION('',(-1.,0.,0.));
#1569=DIRECTION('',(0.,0.,1.));
#1570=DIRECTION('',(-1.,0.,0.));
#1571=DIRECTION('',(0.,0.,1.));
#1572=DIRECTION('',(-1.,0.,0.));
#1573=DIRECTION('',(0.,0.,1.));
#1574=DIRECTION('',(0.,-1.,0.));
#1575=DIRECTION('',(0.,0.,-1.));
#1576=DIRECTION('',(0.,1.,0.));
#1577=DIRECTION('',(0.,0.,1.));
#1578=DIRECTION('',(0.,0.,1.));
#1579=DIRECTION('',(1.,0.,0.));
#1580=DIRECTION('',(0.,1.,0.));
#1581=DIRECTION('',(0.,0.,1.));
#1582=DIRECTION('',(0.,0.,1.));
#1583=DIRECTION('',(1.,0.,0.));
#1584=DIRECTION('',(-1.,0.,0.));
#1585=DIRECTION('',(0.,0.,1.));
#1586=DIRECTION('',(9.48558331133425E-17,1.,0.));
#1587=DIRECTION('',(-1.,9.48558331133425E-17,0.));
#1588=DIRECTION('',(0.,1.,0.));
#1589=DIRECTION('',(0.,0.,1.));
#1590=DIRECTION('',(1.,0.,0.));
#1591=DIRECTION('',(0.,0.,-1.));
#1592=DIRECTION('',(-1.,0.,0.));
#1593=DIRECTION('',(0.,0.,1.));
#1594=DIRECTION('',(0.,0.,1.));
#1595=DIRECTION('',(1.,0.,0.));
#1596=CARTESIAN_POINT('',(0.,0.,0.));
#1597=CARTESIAN_POINT('',(0.,0.,0.01016));
#1598=CARTESIAN_POINT('',(0.037084,-3.50546197221611E-18,0.01016));
#1599=CARTESIAN_POINT('',(0.037084,0.0624078,0.01016));
#1600=CARTESIAN_POINT('',(0.037084,0.037846,0.01016));
#1601=CARTESIAN_POINT('',(0.,0.037846,0.01016));
#1602=CARTESIAN_POINT('',(0.03937,0.037846,0.01016));
#1603=CARTESIAN_POINT('',(0.03937,0.,0.01016));
#1604=CARTESIAN_POINT('',(0.03937,0.0626618,0.01016));
#1605=CARTESIAN_POINT('',(0.0250698,0.0626618,0.01016));
#1606=CARTESIAN_POINT('',(0.0250698,0.076962,0.01016));
#1607=CARTESIAN_POINT('',(-6.93889390390723E-18,0.076962,0.01016));
#1608=CARTESIAN_POINT('',(-0.0250698,0.076962,0.01016));
#1609=CARTESIAN_POINT('',(-0.0250698,0.0626618,0.01016));
#1610=CARTESIAN_POINT('',(-0.03937,0.0626618,0.01016));
#1611=CARTESIAN_POINT('',(-0.03937,0.,0.01016));
#1612=CARTESIAN_POINT('',(-0.03937,0.051816,0.01016));
#1613=CARTESIAN_POINT('',(-0.035814,0.051816,0.01016));
#1614=CARTESIAN_POINT('',(-0.037084,0.051816,0.01016));
#1615=CARTESIAN_POINT('',(-0.037084,0.0624078,0.01016));
#1616=CARTESIAN_POINT('',(-0.037084,0.0624078,0.01016));
#1617=CARTESIAN_POINT('',(-0.0248158,0.0624078,0.01016));
#1618=CARTESIAN_POINT('',(-0.0248158,0.074676,0.01016));
#1619=CARTESIAN_POINT('',(0.0248158,0.074676,0.01016));
#1620=CARTESIAN_POINT('',(0.0248158,0.074676,0.01016));
#1621=CARTESIAN_POINT('',(0.0248158,0.0624078,0.01016));
#1622=CARTESIAN_POINT('',(0.035814,0.,0.00635));
#1623=CARTESIAN_POINT('',(0.035814,0.,0.00635));
#1624=CARTESIAN_POINT('',(0.035814,0.0624078,0.00635));
#1625=CARTESIAN_POINT('',(0.035814,0.037846,0.00635));
#1626=CARTESIAN_POINT('',(0.035814,0.037846,0.00635));
#1627=CARTESIAN_POINT('',(0.035814,0.037846,0.00889));
#1628=CARTESIAN_POINT('',(0.035814,0.,0.00889));
#1629=CARTESIAN_POINT('',(0.035814,0.0624078,0.00889));
#1630=CARTESIAN_POINT('',(0.035814,0.0624078,0.00635));
#1631=CARTESIAN_POINT('',(-0.035814,0.,0.00635));
#1632=CARTESIAN_POINT('',(-0.035814,0.0624078,0.01016));
#1633=CARTESIAN_POINT('',(-0.035814,0.0624078,0.00635));
#1634=CARTESIAN_POINT('',(-0.035814,0.0624078,0.00889));
#1635=CARTESIAN_POINT('',(-0.035814,0.050546,0.00889));
#1636=CARTESIAN_POINT('',(-0.035814,0.051816,0.00889));
#1637=CARTESIAN_POINT('',(-0.035814,0.051816,0.00635));
#1638=CARTESIAN_POINT('',(-0.035814,0.051816,0.00635));
#1639=CARTESIAN_POINT('',(-0.035814,0.,0.00635));
#1640=CARTESIAN_POINT('',(0.03937,0.,0.01016));
#1641=CARTESIAN_POINT('',(0.03937,0.017526,0.006348));
#1642=CARTESIAN_POINT('',(0.03937,0.017526,0.00635));
#1643=CARTESIAN_POINT('',(0.03937,0.017526,0.00889));
#1644=CARTESIAN_POINT('',(0.03937,0.016256,0.00889));
#1645=CARTESIAN_POINT('',(0.03937,0.016256,0.01016));
#1646=CARTESIAN_POINT('',(0.03937,0.,0.01016));
#1647=CARTESIAN_POINT('',(0.03937,-0.0626618,0.01016));
#1648=CARTESIAN_POINT('',(0.03937,-0.0626618,0.01016));
#1649=CARTESIAN_POINT('',(0.03937,-0.0626618,0.));
#1650=CARTESIAN_POINT('',(0.03937,0.,0.));
#1651=CARTESIAN_POINT('',(0.03937,0.0626618,0.));
#1652=CARTESIAN_POINT('',(0.03937,0.0626618,0.01016));
#1653=CARTESIAN_POINT('',(0.03937,0.037846,0.00889));
#1654=CARTESIAN_POINT('',(0.03937,0.036576,0.00889));
#1655=CARTESIAN_POINT('',(0.03937,0.036576,0.006348));
#1656=CARTESIAN_POINT('',(0.03937,0.036576,0.00635));
#1657=CARTESIAN_POINT('',(0.03937,0.,0.00635));
#1658=CARTESIAN_POINT('',(-0.03937,0.,0.01016));
#1659=CARTESIAN_POINT('',(-0.03937,0.,0.01016));
#1660=CARTESIAN_POINT('',(-0.03937,0.012446,0.01016));
#1661=CARTESIAN_POINT('',(-0.03937,-0.0626618,0.01016));
#1662=CARTESIAN_POINT('',(-0.03937,0.012446,0.00889));
#1663=CARTESIAN_POINT('',(-0.03937,0.013716,0.00889));
#1664=CARTESIAN_POINT('',(-0.03937,0.013716,0.006348));
#1665=CARTESIAN_POINT('',(-0.03937,0.013716,0.00635));
#1666=CARTESIAN_POINT('',(-0.03937,0.,0.00635));
#1667=CARTESIAN_POINT('',(-0.03937,0.050546,0.00635));
#1668=CARTESIAN_POINT('',(-0.03937,0.050546,0.006348));
#1669=CARTESIAN_POINT('',(-0.03937,0.050546,0.00889));
#1670=CARTESIAN_POINT('',(-0.03937,0.051816,0.00889));
#1671=CARTESIAN_POINT('',(-0.03937,0.0626618,0.01016));
#1672=CARTESIAN_POINT('',(-0.03937,0.0626618,0.));
#1673=CARTESIAN_POINT('',(-0.03937,0.,0.));
#1674=CARTESIAN_POINT('',(-0.03937,-0.0626618,0.));
#1675=CARTESIAN_POINT('',(-0.03937,-0.0626618,0.01016));
#1676=CARTESIAN_POINT('',(0.,0.,0.00635));
#1677=CARTESIAN_POINT('',(-0.003175,0.0612648,0.00635));
#1678=CARTESIAN_POINT('',(-0.003175,0.0451612,0.00635));
#1679=CARTESIAN_POINT('',(-0.003175,0.0612648,0.00635));
#1680=CARTESIAN_POINT('',(0.0071882,0.0612648,0.00635));
#1681=CARTESIAN_POINT('',(0.0071882,0.071628,0.00635));
#1682=CARTESIAN_POINT('',(0.0232918,0.071628,0.00635));
#1683=CARTESIAN_POINT('',(0.0232918,0.071628,0.00635));
#1684=CARTESIAN_POINT('',(0.0232918,0.0612648,0.00635));
#1685=CARTESIAN_POINT('',(0.033655,0.0612648,0.00635));
#1686=CARTESIAN_POINT('',(0.033655,0.,0.00635));
#1687=CARTESIAN_POINT('',(0.033655,0.0451612,0.00635));
#1688=CARTESIAN_POINT('',(0.0232918,0.0451612,0.00635));
#1689=CARTESIAN_POINT('',(0.0232918,0.034798,0.00635));
#1690=CARTESIAN_POINT('',(0.,0.034798,0.00635));
#1691=CARTESIAN_POINT('',(0.0071882,0.034798,0.00635));
#1692=CARTESIAN_POINT('',(0.0071882,0.0451612,0.00635));
#1693=CARTESIAN_POINT('',(-6.93889390390723E-18,-0.073406,0.00635));
#1694=CARTESIAN_POINT('',(0.0248158,-0.073406,0.00635));
#1695=CARTESIAN_POINT('',(-0.0248158,-0.073406,0.00635));
#1696=CARTESIAN_POINT('',(0.0248158,-0.0624078,0.00635));
#1697=CARTESIAN_POINT('',(0.035814,-0.0624078,0.00635));
#1698=CARTESIAN_POINT('',(0.035814,0.,0.00635));
#1699=CARTESIAN_POINT('',(0.035814,0.016256,0.00635));
#1700=CARTESIAN_POINT('',(0.037084,0.016256,0.00635));
#1701=CARTESIAN_POINT('',(0.037084,0.017526,0.00635));
#1702=CARTESIAN_POINT('',(0.037592,0.017526,0.00635));
#1703=CARTESIAN_POINT('',(0.037592,0.036576,0.00635));
#1704=CARTESIAN_POINT('',(0.037084,0.036576,0.00635));
#1705=CARTESIAN_POINT('',(0.037084,0.037846,0.00635));
#1706=CARTESIAN_POINT('',(0.0248158,0.0624078,0.00635));
#1707=CARTESIAN_POINT('',(0.0248158,0.073406,0.00635));
#1708=CARTESIAN_POINT('',(6.93889390390723E-18,0.073406,0.00635));
#1709=CARTESIAN_POINT('',(-0.0248158,0.073406,0.00635));
#1710=CARTESIAN_POINT('',(-0.0248158,0.0624078,0.00635));
#1711=CARTESIAN_POINT('',(-0.037084,0.051816,0.00635));
#1712=CARTESIAN_POINT('',(-0.037084,0.050546,0.00635));
#1713=CARTESIAN_POINT('',(-0.037592,0.050546,0.00635));
#1714=CARTESIAN_POINT('',(-0.037592,0.013716,0.00635));
#1715=CARTESIAN_POINT('',(-0.037084,0.013716,0.00635));
#1716=CARTESIAN_POINT('',(-0.037084,0.012446,0.00635));
#1717=CARTESIAN_POINT('',(-0.035814,0.012446,0.00635));
#1718=CARTESIAN_POINT('',(-0.035814,0.,0.00635));
#1719=CARTESIAN_POINT('',(-0.035814,-0.0624078,0.00635));
#1720=CARTESIAN_POINT('',(-0.0248158,-0.0624078,0.00635));
#1721=CARTESIAN_POINT('',(0.,0.,0.01016));
#1722=CARTESIAN_POINT('',(0.035814,0.016256,0.01016));
#1723=CARTESIAN_POINT('',(0.037084,0.016256,0.01016));
#1724=CARTESIAN_POINT('',(0.037084,-3.50546197221611E-18,0.01016));
#1725=CARTESIAN_POINT('',(0.037084,-0.0624078,0.01016));
#1726=CARTESIAN_POINT('',(0.0248158,-0.0624078,0.01016));
#1727=CARTESIAN_POINT('',(0.0248158,-0.074676,0.01016));
#1728=CARTESIAN_POINT('',(0.,-0.074676,0.01016));
#1729=CARTESIAN_POINT('',(-0.0248158,-0.074676,0.01016));
#1730=CARTESIAN_POINT('',(-0.0248158,-0.0624078,0.01016));
#1731=CARTESIAN_POINT('',(-0.037084,-0.0624078,0.01016));
#1732=CARTESIAN_POINT('',(-0.037084,0.013716,0.01016));
#1733=CARTESIAN_POINT('',(-0.037084,0.012446,0.01016));
#1734=CARTESIAN_POINT('',(0.,0.012446,0.01016));
#1735=CARTESIAN_POINT('',(-0.0250698,-0.0626618,0.01016));
#1736=CARTESIAN_POINT('',(-0.0250698,-0.076962,0.01016));
#1737=CARTESIAN_POINT('',(6.93889390390723E-18,-0.076962,0.01016));
#1738=CARTESIAN_POINT('',(0.0250698,-0.076962,0.01016));
#1739=CARTESIAN_POINT('',(0.0250698,-0.0626618,0.01016));
#1740=CARTESIAN_POINT('',(-6.93889390390723E-18,0.076962,0.01016));
#1741=CARTESIAN_POINT('',(0.0250698,0.076962,0.));
#1742=CARTESIAN_POINT('',(0.0250698,0.076962,0.));
#1743=CARTESIAN_POINT('',(-6.93889390390723E-18,0.076962,0.));
#1744=CARTESIAN_POINT('',(-0.0250698,0.076962,0.));
#1745=CARTESIAN_POINT('',(-0.0250698,0.076962,0.01016));
#1746=CARTESIAN_POINT('',(6.93889390390723E-18,-0.076962,0.01016));
#1747=CARTESIAN_POINT('',(6.93889390390723E-18,-0.076962,0.));
#1748=CARTESIAN_POINT('',(0.0250698,-0.076962,0.));
#1749=CARTESIAN_POINT('',(-0.0250698,-0.076962,0.));
#1750=CARTESIAN_POINT('',(0.0250698,-0.076962,0.01016));
#1751=CARTESIAN_POINT('',(-0.0250698,-0.076962,0.));
#1752=CARTESIAN_POINT('',(0.,0.,0.));
#1753=CARTESIAN_POINT('',(0.0250698,-0.0626618,0.));
#1754=CARTESIAN_POINT('',(-0.0250698,-0.0626618,0.));
#1755=CARTESIAN_POINT('',(-0.0250698,0.0626618,0.));
#1756=CARTESIAN_POINT('',(0.0250698,0.0626618,0.));
#1757=CARTESIAN_POINT('',(0.035814,0.,0.00635));
#1758=CARTESIAN_POINT('',(0.035814,-0.0624078,0.01016));
#1759=CARTESIAN_POINT('',(0.035814,-0.0624078,0.00889));
#1760=CARTESIAN_POINT('',(0.035814,0.,0.00889));
#1761=CARTESIAN_POINT('',(0.035814,0.016256,0.00889));
#1762=CARTESIAN_POINT('',(0.035814,0.016256,0.00635));
#1763=CARTESIAN_POINT('',(6.93889390390723E-18,0.073406,0.00635));
#1764=CARTESIAN_POINT('',(0.0248158,0.073406,0.00635));
#1765=CARTESIAN_POINT('',(0.0248158,0.073406,0.00889));
#1766=CARTESIAN_POINT('',(-0.0248158,0.073406,0.00889));
#1767=CARTESIAN_POINT('',(-0.0248158,0.073406,0.00889));
#1768=CARTESIAN_POINT('',(-0.0248158,0.073406,0.00635));
#1769=CARTESIAN_POINT('',(-0.035814,0.,0.00635));
#1770=CARTESIAN_POINT('',(-0.035814,0.012446,0.01016));
#1771=CARTESIAN_POINT('',(-0.035814,0.012446,0.00889));
#1772=CARTESIAN_POINT('',(-0.035814,-0.0624078,0.00889));
#1773=CARTESIAN_POINT('',(-0.035814,-0.0624078,0.00889));
#1774=CARTESIAN_POINT('',(-0.035814,-0.0624078,0.00635));
#1775=CARTESIAN_POINT('',(-6.93889390390723E-18,-0.073406,0.00635));
#1776=CARTESIAN_POINT('',(-0.0248158,-0.073406,0.00635));
#1777=CARTESIAN_POINT('',(-0.0248158,-0.073406,0.00889));
#1778=CARTESIAN_POINT('',(-6.93889390390723E-18,-0.073406,0.00889));
#1779=CARTESIAN_POINT('',(0.0248158,-0.073406,0.00889));
#1780=CARTESIAN_POINT('',(0.0248158,-0.073406,0.00635));
#1781=CARTESIAN_POINT('',(0.0248158,-0.0624078,0.00635));
#1782=CARTESIAN_POINT('',(0.0248158,-0.0624078,0.00889));
#1783=CARTESIAN_POINT('',(-0.0248158,-0.0624078,0.00635));
#1784=CARTESIAN_POINT('',(-0.0248158,-0.0624078,0.00889));
#1785=CARTESIAN_POINT('',(0.0248158,0.0624078,0.00635));
#1786=CARTESIAN_POINT('',(0.0248158,0.0624078,0.00889));
#1787=CARTESIAN_POINT('',(-0.0248158,0.0624078,0.00635));
#1788=CARTESIAN_POINT('',(-0.0248158,0.0624078,0.00889));
#1789=CARTESIAN_POINT('',(0.032385,0.053213,0.00381));
#1790=CARTESIAN_POINT('',(0.032385,0.0451612,0.00635));
#1791=CARTESIAN_POINT('',(0.032385,0.0451612,0.00381));
#1792=CARTESIAN_POINT('',(0.032385,0.0451612,0.00508));
#1793=CARTESIAN_POINT('',(0.032385,0.053213,0.00508));
#1794=CARTESIAN_POINT('',(0.032385,0.0612648,0.00508));
#1795=CARTESIAN_POINT('',(0.032385,0.0612648,0.00381));
#1796=CARTESIAN_POINT('',(0.032385,0.0612648,0.00381));
#1797=CARTESIAN_POINT('',(0.032385,0.053213,0.00381));
#1798=CARTESIAN_POINT('',(0.01524,0.070358,0.00381));
#1799=CARTESIAN_POINT('',(0.0232918,0.070358,0.00381));
#1800=CARTESIAN_POINT('',(0.0232918,0.070358,0.00381));
#1801=CARTESIAN_POINT('',(0.0232918,0.070358,0.00508));
#1802=CARTESIAN_POINT('',(0.0071882,0.070358,0.00508));
#1803=CARTESIAN_POINT('',(0.0071882,0.070358,0.00508));
#1804=CARTESIAN_POINT('',(0.0071882,0.070358,0.00381));
#1805=CARTESIAN_POINT('',(0.0071882,0.070358,0.00381));
#1806=CARTESIAN_POINT('',(0.01524,0.070358,0.00381));
#1807=CARTESIAN_POINT('',(-0.001905,0.053213,0.00381));
#1808=CARTESIAN_POINT('',(-0.001905,0.0612648,0.00635));
#1809=CARTESIAN_POINT('',(-0.001905,0.0612648,0.00381));
#1810=CARTESIAN_POINT('',(-0.001905,0.0612648,0.00508));
#1811=CARTESIAN_POINT('',(-0.001905,0.0451612,0.00508));
#1812=CARTESIAN_POINT('',(-0.001905,0.0451612,0.00508));
#1813=CARTESIAN_POINT('',(-0.001905,0.0451612,0.00381));
#1814=CARTESIAN_POINT('',(-0.001905,0.0451612,0.00381));
#1815=CARTESIAN_POINT('',(-0.001905,0.053213,0.00381));
#1816=CARTESIAN_POINT('',(0.01524,0.036068,0.00381));
#1817=CARTESIAN_POINT('',(0.0071882,0.036068,0.00381));
#1818=CARTESIAN_POINT('',(0.0071882,0.036068,0.00381));
#1819=CARTESIAN_POINT('',(0.0071882,0.036068,0.00508));
#1820=CARTESIAN_POINT('',(0.01524,0.036068,0.00508));
#1821=CARTESIAN_POINT('',(0.0232918,0.036068,0.00508));
#1822=CARTESIAN_POINT('',(0.0232918,0.036068,0.00381));
#1823=CARTESIAN_POINT('',(0.0232918,0.036068,0.00381));
#1824=CARTESIAN_POINT('',(0.01524,0.036068,0.00381));
#1825=CARTESIAN_POINT('',(0.,0.,0.00381));
#1826=CARTESIAN_POINT('',(0.0232918,0.0451612,0.00381));
#1827=CARTESIAN_POINT('',(0.0232918,0.0612648,0.00381));
#1828=CARTESIAN_POINT('',(0.0071882,0.0612648,0.00381));
#1829=CARTESIAN_POINT('',(0.0071882,0.0451612,0.00381));
#1830=CARTESIAN_POINT('',(0.0232918,0.0451612,0.00381));
#1831=CARTESIAN_POINT('',(0.0232918,0.0451612,0.00508));
#1832=CARTESIAN_POINT('',(0.0071882,0.0451612,0.00381));
#1833=CARTESIAN_POINT('',(0.0071882,0.0451612,0.00508));
#1834=CARTESIAN_POINT('',(0.0232918,0.0612648,0.00381));
#1835=CARTESIAN_POINT('',(0.0232918,0.0612648,0.00508));
#1836=CARTESIAN_POINT('',(0.0071882,0.0612648,0.00381));
#1837=CARTESIAN_POINT('',(0.0071882,0.0612648,0.00508));
#1838=CARTESIAN_POINT('',(-0.037592,0.013716,0.006348));
#1839=CARTESIAN_POINT('',(-0.037592,0.013716,0.00889));
#1840=CARTESIAN_POINT('',(-0.037084,0.013716,0.00889));
#1841=CARTESIAN_POINT('',(-0.037084,0.013716,0.00635));
#1842=CARTESIAN_POINT('',(-0.037592,0.050546,0.006348));
#1843=CARTESIAN_POINT('',(-0.037084,0.050546,0.006348));
#1844=CARTESIAN_POINT('',(-0.037084,0.050546,0.00889));
#1845=CARTESIAN_POINT('',(-0.03937,0.050546,0.00889));
#1846=CARTESIAN_POINT('',(0.037592,0.017526,0.006348));
#1847=CARTESIAN_POINT('',(0.037084,0.017526,0.01016));
#1848=CARTESIAN_POINT('',(0.037084,0.017526,0.00889));
#1849=CARTESIAN_POINT('',(0.03937,0.017526,0.00889));
#1850=CARTESIAN_POINT('',(0.037592,0.036576,0.006348));
#1851=CARTESIAN_POINT('',(0.037592,0.036576,0.00889));
#1852=CARTESIAN_POINT('',(0.037084,0.036576,0.00889));
#1853=CARTESIAN_POINT('',(0.037084,0.036576,0.006348));
#1854=CARTESIAN_POINT('',(0.0250698,-0.0626618,0.01016));
#1855=CARTESIAN_POINT('',(-0.0250698,-0.0626618,0.01016));
#1856=CARTESIAN_POINT('',(0.0250698,0.0626618,0.01016));
#1857=CARTESIAN_POINT('',(-0.0250698,0.0626618,0.01016));
#1858=CARTESIAN_POINT('',(0.037084,0.016256,0.006348));
#1859=CARTESIAN_POINT('',(0.037084,0.016256,0.00889));
#1860=CARTESIAN_POINT('',(0.037592,0.016256,0.00889));
#1861=CARTESIAN_POINT('',(0.037084,0.016256,0.00889));
#1862=CARTESIAN_POINT('',(0.037084,0.016256,0.00889));
#1863=CARTESIAN_POINT('',(0.037084,0.016256,0.00889));
#1864=CARTESIAN_POINT('',(0.037084,-3.50546197221611E-18,0.00889));
#1865=CARTESIAN_POINT('',(0.037084,-0.0624078,0.00889));
#1866=CARTESIAN_POINT('',(0.0248158,-0.0624078,0.00889));
#1867=CARTESIAN_POINT('',(0.0248158,-0.074676,0.00889));
#1868=CARTESIAN_POINT('',(0.,-0.074676,0.00889));
#1869=CARTESIAN_POINT('',(-0.0248158,-0.074676,0.00889));
#1870=CARTESIAN_POINT('',(-0.0248158,-0.0624078,0.00889));
#1871=CARTESIAN_POINT('',(-0.037084,-0.0624078,0.00889));
#1872=CARTESIAN_POINT('',(-0.037084,1.20050067541648E-19,0.00889));
#1873=CARTESIAN_POINT('',(-0.037084,0.012446,0.00889));
#1874=CARTESIAN_POINT('',(0.,0.012446,0.00889));
#1875=CARTESIAN_POINT('',(-0.037084,0.012446,0.00889));
#1876=CARTESIAN_POINT('',(-0.037084,0.012446,0.00889));
#1877=CARTESIAN_POINT('',(-0.037084,0.012446,0.00889));
#1878=CARTESIAN_POINT('',(-0.037084,0.012446,0.00635));
#1879=CARTESIAN_POINT('',(-0.037084,0.051816,0.006348));
#1880=CARTESIAN_POINT('',(-0.037084,0.051816,0.00889));
#1881=CARTESIAN_POINT('',(-0.037592,0.051816,0.00889));
#1882=CARTESIAN_POINT('',(-0.037084,0.051816,0.00889));
#1883=CARTESIAN_POINT('',(-0.037084,0.051816,0.00889));
#1884=CARTESIAN_POINT('',(-0.037084,0.051816,0.00889));
#1885=CARTESIAN_POINT('',(-0.037084,1.20050067541648E-19,0.00889));
#1886=CARTESIAN_POINT('',(-0.037084,0.0624078,0.00889));
#1887=CARTESIAN_POINT('',(-0.0248158,0.0624078,0.00889));
#1888=CARTESIAN_POINT('',(-0.0248158,0.074676,0.00889));
#1889=CARTESIAN_POINT('',(6.93889390390723E-18,0.074676,0.00889));
#1890=CARTESIAN_POINT('',(0.0248158,0.074676,0.00889));
#1891=CARTESIAN_POINT('',(0.0248158,0.0624078,0.00889));
#1892=CARTESIAN_POINT('',(0.037084,0.0624078,0.00889));
#1893=CARTESIAN_POINT('',(0.037084,-3.50546197221611E-18,0.00889));
#1894=CARTESIAN_POINT('',(0.037084,0.037846,0.00889));
#1895=CARTESIAN_POINT('',(0.,0.037846,0.00889));
#1896=CARTESIAN_POINT('',(0.037084,0.037846,0.00889));
#1897=CARTESIAN_POINT('',(0.037084,0.037846,0.00889));
#1898=CARTESIAN_POINT('',(0.037084,0.037846,0.00889));
#1899=CARTESIAN_POINT('',(0.037084,0.037846,0.00635));
#1900=CARTESIAN_POINT('',(0.0232918,0.0451612,0.00508));
#1901=CARTESIAN_POINT('',(0.033655,0.0451612,0.00508));
#1902=CARTESIAN_POINT('',(0.0232918,0.034798,0.00508));
#1903=CARTESIAN_POINT('',(0.,0.034798,0.00508));
#1904=CARTESIAN_POINT('',(0.0071882,0.034798,0.00508));
#1905=CARTESIAN_POINT('',(0.033655,0.,0.00508));
#1906=CARTESIAN_POINT('',(0.033655,0.0612648,0.00508));
#1907=CARTESIAN_POINT('',(0.0071882,0.0451612,0.00508));
#1908=CARTESIAN_POINT('',(-0.003175,0.0451612,0.00508));
#1909=CARTESIAN_POINT('',(0.0232918,0.0612648,0.00508));
#1910=CARTESIAN_POINT('',(0.0232918,0.071628,0.00508));
#1911=CARTESIAN_POINT('',(-0.003175,0.053213,0.00508));
#1912=CARTESIAN_POINT('',(-0.003175,0.0612648,0.00508));
#1913=CARTESIAN_POINT('',(0.01524,0.071628,0.00508));
#1914=CARTESIAN_POINT('',(0.0071882,0.071628,0.00508));
#1915=CARTESIAN_POINT('',(0.0071882,0.0612648,0.00508));
#1916=MECHANICAL_DESIGN_GEOMETRIC_PRESENTATION_REPRESENTATION('',(#1093),
#1917);
#1917=(
GEOMETRIC_REPRESENTATION_CONTEXT(3)
GLOBAL_UNCERTAINTY_ASSIGNED_CONTEXT((#1918))
GLOBAL_UNIT_ASSIGNED_CONTEXT((#1921,#1920,#1919))
REPRESENTATION_CONTEXT('Part 1','TOP_LEVEL_ASSEMBLY_PART')
);
#1918=UNCERTAINTY_MEASURE_WITH_UNIT(LENGTH_MEASURE(1.E-8),#1921,
'DISTANCE_ACCURACY_VALUE','Maximum Tolerance applied to model');
#1919=(
NAMED_UNIT(*)
SI_UNIT($,.STERADIAN.)
SOLID_ANGLE_UNIT()
);
#1920=(
NAMED_UNIT(*)
PLANE_ANGLE_UNIT()
SI_UNIT($,.RADIAN.)
);
#1921=(
LENGTH_UNIT()
NAMED_UNIT(*)
SI_UNIT($,.METRE.)
);
#1922=PRODUCT_DEFINITION_SHAPE('','',#1923);
#1923=PRODUCT_DEFINITION('','',#1925,#1924);
#1924=PRODUCT_DEFINITION_CONTEXT('',#1931,'design');
#1925=PRODUCT_DEFINITION_FORMATION_WITH_SPECIFIED_SOURCE('','',#1927,
 .NOT_KNOWN.);
#1926=PRODUCT_RELATED_PRODUCT_CATEGORY('','',(#1927));
#1927=PRODUCT('Part 1','Part 1','Part 1',(#1929));
#1928=PRODUCT_CATEGORY('','');
#1929=PRODUCT_CONTEXT('',#1931,'mechanical');
#1930=APPLICATION_PROTOCOL_DEFINITION('international standard',
'ap242_managed_model_based_3d_engineering',2020,#1931);
#1931=APPLICATION_CONTEXT('managed model based 3d engineering');
ENDSEC;
END-ISO-10303-21;
